<REAPER_PROJECT 0.1 "4.54/x64" 1400024309
  RIPPLE 0
  GROUPOVERRIDE 1 0 0
  AUTOXFADE 1
  ENVATTACH 1
  MIXERUIFLAGS 11 48
  PEAKGAIN 1.00000000000000
  FEEDBACK 0
  PANLAW 1.00000000000000
  PROJOFFS 0.00000000000000 0
  MAXPROJLEN 0 600.00000000000000
  GRID 3199 8 1.00000000000000 8 1.00000000000000 0 0
  TIMEMODE 1 0 -1
  PANMODE 3
  CURSOR 13.33333333333333
  ZOOM 8.33979782667095 0 0
  VZOOMEX 5
  USE_REC_CFG 0
  RECMODE 1
  SMPTESYNC 0 23.976024 100 40 1000 300 0 0.000000 1
  LOOP 0
  LOOPGRAN 0 4.00000000000000
  RECORD_PATH "" ""
  <RECORD_CFG
  >
  <APPLYFX_CFG
  >
  RENDER_FILE "C:\Users\Mike\Desktop\Chip1.mp3"
  RENDER_FMT 0 2 44100
  RENDER_1X 0
  RENDER_RANGE 2 0.00000000000000 0.00000000000000
  RENDER_RESAMPLE 3 0 1
  RENDER_ADDTOPROJ 0
  RENDER_STEMS 0
  RENDER_DITHER 0
  TIMELOCKMODE 1
  TEMPOENVLOCKMODE 1
  ITEMMIX 0
  DEFPITCHMODE 393216
  TAKELANE 1
  SAMPLERATE 44100 0 0
  <RENDER_CFG
    bDNwbSAAAAABAAAA/////wAAAAAAAAAAQAEAAAAAAAA=
  >
  LOCK 1
  <METRONOME 6 2.000000
    VOL 0.250000 0.125000
    FREQ 800 1600 1
    BEATLEN 4
    SAMPLES "" ""
  >
  GLOBAL_AUTO -1
  TEMPO 180.00000000000000 4 4
  PLAYRATE 1.00000000000000 0 0.25000 4.00000
  SELECTION 0.00000000000000 0.00000000000000
  SELECTION2 0.00000000000000 0.00000000000000
  MASTERAUTOMODE 0
  MASTERTRACKHEIGHT 0
  MASTERPEAKCOL 16576
  MASTERMUTESOLO 0
  MASTERTRACKVIEW 0 0.666700 0.500000 0.500000 0 -1 0
  MASTERHWOUT 0 0 1.00000000000000 0.00000000000000 0 0 0 -1.00000000000000
  MASTER_NCH 2 2
  MASTER_VOLUME 0.83952482809377 0.00000000000000 -1.00000000000000 -1.00000000000000 1.00000000000000
  MASTER_FX 1
  MASTER_SEL 0
  <MASTERFXLIST
    SHOW 0
    LASTSEL 0
    DOCKED 0
    BYPASS 0 0
    <VST "VST: EZmix (Toontrack)" "EZmix.dll" 0 ""
      eG16Ze5e7f4CAAAAAQAAAAAAAAACAAAAAAAAAAIAAAABAAAAAAAAAAIAAAAAAAAAdQAAAAEAAAAAABAAViAxClJlcG9ydExhdGVuY3kgMQpQcmVzZXQgIk1hc3Rlcmlu
      ZyIgIlJhZGlvIFR3ZWFrIgpTaGFwZSAwLjYwMzk2CkJsZW5kIDAuNjYzMzY2CkxldmVsIDAuNzUKSW5wdXQgMC43NQpJbnB1dExvY2sgMAoAAEJhc2ljABAAAAA=
    >
    FLOATPOS -1213 295 793 532
    FXID {DF587190-F936-473E-8025-EB767C174393}
    WAK 0
  >
  <MASTERPLAYSPEEDENV
    ACT 0
    VIS 0 1 1.000000
    LANEHEIGHT 0 0
    ARM 0
    DEFSHAPE 0 -1 -1
  >
  <TEMPOENVEX
    ACT 0
    VIS 1 0 1.000000
    LANEHEIGHT 0 0
    ARM 0
    DEFSHAPE 1 -1 -1
    PT 0.000000000000 180.0000000000 1 262148 0 1
    PT 45.333333333333 180.0000000000 1 262150 0 1
    PT 47.333333333333 180.0000000000 1 262148 0 1
    PT 55.333333333333 180.0000000000 1 262150 0 1
    PT 57.333333333333 180.0000000000 1 262148 0 1
    PT 65.333333333333 180.0000000000 1 262150 0 1
    PT 67.333333333333 180.0000000000 1 262148 0 1
  >
  <PROJBAY
  >
  <TRACK '{2EF3C790-EC00-4585-BCBC-5E0F5E138E2D}'
    NAME "DMG/NES - Bass"
    PEAKCOL 26310911
    BEAT -1
    AUTOMODE 0
    VOLPAN 1.00000000000000 0.00000000000000 -1.00000000000000 -1.00000000000000 1.00000000000000
    MUTESOLO 0 0 0
    IPHASE 0
    ISBUS 0 0
    BUSCOMP 0 0
    SHOWINMIX 1 0.666700 0.500000 1 0.500000 0 -1 0
    FREEMODE 0
    SEL 0
    REC 0 0 0 0 0 0 0
    VU 2
    TRACKHEIGHT 0 0
    INQ 0 0 0 0.5000000000 100 0 0 100
    NCHAN 2
    FX 1
    TRACKID {2EF3C790-EC00-4585-BCBC-5E0F5E138E2D}
    PERF 0
    MIDIOUT -1
    MAINSEND 1 0
    <VOLENV2
      ACT 1
      VIS 1 1 1.000000
      LANEHEIGHT 0 0
      ARM 1
      DEFSHAPE 0 -1 -1
      PT 0.000000 0.616236 0
      PT 67.332833 0.653061 0
      PT 67.333333 0.367347 0
      PT 88.666667 0.367347 0
      PT 88.667167 0.520411 0
      PT 94.000500 0.571429 0
    >
    <FXCHAIN
      WNDRECT -1271 405 1117 574
      SHOW 0
      LASTSEL 0
      DOCKED 0
      BYPASS 0 0
      <VST "VSTi: chipsounds (Plogue Art et Technologie, Inc)" "chipsounds VST_x64.dll" 0 ""
        T0dMUO5e7f4AAAAAAgAAAAEAAAAAAAAAAgAAAAAAAACpAwAAAQAAAAAAEABDRUdQExkAAHic7Vnbjts2EH0v0H8g9JQ+rCTqagV2A8debwzUiRE7QNGXgJYnXqKU5IqU
        u9uv71Cy1vJ11aBtsIiHMERRh8M5MxKHpLtvHhJBNpBLnqU9g5q2Qd78/OMP3X7O2YxtoPEsCCKDrPNsWcRqPMQG244MxBKU7gyU4ulKkj8KJrh6xMcGkSoHlmBzz3Ad
        gyTsYVa29IXI4snbnuH4gUEm4+H4Q6Em2RLKXqxQWcIUDjoTmeoZdrNJwAZEz+Ap6i4SSJVBBN9A1RmRMsaxolBXmGDYRMkNAW2UKWOxbR5gP8h7RoAdViJbMDEv0tJM
        27RLMYj1xAyNIHxZak9ZooehJpkWOZDBPV9bw8md/pFXRSp4whUsfzLIgqW/j5dbH5H4nqWpNvsG6a0zUXlHHY25XnzOWboCDdw1KmyT5fBJo1qoLeE/PwsmSzdtLS6t
        7hcPtdEbJgqNNb1wn1oJnDCeHiDpkRP2kbSh8zLSaY10WyO91ki/NTJojQxbIzutkVFrJLXbQ9tHibYPE20fJ9o+UPTZSE1ZzpKtBfS5F7UB9nbUaOeM7jnLV6C233ac
        JeZUZKsCTD0Fmr+MPpiFhHzv6yq7DQqJk9KQKUbU4xq7Oo4b6EmP/4U3ng5/PXXiiJAuOauqS+yClVpG1cWx/105IGlVLP8xb/qd8f6IBkOO8/IMpCZhSgXr/y34nmO7
        ZaVj39oDLEP8vcUS2X0sEZZRo/g2xdKxAyw+lqcnX++Eec5XK8hnmDIhjSF/njkNHRrVzB2/wdw5xZxuiW+lug/LujsIR9FeMAe2e5lL19Lp+ShV09Op2unbv1ofp3hx
        yav389ngv8nUej69mKrp3ld1TcHXFPyiUnAzAB3XvwR9Kdk68L5x2rrKVa7y9fKtlrvXieMqV3nB8p1ulW6/fIFYHZ9t9pMF12wONkanF2x7h4uRa7ud82u7BtRxnTA8
        vwxsrm89XAfS81qbi1b/VDhPL1ppQB3PP29rk5dPw0ifJ5/DNomFHcf1vMbZsbVzc91092lc+47Fim9gXJ1yO/X97dOptwSBnWE5Z4vD491pDhLUBNKCcFni9Ta1DPfl
        d5QoeEDIDYFkrR7JDe5ambrvGb+9tvQWWWZFupRWpV5aFzRZTypMhhl0feihnYEga0JNA+9YnnPFUnP3xlWmTfEryMg7JgShtXWD12hSttJOH3EBaGBplKVz956xR1qt
        prpDS7sWRkP/22HVf3fgzd9DmNtKAAAQAAAA
      >
      FLOATPOS 230 328 887 527
      FXID {3B189A88-E2AC-4E02-9911-A3CDE76BEB4F}
      WAK 0
      BYPASS 0 0
      <VST "VST: ReaEQ (Cockos)" "reaeq.dll" 0 ""
        cWVlcu5e7f4CAAAAAQAAAAAAAAACAAAAAAAAAAIAAAABAAAAAAAAAAIAAAAAAAAAoAAAAAEAAAAAABAAIQAAAAQAAAAAAAAAAQAAAIEBHAtLyWBA/0fPWSKl+T+Aarx0
        kxjEPwEIAAAAAQAAAAAAAAAAwHJAAAAAAAAA8D8AAAAAAAAAQAEIAAAAAQAAAAAAAAAAQI9AAAAAAAAA8D8AAAAAAAAAQAEBAAAAAQAAAH8MenXF381AAGFjcxJW5D/A
        91PjpZvsPwEBAAAAAQAAAAAAAAAAAPA/AAAAAAAAEAAAAA==
      >
      FLOATPOS 0 0 0 0
      FXID {307B59CB-D816-4571-A6A2-8A187ED937E6}
      WAK 0
    >
    <ITEM
      POSITION 5.33333333336333
      SNAPOFFS 0.00000000000000
      LENGTH 5.33333333333333
      LOOP 1
      ALLTAKES 0
      SEL 0
      FADEIN 1 0.000000 0.000000 1 0 0.000000
      FADEOUT 1 0.000000 0.000000 1 0 0.000000
      MUTE 0
      IGUID {66A3A0D2-A821-4A08-80CD-88DBDE7B4DC3}
      IID 47
      NAME "NES - Bass untitled MIDI item"
      VOLPAN 1.000000 0.000000 1.000000 -1.000000
      SOFFS 0.00000000000000 0.00000000000000
      PLAYRATE 1.00000000000000 1 0.00000000000000 -1 0 0.002500
      CHANMODE 0
      GUID {B4528FAA-43C7-4489-A68B-39B5BABB6DFD}
      <SOURCE MIDI
        HASDATA 1 960 QN
        POOLEDEVTS {31B9AE05-49A6-41B6-AE49-907410A6572C}
        E 0 90 1c 7f
        E 120 80 1c 00
        E 120 90 1c 7f
        E 120 80 1c 00
        E 120 90 1c 7f
        E 120 80 1c 00
        E 1800 90 1c 7f
        E 120 80 1c 00
        E 360 90 1c 7f
        E 120 80 1c 00
        E 120 90 1c 7f
        E 120 80 1c 00
        e 4440 90 1f 7f
        e 120 80 1f 00
        e 120 90 1f 7f
        e 120 80 1f 00
        e 120 90 1f 7f
        e 120 80 1f 00
        e 1800 90 1f 7f
        e 120 80 1f 00
        e 360 90 1f 7f
        e 120 80 1f 00
        e 120 90 1f 7f
        e 120 80 1f 00
        E 4440 b0 7b 00
        GUID {3792B65E-A960-459A-B16F-80CD4CDDE0F7}
        IGNTEMPO 0 120.00000000 4 4
        SRCCOLOR 93
        VELLANE -1 112 0
        CFGEDITVIEW -768.000000 0.100024 61 12 0 0 0 0 0
        KEYSNAP 0 0 "102034050607" 0 "Major"
        TRACKSEL 0 0 0
        EVTFILTER 0 -1 -1 -1 -1 0 1 0 0 -1.00000000 -1.00000000
        CFGEDIT 1 1 0 1 0 0 1 1 1 1 1 0.25000000 -1902 41 -43 1043 0 0 0 0 0.00000000 0 0 0 0 0.500000 0 0 1.000000 64
      >
    >
    <ITEM
      POSITION 10.66666666669666
      SNAPOFFS 0.00000000000000
      LENGTH 5.33333333332667
      LOOP 1
      ALLTAKES 0
      SEL 0
      FADEIN 1 0.000000 0.000000 1 0 0.000000
      FADEOUT 1 0.000000 0.000000 1 0 0.000000
      MUTE 0
      IGUID {246065A5-8ADD-4E10-8E9E-C48FF393F3A4}
      IID 3
      NAME "Bass Synth untitled MIDI item glued"
      VOLPAN 1.000000 0.000000 1.000000 -1.000000
      SOFFS 0.00000000000000 0.00000000000000
      PLAYRATE 1.00000000000000 1 0.00000000000000 -1 0 0.002500
      CHANMODE 0
      GUID {E3BD5D25-9D0D-4E67-9D1D-1E8DE652A07A}
      <SOURCE MIDI
        HASDATA 1 960 QN
        POOLEDEVTS {C67513E9-9BC2-4095-8196-7D772A2F7374}
        E 0 90 1c 77
        E 1080 80 1c 00
        E 360 90 1c 77
        E 840 80 1c 00
        E 120 90 1c 77
        E 120 80 1c 00
        E 120 90 1c 77
        E 120 80 1c 00
        E 1560 90 1e 77
        E 720 80 1e 00
        E 240 90 1e 77
        E 480 80 1e 00
        E 0 90 1e 77
        E 960 80 1e 00
        E 960 90 1f 77
        E 1080 80 1f 00
        E 360 90 1f 77
        E 840 80 1f 00
        E 120 90 1f 77
        E 120 80 1f 00
        E 120 90 1f 77
        E 120 80 1f 00
        E 1560 90 21 77
        E 720 80 21 00
        E 240 90 21 77
        E 480 80 21 00
        E 0 90 21 77
        E 960 80 21 00
        E 0 90 2d 77
        E 120 80 2d 00
        E 120 90 39 77
        E 120 80 39 00
        E 120 90 2d 77
        E 120 80 2d 00
        e 120 90 39 77
        e 120 80 39 00
        E 120 b0 7b 00
        GUID {9964B592-38E5-42A0-921D-E5FA2CCADC42}
        IGNTEMPO 0 120.00000000 4 4
        SRCCOLOR 3
        VELLANE -1 112 0
        CFGEDITVIEW -670.278805 0.059305 68 12 0 0 0 0 0
        KEYSNAP 0 0 "102034050607" 0 "Major"
        TRACKSEL 0 0 0
        EVTFILTER 0 -1 -1 -1 -1 0 1 0 0 -1.00000000 -1.00000000
        CFGEDIT 1 1 0 1 0 0 1 1 1 1 1 0.12500000 -1917 35 -10 1085 0 0 0 0 0.00000000 0 0 0 0 0.500000 0 0 1.000000 64
      >
    >
    <ITEM
      POSITION 16.00000000002666
      SNAPOFFS 0.00000000000000
      LENGTH 5.33333333332670
      LOOP 1
      ALLTAKES 0
      SEL 0
      FADEIN 1 0.000000 0.000000 1 0 0.000000
      FADEOUT 1 0.000000 0.000000 1 0 0.000000
      MUTE 0
      IGUID {741B8D9F-DF71-4276-8BD9-704AF473794F}
      IID 31
      NAME "Bass Synth untitled MIDI item glued"
      VOLPAN 1.000000 0.000000 1.000000 -1.000000
      SOFFS 0.00000000000000 0.00000000000000
      PLAYRATE 1.00000000000000 1 0.00000000000000 -1 0 0.002500
      CHANMODE 0
      GUID {9F9E504E-E555-40E6-A9A7-21DC4A538D11}
      <SOURCE MIDI
        HASDATA 1 960 QN
        POOLEDEVTS {9E3494EC-E90F-4977-9FCC-7CF2CB304195}
        E 0 90 1c 77
        E 1080 80 1c 00
        E 360 90 1c 77
        E 840 80 1c 00
        E 120 90 1c 77
        E 120 80 1c 00
        E 120 90 1c 77
        E 120 80 1c 00
        E 1560 90 1e 77
        E 720 80 1e 00
        E 240 90 1e 77
        E 480 80 1e 00
        E 0 90 1e 77
        E 960 80 1e 00
        E 960 90 1f 77
        E 1080 80 1f 00
        E 360 90 1f 77
        E 840 80 1f 00
        E 120 90 1f 77
        E 120 80 1f 00
        E 120 90 1f 77
        E 120 80 1f 00
        E 1080 90 21 60
        E 120 80 21 00
        E 120 90 21 60
        E 120 80 21 00
        E 120 90 2d 60
        E 120 80 2d 00
        E 120 90 15 60
        E 120 80 15 00
        E 120 90 2d 60
        E 120 80 2d 00
        E 120 90 15 60
        E 120 80 15 00
        E 120 90 21 60
        E 120 80 21 00
        E 120 90 21 60
        E 120 80 21 00
        E 120 90 2d 60
        E 120 80 2d 00
        E 120 90 15 60
        E 120 80 15 00
        E 120 90 2d 60
        E 120 80 2d 00
        E 120 90 15 60
        E 120 80 15 00
        E 120 90 2d 77
        E 120 80 2d 00
        E 0 90 39 77
        E 120 80 39 00
        E 0 90 2d 77
        E 120 80 2d 00
        E 0 90 39 77
        E 120 80 39 00
        E 0 90 2d 77
        E 120 80 2d 00
        E 0 90 39 77
        E 120 80 39 00
        E 0 90 2d 77
        E 120 80 2d 00
        E 0 90 39 77
        E 120 80 39 00
        E 0 b0 7b 00
        GUID {549D3CA8-2B54-4935-8C82-748B0831AA59}
        IGNTEMPO 0 120.00000000 4 4
        SRCCOLOR 50
        VELLANE -1 112 0
        CFGEDITVIEW -768.000000 0.101918 49 12 0 0 0 0 0
        KEYSNAP 0 0 "102034050607" 0 "Major"
        TRACKSEL 0 0 0
        EVTFILTER 0 -1 -1 -1 -1 0 1 0 0 -1.00000000 -1.00000000
        CFGEDIT 1 1 0 1 0 0 1 1 1 1 1 0.25000000 -1915 39 -24 1073 0 0 0 0 0.00000000 0 0 0 0 0.500000 0 0 1.000000 64
      >
    >
    <ITEM
      POSITION 21.33333333335334
      SNAPOFFS 0.00000000000000
      LENGTH 5.33333333332671
      LOOP 1
      ALLTAKES 0
      SEL 0
      FADEIN 1 0.000000 0.000000 1 0 0.000000
      FADEOUT 1 0.000000 0.000000 1 0 0.000000
      MUTE 0
      IGUID {FE08E01A-2F7D-46C7-AE09-52C5FA76FB2C}
      IID 31
      NAME "Bass Synth untitled MIDI item glued"
      VOLPAN 1.000000 0.000000 1.000000 -1.000000
      SOFFS 0.00000000000000 0.00000000000000
      PLAYRATE 1.00000000000000 1 0.00000000000000 -1 0 0.002500
      CHANMODE 0
      GUID {B95FEE01-4E2C-4A90-9C21-F1CA9933D459}
      <SOURCE MIDI
        HASDATA 1 960 QN
        POOLEDEVTS {49D49E71-E6D1-48B9-81C2-A610F057A1AD}
        E 0 90 1c 77
        E 1080 80 1c 00
        E 360 90 1c 77
        E 840 80 1c 00
        E 120 90 1c 77
        E 120 80 1c 00
        E 120 90 1c 77
        E 120 80 1c 00
        E 1560 90 1e 77
        E 720 80 1e 00
        E 240 90 1e 77
        E 480 80 1e 00
        E 0 90 1e 77
        E 960 80 1e 00
        E 960 90 1f 77
        E 1080 80 1f 00
        E 360 90 1f 77
        E 840 80 1f 00
        E 120 90 1f 77
        E 120 80 1f 00
        E 120 90 1f 77
        E 120 80 1f 00
        E 1080 90 21 60
        E 120 80 21 00
        E 120 90 21 60
        E 120 80 21 00
        E 120 90 2d 60
        E 120 80 2d 00
        E 120 90 15 60
        E 120 80 15 00
        E 120 90 2d 60
        E 120 80 2d 00
        E 120 90 15 60
        E 120 80 15 00
        E 120 90 21 60
        E 120 80 21 00
        E 120 90 21 60
        E 120 80 21 00
        E 120 90 2d 60
        E 120 80 2d 00
        E 120 90 15 60
        E 120 80 15 00
        E 120 90 2d 60
        E 120 80 2d 00
        E 120 90 15 60
        E 120 80 15 00
        E 120 90 2d 77
        E 120 80 2d 00
        E 0 90 39 77
        E 120 80 39 00
        E 0 90 2d 77
        E 120 80 2d 00
        E 0 90 39 77
        E 120 80 39 00
        E 0 90 2d 77
        E 120 80 2d 00
        E 0 90 39 77
        E 120 80 39 00
        E 0 90 2d 77
        E 120 80 2d 00
        E 0 90 39 77
        E 120 80 39 00
        E 0 b0 7b 00
        GUID {8472EA24-8A56-4178-B406-F0244F90B0FB}
        IGNTEMPO 0 120.00000000 4 4
        SRCCOLOR 72
        VELLANE -1 112 0
        CFGEDITVIEW 0.000000 0.000000 49 12 0 0 0 0 0
        KEYSNAP 0 0 "102034050607" 0 "Major"
        TRACKSEL 0 0 0
        EVTFILTER 0 -1 -1 -1 -1 0 1 0 0 -1.00000000 -1.00000000
        CFGEDIT 1 1 0 1 0 0 1 1 1 1 1 0.25000000 -1915 39 -24 1073 0 0 0 0 0.00000000 0 0 0 0 0.500000 0 0 1.000000 64
      >
    >
    <ITEM
      POSITION 26.66666666669669
      SNAPOFFS 0.00000000000000
      LENGTH 5.33333333332666
      LOOP 1
      ALLTAKES 0
      SEL 0
      FADEIN 1 0.000000 0.000000 1 0 0.000000
      FADEOUT 1 0.000000 0.000000 1 0 0.000000
      MUTE 0
      IGUID {CB2D470B-7810-4043-8B41-B489FE43A6D4}
      IID 3
      NAME "Bass Synth untitled MIDI item glued"
      VOLPAN 1.000000 0.000000 1.000000 -1.000000
      SOFFS 0.00000000000000 0.00000000000000
      PLAYRATE 1.00000000000000 1 0.00000000000000 -1 0 0.002500
      CHANMODE 0
      GUID {0EE6F48F-47F6-4822-8AA8-90BCC2DEF63B}
      <SOURCE MIDI
        HASDATA 1 960 QN
        POOLEDEVTS {E403B62B-8E2C-4F83-AC07-54BF7F5F4611}
        E 0 90 1c 77
        E 1080 80 1c 00
        E 360 90 1c 77
        E 840 80 1c 00
        E 120 90 1c 77
        E 120 80 1c 00
        E 120 90 1c 77
        E 120 80 1c 00
        E 1560 90 1e 77
        E 720 80 1e 00
        E 240 90 1e 77
        E 480 80 1e 00
        E 0 90 1e 77
        E 960 80 1e 00
        e 960 90 1f 77
        e 1080 80 1f 00
        E 360 90 1f 77
        E 840 80 1f 00
        E 120 90 1f 77
        E 120 80 1f 00
        E 120 90 1f 77
        E 120 80 1f 00
        E 1080 90 21 60
        E 120 80 21 00
        E 120 90 21 60
        E 120 80 21 00
        E 120 90 2d 60
        E 120 80 2d 00
        E 120 90 15 60
        E 120 80 15 00
        E 120 90 2d 60
        E 120 80 2d 00
        E 120 90 15 60
        E 120 80 15 00
        E 120 90 21 60
        E 120 80 21 00
        E 120 90 21 60
        E 120 80 21 00
        E 120 90 2d 60
        E 120 80 2d 00
        E 120 90 15 60
        E 120 80 15 00
        E 120 90 2d 60
        E 120 80 2d 00
        E 120 90 15 60
        E 120 80 15 00
        E 120 90 2d 77
        E 120 80 2d 00
        E 0 90 39 77
        E 120 80 39 00
        E 0 90 2d 77
        E 120 80 2d 00
        E 0 90 39 77
        E 120 80 39 00
        E 0 90 2d 77
        E 120 80 2d 00
        E 0 90 39 77
        E 120 80 39 00
        E 0 90 2d 77
        E 120 80 2d 00
        E 0 90 39 77
        E 120 80 39 00
        E 0 b0 7b 00
        GUID {78835E73-7625-443E-BC81-49AB1899CBA2}
        IGNTEMPO 0 120.00000000 4 4
        SRCCOLOR 36
        VELLANE -1 112 0
        CFGEDITVIEW -768.000000 0.101918 61 12 0 0 0 0 0
        KEYSNAP 0 0 "102034050607" 0 "Major"
        TRACKSEL 0 0 0
        EVTFILTER 0 -1 -1 -1 -1 0 1 0 0 -1.00000000 -1.00000000
        CFGEDIT 1 1 0 1 0 0 1 1 1 1 1 0.25000000 -1907 42 -16 1076 0 0 0 0 0.00000000 0 0 0 0 0.500000 0 0 1.000000 64
      >
    >
    <ITEM
      POSITION 32.00000000003001
      SNAPOFFS 0.00000000000000
      LENGTH 5.33333333332666
      LOOP 1
      ALLTAKES 0
      SEL 0
      FADEIN 1 0.000000 0.000000 1 0 0.000000
      FADEOUT 1 0.000000 0.000000 1 0 0.000000
      MUTE 0
      IGUID {EE7374EC-2E3E-4D9F-B13C-0902E497323F}
      IID 3
      NAME "Bass Synth untitled MIDI item glued"
      VOLPAN 1.000000 0.000000 1.000000 -1.000000
      SOFFS 0.00000000000000 0.00000000000000
      PLAYRATE 1.00000000000000 1 0.00000000000000 -1 0 0.002500
      CHANMODE 0
      GUID {E2C4197B-B110-45B0-8642-E316BB6D1B00}
      <SOURCE MIDI
        HASDATA 1 960 QN
        POOLEDEVTS {30FA894C-CDB4-43BB-9D23-8C8F005F3BAD}
        E 0 90 1c 77
        E 1080 80 1c 00
        E 360 90 1c 77
        E 840 80 1c 00
        E 120 90 1c 77
        E 120 80 1c 00
        E 120 90 1c 77
        E 120 80 1c 00
        E 1560 90 1e 77
        E 720 80 1e 00
        E 240 90 1e 77
        E 480 80 1e 00
        E 0 90 1e 77
        E 960 80 1e 00
        e 960 90 1f 77
        e 1080 80 1f 00
        E 360 90 1f 77
        E 840 80 1f 00
        E 120 90 1f 77
        E 120 80 1f 00
        E 120 90 1f 77
        E 120 80 1f 00
        E 1080 90 21 60
        E 120 80 21 00
        E 120 90 21 60
        E 120 80 21 00
        E 120 90 2d 60
        E 120 80 2d 00
        E 120 90 15 60
        E 120 80 15 00
        E 120 90 2d 60
        E 120 80 2d 00
        E 120 90 15 60
        E 120 80 15 00
        E 120 90 21 60
        E 120 80 21 00
        E 120 90 21 60
        E 120 80 21 00
        E 120 90 2d 60
        E 120 80 2d 00
        E 120 90 15 60
        E 120 80 15 00
        E 120 90 2d 60
        E 120 80 2d 00
        E 120 90 15 60
        E 120 80 15 00
        E 120 90 2d 77
        E 120 80 2d 00
        E 0 90 39 77
        E 120 80 39 00
        E 0 90 2d 77
        E 120 80 2d 00
        E 0 90 39 77
        E 120 80 39 00
        E 0 90 2d 77
        E 120 80 2d 00
        E 0 90 39 77
        E 120 80 39 00
        E 0 90 2d 77
        E 120 80 2d 00
        E 0 90 39 77
        E 120 80 39 00
        E 0 b0 7b 00
        GUID {511663E3-F43A-4C6D-BE73-9CD4822BDCA8}
        IGNTEMPO 0 120.00000000 4 4
        SRCCOLOR 113
        VELLANE -1 112 0
        CFGEDITVIEW 0.000000 0.000000 61 12 0 0 0 0 0
        KEYSNAP 0 0 "102034050607" 0 "Major"
        TRACKSEL 0 0 0
        EVTFILTER 0 -1 -1 -1 -1 0 1 0 0 -1.00000000 -1.00000000
        CFGEDIT 1 1 0 1 0 0 1 1 1 1 1 0.25000000 -1907 42 -16 1076 0 0 0 0 0.00000000 0 0 0 0 0.500000 0 0 1.000000 64
      >
    >
    <ITEM
      POSITION 37.33333333336335
      SNAPOFFS 0.00000000000000
      LENGTH 9.99999999998332
      LOOP 1
      ALLTAKES 0
      SEL 0
      FADEIN 1 0.000000 0.000000 1 0 0.000000
      FADEOUT 1 0.000000 0.000000 1 0 0.000000
      MUTE 0
      IGUID {128493B7-38BA-42D6-9450-1B4B2CB51301}
      IID 80
      NAME "NES - Bass untitled MIDI item"
      VOLPAN 1.000000 0.000000 1.000000 -1.000000
      SOFFS 0.00000000000000 0.00000000000000
      PLAYRATE 1.00000000000000 1 0.00000000000000 -1 0 0.002500
      CHANMODE 0
      GUID {2CDD90D2-FDDF-4110-8E25-00E19FCF8894}
      <SOURCE MIDI
        HASDATA 1 960 QN
        POOLEDEVTS {78672667-2917-4B0B-A162-25143DA05F79}
        E 0 90 1c 7f
        E 0 90 23 7f
        E 360 80 1c 00
        E 0 80 23 00
        E 120 90 28 68
        E 0 90 2f 68
        E 120 80 28 00
        E 0 80 2f 00
        E 120 90 28 68
        E 0 90 2f 68
        E 120 80 28 00
        E 0 80 2f 00
        E 120 90 1c 7f
        E 0 90 23 7f
        E 360 80 1c 00
        E 0 80 23 00
        E 120 90 28 68
        E 0 90 2f 68
        E 120 80 28 00
        E 0 80 2f 00
        E 120 90 28 68
        E 0 90 2f 68
        E 120 80 28 00
        E 0 80 2f 00
        E 120 90 1c 7f
        E 0 90 23 7f
        E 360 80 1c 00
        E 0 80 23 00
        E 120 90 28 68
        E 0 90 2f 68
        E 120 80 28 00
        E 0 80 2f 00
        E 120 90 28 68
        E 0 90 2f 68
        E 120 80 28 00
        E 0 80 2f 00
        E 120 90 1c 7f
        E 0 90 23 7f
        E 360 80 1c 00
        E 0 80 23 00
        E 120 90 28 68
        E 0 90 2f 68
        E 120 80 28 00
        E 0 80 2f 00
        E 120 90 28 68
        E 0 90 2f 68
        E 120 80 28 00
        E 0 80 2f 00
        E 120 90 1c 7f
        E 0 90 23 7f
        E 360 80 1c 00
        E 0 80 23 00
        E 120 90 28 68
        E 0 90 2f 68
        E 120 80 28 00
        E 0 80 2f 00
        E 120 90 28 68
        E 0 90 2f 68
        E 120 80 28 00
        E 0 80 2f 00
        E 120 90 1c 7f
        E 0 90 23 7f
        E 360 80 1c 00
        E 0 80 23 00
        E 120 90 28 68
        E 0 90 2f 68
        E 120 80 28 00
        E 0 80 2f 00
        E 120 90 28 68
        E 0 90 2f 68
        E 120 80 28 00
        E 0 80 2f 00
        E 120 90 1c 7f
        E 0 90 23 7f
        E 360 80 1c 00
        E 0 80 23 00
        E 120 90 28 68
        E 0 90 2f 68
        E 120 80 28 00
        E 0 80 2f 00
        E 120 90 28 68
        E 0 90 2f 68
        E 120 80 28 00
        E 0 80 2f 00
        E 120 90 1c 7f
        E 0 90 23 7f
        E 360 80 1c 00
        E 0 80 23 00
        E 120 90 28 68
        E 0 90 2f 68
        E 120 80 28 00
        E 0 80 2f 00
        E 120 90 28 68
        E 0 90 2f 68
        E 120 80 28 00
        E 0 80 2f 00
        E 120 90 1f 7f
        E 0 90 26 7f
        E 360 80 1f 00
        E 0 80 26 00
        E 120 90 2b 68
        E 0 90 32 68
        E 120 80 2b 00
        E 0 80 32 00
        E 120 90 2b 68
        E 0 90 32 68
        E 120 80 2b 00
        E 0 80 32 00
        E 120 90 1f 7f
        E 0 90 26 7f
        E 360 80 1f 00
        E 0 80 26 00
        E 120 90 2b 68
        E 0 90 32 68
        E 120 80 2b 00
        E 0 80 32 00
        E 120 90 2b 68
        E 0 90 32 68
        E 120 80 2b 00
        E 0 80 32 00
        E 120 90 1f 7f
        E 0 90 26 7f
        E 360 80 1f 00
        E 0 80 26 00
        E 120 90 2b 68
        E 0 90 32 68
        E 120 80 2b 00
        E 0 80 32 00
        E 120 90 2b 68
        E 0 90 32 68
        E 120 80 2b 00
        E 0 80 32 00
        E 120 90 1f 7f
        E 0 90 26 7f
        E 360 80 1f 00
        E 0 80 26 00
        E 120 90 2b 68
        E 0 90 32 68
        E 120 80 2b 00
        E 0 80 32 00
        E 120 90 2b 68
        E 0 90 32 68
        E 120 80 2b 00
        E 0 80 32 00
        E 120 90 1a 7f
        E 0 90 21 7f
        E 360 80 1a 00
        E 0 80 21 00
        E 120 90 26 68
        E 0 90 2d 68
        E 120 80 26 00
        E 0 80 2d 00
        E 120 90 26 68
        E 0 90 2d 68
        E 120 80 26 00
        E 0 80 2d 00
        E 120 90 1a 7f
        E 0 90 21 7f
        E 360 80 1a 00
        E 0 80 21 00
        E 120 90 26 68
        E 0 90 2d 68
        E 120 80 26 00
        E 0 80 2d 00
        E 120 90 26 68
        E 0 90 2d 68
        E 120 80 26 00
        E 0 80 2d 00
        E 120 90 1a 7f
        E 0 90 21 7f
        E 360 80 1a 00
        E 0 80 21 00
        E 120 90 26 68
        E 0 90 2d 68
        E 120 80 26 00
        E 0 80 2d 00
        E 120 90 26 68
        E 0 90 2d 68
        E 120 80 26 00
        E 0 80 2d 00
        E 120 90 1a 7f
        E 0 90 21 7f
        E 360 80 1a 00
        E 0 80 21 00
        E 120 90 26 68
        E 0 90 2d 68
        E 120 80 26 00
        E 0 80 2d 00
        E 120 90 26 68
        E 0 90 2d 68
        E 120 80 26 00
        E 0 80 2d 00
        E 120 90 1c 7f
        E 0 90 23 7f
        E 360 80 1c 00
        E 0 80 23 00
        E 120 90 28 68
        E 0 90 2f 68
        E 120 80 28 00
        E 0 80 2f 00
        E 120 90 28 68
        E 0 90 2f 68
        E 120 80 28 00
        E 0 80 2f 00
        E 120 90 1c 7f
        E 0 90 23 7f
        E 360 80 1c 00
        E 0 80 23 00
        E 120 90 28 68
        E 0 90 2f 68
        E 120 80 28 00
        E 0 80 2f 00
        E 120 90 28 68
        E 0 90 2f 68
        E 120 80 28 00
        E 0 80 2f 00
        E 120 90 1c 7f
        E 0 90 23 7f
        E 360 80 1c 00
        E 0 80 23 00
        E 120 90 28 68
        E 0 90 2f 68
        E 120 80 28 00
        E 0 80 2f 00
        E 120 90 28 68
        E 0 90 2f 68
        E 120 80 28 00
        E 0 80 2f 00
        E 120 90 1c 7f
        E 0 90 23 7f
        E 360 80 1c 00
        E 0 80 23 00
        E 120 90 28 68
        E 0 90 2f 68
        E 120 80 28 00
        E 0 80 2f 00
        E 120 90 28 68
        E 0 90 2f 68
        E 120 80 28 00
        E 0 80 2f 00
        E 120 90 18 7f
        E 0 90 1f 7f
        E 360 80 18 00
        E 0 80 1f 00
        E 120 90 24 68
        E 0 90 2b 68
        E 120 80 24 00
        E 0 80 2b 00
        E 120 90 24 68
        E 0 90 2b 68
        E 120 80 24 00
        E 0 80 2b 00
        E 120 90 18 7f
        E 0 90 1f 7f
        E 360 80 18 00
        E 0 80 1f 00
        E 120 90 24 68
        E 0 90 2b 68
        E 120 80 24 00
        E 0 80 2b 00
        E 120 90 24 68
        E 0 90 2b 68
        E 120 80 24 00
        E 0 80 2b 00
        E 120 90 18 7f
        E 0 90 1f 7f
        E 360 80 18 00
        E 0 80 1f 00
        E 120 90 24 68
        E 0 90 2b 68
        E 120 80 24 00
        E 0 80 2b 00
        E 120 90 24 68
        E 0 90 2b 68
        E 120 80 24 00
        E 0 80 2b 00
        E 120 90 18 7f
        E 0 90 1f 7f
        E 360 80 18 00
        E 0 80 1f 00
        E 120 90 24 68
        E 0 90 2b 68
        E 120 80 24 00
        E 0 80 2b 00
        E 120 90 24 68
        E 0 90 2b 68
        E 120 80 24 00
        E 0 80 2b 00
        E 120 90 1a 7f
        E 0 90 21 7f
        E 360 80 1a 00
        E 0 80 21 00
        E 120 90 26 68
        E 0 90 2d 68
        E 120 80 26 00
        E 0 80 2d 00
        E 120 90 26 68
        E 0 90 2d 68
        E 120 80 26 00
        E 0 80 2d 00
        E 120 90 1a 7f
        E 0 90 21 7f
        E 360 80 1a 00
        E 0 80 21 00
        E 120 90 26 68
        E 0 90 2d 68
        E 120 80 26 00
        E 0 80 2d 00
        E 120 90 26 68
        E 0 90 2d 68
        E 120 80 26 00
        E 0 80 2d 00
        E 120 90 1a 7f
        E 0 90 21 7f
        E 360 80 1a 00
        E 0 80 21 00
        E 120 90 26 68
        E 0 90 2d 68
        E 120 80 26 00
        E 0 80 2d 00
        E 120 90 26 68
        E 0 90 2d 68
        E 120 80 26 00
        E 0 80 2d 00
        E 120 90 1a 7f
        E 0 90 21 7f
        E 360 80 1a 00
        E 0 80 21 00
        E 120 90 26 68
        E 0 90 2d 68
        E 120 80 26 00
        E 0 80 2d 00
        E 120 90 26 68
        E 0 90 2d 68
        E 120 80 26 00
        E 0 80 2d 00
        e 120 90 1a 7f
        e 0 90 21 7f
        e 360 80 1a 00
        e 0 80 21 00
        e 120 90 26 68
        e 0 90 2d 68
        e 120 80 26 00
        e 0 80 2d 00
        e 120 90 26 68
        e 0 90 2d 68
        e 120 80 26 00
        e 0 80 2d 00
        e 120 90 1a 7f
        e 0 90 21 7f
        e 360 80 1a 00
        e 0 80 21 00
        e 120 90 26 68
        e 0 90 2d 68
        e 120 80 26 00
        e 0 80 2d 00
        e 120 90 26 68
        e 0 90 2d 68
        e 120 80 26 00
        e 0 80 2d 00
        e 120 90 1a 7f
        e 0 90 21 7f
        e 360 80 1a 00
        e 0 80 21 00
        e 120 90 26 68
        e 0 90 2d 68
        e 120 80 26 00
        e 0 80 2d 00
        e 120 90 26 68
        e 0 90 2d 68
        e 120 80 26 00
        e 0 80 2d 00
        e 120 90 1a 7f
        e 0 90 21 7f
        e 360 80 1a 00
        e 0 80 21 00
        e 120 90 26 68
        e 0 90 2d 68
        e 120 80 26 00
        e 0 80 2d 00
        e 120 90 26 68
        e 0 90 2d 68
        e 120 80 26 00
        e 0 80 2d 00
        E 120 b0 7b 00
        GUID {EDA03C60-E625-4F27-A7FC-CE1E7A517277}
        IGNTEMPO 0 120.00000000 4 4
        SRCCOLOR 146
        VELLANE -1 112 0
        CFGEDITVIEW -1440.000000 0.053346 49 11 0 0 0 0 0
        KEYSNAP 0 0 "102034050607" 0 "Major"
        TRACKSEL 0 0 0
        EVTFILTER 0 -1 -1 -1 -1 0 1 0 0 -1.00000000 -1.00000000
        CFGEDIT 1 1 0 1 0 0 1 1 1 1 1 0.12500000 -1862 85 -3 1087 0 0 0 0 0.00000000 0 0 0 0 0.500000 0 0 1.000000 64
      >
    >
    <ITEM
      POSITION 47.33333333334667
      SNAPOFFS 0.00000000000000
      LENGTH 9.99999999999301
      LOOP 1
      ALLTAKES 0
      SEL 0
      FADEIN 1 0.000000 0.000000 1 0 0.000000
      FADEOUT 1 0.000000 0.000000 1 0 0.000000
      MUTE 0
      IGUID {92641500-F6CF-46CE-986E-9D90B469C72F}
      IID 80
      NAME "NES - Bass untitled MIDI item"
      VOLPAN 1.000000 0.000000 1.000000 -1.000000
      SOFFS 0.00000000000000 0.00000000000000
      PLAYRATE 1.00000000000000 1 0.00000000000000 -1 0 0.002500
      CHANMODE 0
      GUID {C8E68E38-2F8B-4FC7-80A4-946016D46D62}
      <SOURCE MIDI
        HASDATA 1 960 QN
        POOLEDEVTS {AF427991-1685-40E3-B578-B54734C750A0}
        E 0 90 1c 7f
        E 0 90 23 7f
        E 360 80 1c 00
        E 0 80 23 00
        E 120 90 28 68
        E 0 90 2f 68
        E 120 80 28 00
        E 0 80 2f 00
        E 120 90 28 68
        E 0 90 2f 68
        E 120 80 28 00
        E 0 80 2f 00
        E 120 90 1c 7f
        E 0 90 23 7f
        E 360 80 1c 00
        E 0 80 23 00
        E 120 90 28 68
        E 0 90 2f 68
        E 120 80 28 00
        E 0 80 2f 00
        E 120 90 28 68
        E 0 90 2f 68
        E 120 80 28 00
        E 0 80 2f 00
        E 120 90 1c 7f
        E 0 90 23 7f
        E 360 80 1c 00
        E 0 80 23 00
        E 120 90 28 68
        E 0 90 2f 68
        E 120 80 28 00
        E 0 80 2f 00
        E 120 90 28 68
        E 0 90 2f 68
        E 120 80 28 00
        E 0 80 2f 00
        E 120 90 1c 7f
        E 0 90 23 7f
        E 360 80 1c 00
        E 0 80 23 00
        E 120 90 28 68
        E 0 90 2f 68
        E 120 80 28 00
        E 0 80 2f 00
        E 120 90 28 68
        E 0 90 2f 68
        E 120 80 28 00
        E 0 80 2f 00
        E 120 90 1c 7f
        E 0 90 23 7f
        E 360 80 1c 00
        E 0 80 23 00
        E 120 90 28 68
        E 0 90 2f 68
        E 120 80 28 00
        E 0 80 2f 00
        E 120 90 28 68
        E 0 90 2f 68
        E 120 80 28 00
        E 0 80 2f 00
        E 120 90 1c 7f
        E 0 90 23 7f
        E 360 80 1c 00
        E 0 80 23 00
        E 120 90 28 68
        E 0 90 2f 68
        E 120 80 28 00
        E 0 80 2f 00
        E 120 90 28 68
        E 0 90 2f 68
        E 120 80 28 00
        E 0 80 2f 00
        E 120 90 1c 7f
        E 0 90 23 7f
        E 360 80 1c 00
        E 0 80 23 00
        E 120 90 28 68
        E 0 90 2f 68
        E 120 80 28 00
        E 0 80 2f 00
        E 120 90 28 68
        E 0 90 2f 68
        E 120 80 28 00
        E 0 80 2f 00
        E 120 90 1c 7f
        E 0 90 23 7f
        E 360 80 1c 00
        E 0 80 23 00
        E 120 90 28 68
        E 0 90 2f 68
        E 120 80 28 00
        E 0 80 2f 00
        E 120 90 28 68
        E 0 90 2f 68
        E 120 80 28 00
        E 0 80 2f 00
        E 120 90 1f 7f
        E 0 90 26 7f
        E 360 80 1f 00
        E 0 80 26 00
        E 120 90 2b 68
        E 0 90 32 68
        E 120 80 2b 00
        E 0 80 32 00
        E 120 90 2b 68
        E 0 90 32 68
        E 120 80 2b 00
        E 0 80 32 00
        E 120 90 1f 7f
        E 0 90 26 7f
        E 360 80 1f 00
        E 0 80 26 00
        E 120 90 2b 68
        E 0 90 32 68
        E 120 80 2b 00
        E 0 80 32 00
        E 120 90 2b 68
        E 0 90 32 68
        E 120 80 2b 00
        E 0 80 32 00
        E 120 90 1f 7f
        E 0 90 26 7f
        E 360 80 1f 00
        E 0 80 26 00
        E 120 90 2b 68
        E 0 90 32 68
        E 120 80 2b 00
        E 0 80 32 00
        E 120 90 2b 68
        E 0 90 32 68
        E 120 80 2b 00
        E 0 80 32 00
        E 120 90 1f 7f
        E 0 90 26 7f
        E 360 80 1f 00
        E 0 80 26 00
        E 120 90 2b 68
        E 0 90 32 68
        E 120 80 2b 00
        E 0 80 32 00
        E 120 90 2b 68
        E 0 90 32 68
        E 120 80 2b 00
        E 0 80 32 00
        E 120 90 1a 7f
        E 0 90 21 7f
        E 360 80 1a 00
        E 0 80 21 00
        E 120 90 26 68
        E 0 90 2d 68
        E 120 80 26 00
        E 0 80 2d 00
        E 120 90 26 68
        E 0 90 2d 68
        E 120 80 26 00
        E 0 80 2d 00
        E 120 90 1a 7f
        E 0 90 21 7f
        E 360 80 1a 00
        E 0 80 21 00
        E 120 90 26 68
        E 0 90 2d 68
        E 120 80 26 00
        E 0 80 2d 00
        E 120 90 26 68
        E 0 90 2d 68
        E 120 80 26 00
        E 0 80 2d 00
        E 120 90 1a 7f
        E 0 90 21 7f
        E 360 80 1a 00
        E 0 80 21 00
        E 120 90 26 68
        E 0 90 2d 68
        E 120 80 26 00
        E 0 80 2d 00
        E 120 90 26 68
        E 0 90 2d 68
        E 120 80 26 00
        E 0 80 2d 00
        E 120 90 1a 7f
        E 0 90 21 7f
        E 360 80 1a 00
        E 0 80 21 00
        E 120 90 26 68
        E 0 90 2d 68
        E 120 80 26 00
        E 0 80 2d 00
        E 120 90 26 68
        E 0 90 2d 68
        E 120 80 26 00
        E 0 80 2d 00
        E 120 90 1c 7f
        E 0 90 23 7f
        E 360 80 1c 00
        E 0 80 23 00
        E 120 90 28 68
        E 0 90 2f 68
        E 120 80 28 00
        E 0 80 2f 00
        E 120 90 28 68
        E 0 90 2f 68
        E 120 80 28 00
        E 0 80 2f 00
        E 120 90 1c 7f
        E 0 90 23 7f
        E 360 80 1c 00
        E 0 80 23 00
        E 120 90 28 68
        E 0 90 2f 68
        E 120 80 28 00
        E 0 80 2f 00
        E 120 90 28 68
        E 0 90 2f 68
        E 120 80 28 00
        E 0 80 2f 00
        E 120 90 1c 7f
        E 0 90 23 7f
        E 360 80 1c 00
        E 0 80 23 00
        E 120 90 28 68
        E 0 90 2f 68
        E 120 80 28 00
        E 0 80 2f 00
        E 120 90 28 68
        E 0 90 2f 68
        E 120 80 28 00
        E 0 80 2f 00
        E 120 90 1c 7f
        E 0 90 23 7f
        E 360 80 1c 00
        E 0 80 23 00
        E 120 90 28 68
        E 0 90 2f 68
        E 120 80 28 00
        E 0 80 2f 00
        E 120 90 28 68
        E 0 90 2f 68
        E 120 80 28 00
        E 0 80 2f 00
        E 120 90 18 7f
        E 0 90 1f 7f
        E 360 80 18 00
        E 0 80 1f 00
        E 120 90 24 68
        E 0 90 2b 68
        E 120 80 24 00
        E 0 80 2b 00
        E 120 90 24 68
        E 0 90 2b 68
        E 120 80 24 00
        E 0 80 2b 00
        E 120 90 18 7f
        E 0 90 1f 7f
        E 360 80 18 00
        E 0 80 1f 00
        E 120 90 24 68
        E 0 90 2b 68
        E 120 80 24 00
        E 0 80 2b 00
        E 120 90 24 68
        E 0 90 2b 68
        E 120 80 24 00
        E 0 80 2b 00
        E 120 90 18 7f
        E 0 90 1f 7f
        E 360 80 18 00
        E 0 80 1f 00
        E 120 90 24 68
        E 0 90 2b 68
        E 120 80 24 00
        E 0 80 2b 00
        E 120 90 24 68
        E 0 90 2b 68
        E 120 80 24 00
        E 0 80 2b 00
        E 120 90 18 7f
        E 0 90 1f 7f
        E 360 80 18 00
        E 0 80 1f 00
        E 120 90 24 68
        E 0 90 2b 68
        E 120 80 24 00
        E 0 80 2b 00
        E 120 90 24 68
        E 0 90 2b 68
        E 120 80 24 00
        E 0 80 2b 00
        E 120 90 1a 7f
        E 0 90 21 7f
        E 360 80 1a 00
        E 0 80 21 00
        E 120 90 26 68
        E 0 90 2d 68
        E 120 80 26 00
        E 0 80 2d 00
        E 120 90 26 68
        E 0 90 2d 68
        E 120 80 26 00
        E 0 80 2d 00
        E 120 90 1a 7f
        E 0 90 21 7f
        E 360 80 1a 00
        E 0 80 21 00
        E 120 90 26 68
        E 0 90 2d 68
        E 120 80 26 00
        E 0 80 2d 00
        E 120 90 26 68
        E 0 90 2d 68
        E 120 80 26 00
        E 0 80 2d 00
        E 120 90 1a 7f
        E 0 90 21 7f
        E 360 80 1a 00
        E 0 80 21 00
        E 120 90 26 68
        E 0 90 2d 68
        E 120 80 26 00
        E 0 80 2d 00
        E 120 90 26 68
        E 0 90 2d 68
        E 120 80 26 00
        E 0 80 2d 00
        E 120 90 1a 7f
        E 0 90 21 7f
        E 360 80 1a 00
        E 0 80 21 00
        E 120 90 26 68
        E 0 90 2d 68
        E 120 80 26 00
        E 0 80 2d 00
        E 120 90 26 68
        E 0 90 2d 68
        E 120 80 26 00
        E 0 80 2d 00
        e 120 90 1a 7f
        e 0 90 21 7f
        e 360 80 1a 00
        e 0 80 21 00
        e 120 90 26 68
        e 0 90 2d 68
        e 120 80 26 00
        e 0 80 2d 00
        e 120 90 26 68
        e 0 90 2d 68
        e 120 80 26 00
        e 0 80 2d 00
        e 120 90 1a 7f
        e 0 90 21 7f
        e 360 80 1a 00
        e 0 80 21 00
        e 120 90 26 68
        e 0 90 2d 68
        e 120 80 26 00
        e 0 80 2d 00
        e 120 90 26 68
        e 0 90 2d 68
        e 120 80 26 00
        e 0 80 2d 00
        e 120 90 1a 7f
        e 0 90 21 7f
        e 360 80 1a 00
        e 0 80 21 00
        e 120 90 26 68
        e 0 90 2d 68
        e 120 80 26 00
        e 0 80 2d 00
        e 120 90 26 68
        e 0 90 2d 68
        e 120 80 26 00
        e 0 80 2d 00
        e 120 90 1a 7f
        e 0 90 21 7f
        e 360 80 1a 00
        e 0 80 21 00
        e 120 90 26 68
        e 0 90 2d 68
        e 120 80 26 00
        e 0 80 2d 00
        e 120 90 26 68
        e 0 90 2d 68
        e 120 80 26 00
        e 0 80 2d 00
        E 120 b0 7b 00
        GUID {D7DAAE00-5778-4D2E-8FB0-FB41ED8BBB0F}
        IGNTEMPO 0 120.00000000 4 4
        SRCCOLOR 156
        VELLANE -1 112 0
        CFGEDITVIEW 0.000000 0.000000 49 11 0 0 0 0 0
        KEYSNAP 0 0 "102034050607" 0 "Major"
        TRACKSEL 0 0 0
        EVTFILTER 0 -1 -1 -1 -1 0 1 0 0 -1.00000000 -1.00000000
        CFGEDIT 1 1 0 1 0 0 1 1 1 1 1 0.12500000 -1862 85 -3 1087 0 0 0 0 0.00000000 0 0 0 0 0.500000 0 0 1.000000 64
      >
    >
    <ITEM
      POSITION 57.33333333333966
      SNAPOFFS 0.00000000000000
      LENGTH 9.99999999999334
      LOOP 1
      ALLTAKES 0
      SEL 0
      FADEIN 1 0.000000 0.000000 1 0 0.000000
      FADEOUT 1 0.000000 0.000000 1 0 0.000000
      MUTE 0
      IGUID {58F60D72-5CD3-4DF0-8413-CA4A2104148A}
      IID 80
      NAME "NES - Bass untitled MIDI item"
      VOLPAN 1.000000 0.000000 1.000000 -1.000000
      SOFFS 0.00000000000000 0.00000000000000
      PLAYRATE 1.00000000000000 1 0.00000000000000 -1 0 0.002500
      CHANMODE 0
      GUID {FC4CD977-AEF8-45B6-B004-2021DEF51D78}
      <SOURCE MIDI
        HASDATA 1 960 QN
        POOLEDEVTS {7878DEF3-D6CB-402D-A551-6E01C7312C22}
        E 0 90 1c 7f
        E 0 90 23 7f
        E 360 80 1c 00
        E 0 80 23 00
        E 120 90 28 68
        E 0 90 2f 68
        E 120 80 28 00
        E 0 80 2f 00
        E 120 90 28 68
        E 0 90 2f 68
        E 120 80 28 00
        E 0 80 2f 00
        E 120 90 1c 7f
        E 0 90 23 7f
        E 360 80 1c 00
        E 0 80 23 00
        E 120 90 28 68
        E 0 90 2f 68
        E 120 80 28 00
        E 0 80 2f 00
        E 120 90 28 68
        E 0 90 2f 68
        E 120 80 28 00
        E 0 80 2f 00
        E 120 90 1c 7f
        E 0 90 23 7f
        E 360 80 1c 00
        E 0 80 23 00
        E 120 90 28 68
        E 0 90 2f 68
        E 120 80 28 00
        E 0 80 2f 00
        E 120 90 28 68
        E 0 90 2f 68
        E 120 80 28 00
        E 0 80 2f 00
        E 120 90 1c 7f
        E 0 90 23 7f
        E 360 80 1c 00
        E 0 80 23 00
        E 120 90 28 68
        E 0 90 2f 68
        E 120 80 28 00
        E 0 80 2f 00
        E 120 90 28 68
        E 0 90 2f 68
        E 120 80 28 00
        E 0 80 2f 00
        E 120 90 1c 7f
        E 0 90 23 7f
        E 360 80 1c 00
        E 0 80 23 00
        E 120 90 28 68
        E 0 90 2f 68
        E 120 80 28 00
        E 0 80 2f 00
        E 120 90 28 68
        E 0 90 2f 68
        E 120 80 28 00
        E 0 80 2f 00
        E 120 90 1c 7f
        E 0 90 23 7f
        E 360 80 1c 00
        E 0 80 23 00
        E 120 90 28 68
        E 0 90 2f 68
        E 120 80 28 00
        E 0 80 2f 00
        E 120 90 28 68
        E 0 90 2f 68
        E 120 80 28 00
        E 0 80 2f 00
        E 120 90 1c 7f
        E 0 90 23 7f
        E 360 80 1c 00
        E 0 80 23 00
        E 120 90 28 68
        E 0 90 2f 68
        E 120 80 28 00
        E 0 80 2f 00
        E 120 90 28 68
        E 0 90 2f 68
        E 120 80 28 00
        E 0 80 2f 00
        E 120 90 1c 7f
        E 0 90 23 7f
        E 360 80 1c 00
        E 0 80 23 00
        E 120 90 28 68
        E 0 90 2f 68
        E 120 80 28 00
        E 0 80 2f 00
        E 120 90 28 68
        E 0 90 2f 68
        E 120 80 28 00
        E 0 80 2f 00
        E 120 90 1f 7f
        E 0 90 26 7f
        E 360 80 1f 00
        E 0 80 26 00
        E 120 90 2b 68
        E 0 90 32 68
        E 120 80 2b 00
        E 0 80 32 00
        E 120 90 2b 68
        E 0 90 32 68
        E 120 80 2b 00
        E 0 80 32 00
        E 120 90 1f 7f
        E 0 90 26 7f
        E 360 80 1f 00
        E 0 80 26 00
        E 120 90 2b 68
        E 0 90 32 68
        E 120 80 2b 00
        E 0 80 32 00
        E 120 90 2b 68
        E 0 90 32 68
        E 120 80 2b 00
        E 0 80 32 00
        E 120 90 1f 7f
        E 0 90 26 7f
        E 360 80 1f 00
        E 0 80 26 00
        E 120 90 2b 68
        E 0 90 32 68
        E 120 80 2b 00
        E 0 80 32 00
        E 120 90 2b 68
        E 0 90 32 68
        E 120 80 2b 00
        E 0 80 32 00
        E 120 90 1f 7f
        E 0 90 26 7f
        E 360 80 1f 00
        E 0 80 26 00
        E 120 90 2b 68
        E 0 90 32 68
        E 120 80 2b 00
        E 0 80 32 00
        E 120 90 2b 68
        E 0 90 32 68
        E 120 80 2b 00
        E 0 80 32 00
        E 120 90 1a 7f
        E 0 90 21 7f
        E 360 80 1a 00
        E 0 80 21 00
        E 120 90 26 68
        E 0 90 2d 68
        E 120 80 26 00
        E 0 80 2d 00
        E 120 90 26 68
        E 0 90 2d 68
        E 120 80 26 00
        E 0 80 2d 00
        E 120 90 1a 7f
        E 0 90 21 7f
        E 360 80 1a 00
        E 0 80 21 00
        E 120 90 26 68
        E 0 90 2d 68
        E 120 80 26 00
        E 0 80 2d 00
        E 120 90 26 68
        E 0 90 2d 68
        E 120 80 26 00
        E 0 80 2d 00
        E 120 90 1a 7f
        E 0 90 21 7f
        E 360 80 1a 00
        E 0 80 21 00
        E 120 90 26 68
        E 0 90 2d 68
        E 120 80 26 00
        E 0 80 2d 00
        E 120 90 26 68
        E 0 90 2d 68
        E 120 80 26 00
        E 0 80 2d 00
        E 120 90 1a 7f
        E 0 90 21 7f
        E 360 80 1a 00
        E 0 80 21 00
        E 120 90 26 68
        E 0 90 2d 68
        E 120 80 26 00
        E 0 80 2d 00
        E 120 90 26 68
        E 0 90 2d 68
        E 120 80 26 00
        E 0 80 2d 00
        E 120 90 1c 7f
        E 0 90 23 7f
        E 360 80 1c 00
        E 0 80 23 00
        E 120 90 28 68
        E 0 90 2f 68
        E 120 80 28 00
        E 0 80 2f 00
        E 120 90 28 68
        E 0 90 2f 68
        E 120 80 28 00
        E 0 80 2f 00
        E 120 90 1c 7f
        E 0 90 23 7f
        E 360 80 1c 00
        E 0 80 23 00
        E 120 90 28 68
        E 0 90 2f 68
        E 120 80 28 00
        E 0 80 2f 00
        E 120 90 28 68
        E 0 90 2f 68
        E 120 80 28 00
        E 0 80 2f 00
        E 120 90 1c 7f
        E 0 90 23 7f
        E 360 80 1c 00
        E 0 80 23 00
        E 120 90 28 68
        E 0 90 2f 68
        E 120 80 28 00
        E 0 80 2f 00
        E 120 90 28 68
        E 0 90 2f 68
        E 120 80 28 00
        E 0 80 2f 00
        E 120 90 1c 7f
        E 0 90 23 7f
        E 360 80 1c 00
        E 0 80 23 00
        E 120 90 28 68
        E 0 90 2f 68
        E 120 80 28 00
        E 0 80 2f 00
        E 120 90 28 68
        E 0 90 2f 68
        E 120 80 28 00
        E 0 80 2f 00
        E 120 90 18 7f
        E 0 90 1f 7f
        E 360 80 18 00
        E 0 80 1f 00
        E 120 90 24 68
        E 0 90 2b 68
        E 120 80 24 00
        E 0 80 2b 00
        E 120 90 24 68
        E 0 90 2b 68
        E 120 80 24 00
        E 0 80 2b 00
        E 120 90 18 7f
        E 0 90 1f 7f
        E 360 80 18 00
        E 0 80 1f 00
        E 120 90 24 68
        E 0 90 2b 68
        E 120 80 24 00
        E 0 80 2b 00
        E 120 90 24 68
        E 0 90 2b 68
        E 120 80 24 00
        E 0 80 2b 00
        E 120 90 18 7f
        E 0 90 1f 7f
        E 360 80 18 00
        E 0 80 1f 00
        E 120 90 24 68
        E 0 90 2b 68
        E 120 80 24 00
        E 0 80 2b 00
        E 120 90 24 68
        E 0 90 2b 68
        E 120 80 24 00
        E 0 80 2b 00
        E 120 90 18 7f
        E 0 90 1f 7f
        E 360 80 18 00
        E 0 80 1f 00
        E 120 90 24 68
        E 0 90 2b 68
        E 120 80 24 00
        E 0 80 2b 00
        E 120 90 24 68
        E 0 90 2b 68
        E 120 80 24 00
        E 0 80 2b 00
        E 120 90 1a 7f
        E 0 90 21 7f
        E 360 80 1a 00
        E 0 80 21 00
        E 120 90 26 68
        E 0 90 2d 68
        E 120 80 26 00
        E 0 80 2d 00
        E 120 90 26 68
        E 0 90 2d 68
        E 120 80 26 00
        E 0 80 2d 00
        E 120 90 1a 7f
        E 0 90 21 7f
        E 360 80 1a 00
        E 0 80 21 00
        E 120 90 26 68
        E 0 90 2d 68
        E 120 80 26 00
        E 0 80 2d 00
        E 120 90 26 68
        E 0 90 2d 68
        E 120 80 26 00
        E 0 80 2d 00
        E 120 90 1a 7f
        E 0 90 21 7f
        E 360 80 1a 00
        E 0 80 21 00
        E 120 90 26 68
        E 0 90 2d 68
        E 120 80 26 00
        E 0 80 2d 00
        E 120 90 26 68
        E 0 90 2d 68
        E 120 80 26 00
        E 0 80 2d 00
        E 120 90 1a 7f
        E 0 90 21 7f
        E 360 80 1a 00
        E 0 80 21 00
        E 120 90 26 68
        E 0 90 2d 68
        E 120 80 26 00
        E 0 80 2d 00
        E 120 90 26 68
        E 0 90 2d 68
        E 120 80 26 00
        E 0 80 2d 00
        e 120 90 1a 7f
        e 0 90 21 7f
        e 360 80 1a 00
        e 0 80 21 00
        e 120 90 26 68
        e 0 90 2d 68
        e 120 80 26 00
        e 0 80 2d 00
        e 120 90 26 68
        e 0 90 2d 68
        e 120 80 26 00
        e 0 80 2d 00
        e 120 90 1a 7f
        e 0 90 21 7f
        e 360 80 1a 00
        e 0 80 21 00
        e 120 90 26 68
        e 0 90 2d 68
        e 120 80 26 00
        e 0 80 2d 00
        e 120 90 26 68
        e 0 90 2d 68
        e 120 80 26 00
        e 0 80 2d 00
        e 120 90 1a 7f
        e 0 90 21 7f
        e 360 80 1a 00
        e 0 80 21 00
        e 120 90 26 68
        e 0 90 2d 68
        e 120 80 26 00
        e 0 80 2d 00
        e 120 90 26 68
        e 0 90 2d 68
        e 120 80 26 00
        e 0 80 2d 00
        e 120 90 1a 7f
        e 0 90 21 7f
        e 360 80 1a 00
        e 0 80 21 00
        e 120 90 26 68
        e 0 90 2d 68
        e 120 80 26 00
        e 0 80 2d 00
        e 120 90 26 68
        e 0 90 2d 68
        e 120 80 26 00
        e 0 80 2d 00
        E 120 b0 7b 00
        GUID {9FE5A038-A5DC-4654-A67B-DC4055E4EB45}
        IGNTEMPO 0 120.00000000 4 4
        SRCCOLOR 178
        VELLANE -1 112 0
        CFGEDITVIEW 28886.160000 0.053346 50 12 0 0 0 0 0
        KEYSNAP 0 0 "102034050607" 0 "Major"
        TRACKSEL 0 0 0
        EVTFILTER 0 -1 -1 -1 -1 0 1 0 0 -1.00000000 -1.00000000
        CFGEDIT 1 1 0 1 0 0 1 1 1 1 1 0.25000000 -1902 41 -43 1043 0 0 0 0 0.00000000 0 0 0 0 0.500000 0 0 1.000000 64
      >
    >
    <ITEM
      POSITION 67.33333333333300
      SNAPOFFS 0.00000000000000
      LENGTH 10.66666666666664
      LOOP 1
      ALLTAKES 0
      SEL 0
      FADEIN 1 0.000000 0.000000 1 0 0.000000
      FADEOUT 1 0.000000 0.000000 1 0 0.000000
      MUTE 0
      IGUID {B0E275EF-6F75-41B3-B000-4DAD0DDDE663}
      IID 134
      NAME "MMX Slap Bass untitled MIDI item glued"
      VOLPAN 1.000000 0.000000 1.000000 -1.000000
      SOFFS 0.00000000000000 0.00000000000000
      PLAYRATE 1.00000000000000 1 0.00000000000000 -1 0 0.002500
      CHANMODE 0
      GUID {B9E16411-2A3A-433E-97B9-EC003CA244AE}
      <SOURCE MIDI
        HASDATA 1 960 QN
        POOLEDEVTS {97EF1AFC-EB15-4DFE-8870-90F105E2A305}
        e 0 90 1c 7f
        e 2880 80 1c 00
        e 0 90 1c 7f
        e 960 80 1c 00
        e 0 90 1c 7f
        e 2880 80 1c 00
        e 0 90 1c 7f
        e 960 80 1c 00
        e 0 90 24 7f
        e 2880 80 24 00
        e 0 90 24 7f
        e 960 80 24 00
        e 0 90 24 7f
        e 2880 80 24 00
        e 0 90 23 7f
        e 960 80 23 00
        e 0 90 21 7f
        e 2880 80 21 00
        e 0 90 21 7f
        e 960 80 21 00
        e 0 90 21 7f
        e 2880 80 21 00
        e 0 90 21 7f
        e 960 80 21 00
        e 0 90 23 7f
        e 2880 80 23 00
        e 0 90 23 7f
        e 960 80 23 00
        e 0 90 23 7f
        e 1920 80 23 00
        e 0 90 1f 7f
        e 1920 80 1f 00
        E 0 b0 7b 00
        GUID {1DCDE70B-F3DF-403B-9348-70FCF2B41B19}
        IGNTEMPO 0 120.00000000 4 4
        SRCCOLOR 191
        VELLANE -1 112 0
        CFGEDITVIEW -1536.000000 0.050012 50 12 0 0 0 0 0
        KEYSNAP 0 0 "102034050607" 0 "Major"
        TRACKSEL 0 0 0
        EVTFILTER 0 -1 -1 -1 -1 0 1 0 0 -1.00000000 -1.00000000
        CFGEDIT 1 1 0 1 0 0 1 1 1 1 1 0.25000000 -1902 41 -43 1043 0 0 0 0 0.00000000 0 0 0 0 0.500000 0 0 1.000000 64
      >
    >
    <ITEM
      POSITION 77.99999999999965
      SNAPOFFS 0.00000000000000
      LENGTH 10.66666666666666
      LOOP 1
      ALLTAKES 0
      SEL 0
      FADEIN 1 0.000000 0.000000 1 0 0.000000
      FADEOUT 1 0.000000 0.000000 1 0 0.000000
      MUTE 0
      IGUID {DB6D21CA-E780-4A83-85CF-16920E356DEE}
      IID 134
      NAME "MMX Slap Bass untitled MIDI item glued"
      VOLPAN 1.000000 0.000000 1.000000 -1.000000
      SOFFS 0.00000000000000 0.00000000000000
      PLAYRATE 1.00000000000000 1 0.00000000000000 -1 0 0.002500
      CHANMODE 0
      GUID {5A03E302-4BE0-4AF1-9FAF-1C47DC0C1FDC}
      <SOURCE MIDI
        HASDATA 1 960 QN
        POOLEDEVTS {71A7515A-D1A8-48BD-972E-C38585547106}
        e 0 90 1c 7f
        e 2880 80 1c 00
        e 0 90 1c 7f
        e 960 80 1c 00
        e 0 90 1c 7f
        e 2880 80 1c 00
        e 0 90 1c 7f
        e 960 80 1c 00
        e 0 90 24 7f
        e 2880 80 24 00
        e 0 90 24 7f
        e 960 80 24 00
        e 0 90 24 7f
        e 2880 80 24 00
        e 0 90 23 7f
        e 960 80 23 00
        e 0 90 21 7f
        e 2880 80 21 00
        e 0 90 21 7f
        e 960 80 21 00
        e 0 90 21 7f
        e 2880 80 21 00
        e 0 90 21 7f
        e 960 80 21 00
        e 0 90 23 7f
        e 2880 80 23 00
        e 0 90 23 7f
        e 960 80 23 00
        e 0 90 23 7f
        e 1920 80 23 00
        e 0 90 1f 7f
        e 1920 80 1f 00
        E 0 b0 7b 00
        GUID {47AB3511-D257-4CB8-9D8A-99C3DBB38480}
        IGNTEMPO 0 120.00000000 4 4
        SRCCOLOR 220
        VELLANE -1 112 0
        CFGEDITVIEW 0.000000 0.000000 50 12 0 0 0 0 0
        KEYSNAP 0 0 "102034050607" 0 "Major"
        TRACKSEL 0 0 0
        EVTFILTER 0 -1 -1 -1 -1 0 1 0 0 -1.00000000 -1.00000000
        CFGEDIT 1 1 0 1 0 0 1 1 1 1 1 0.25000000 -1902 41 -43 1043 0 0 0 0 0.00000000 0 0 0 0 0.500000 0 0 1.000000 64
      >
    >
  >
  <TRACK '{E90B41F3-1037-4929-9DD6-A3946FC140D3}'
    NAME "NES Pulse"
    PEAKCOL 23447267
    BEAT -1
    AUTOMODE 0
    VOLPAN 0.58264548220696 0.00000000000000 -1.00000000000000 -1.00000000000000 1.00000000000000
    MUTESOLO 0 0 0
    IPHASE 0
    ISBUS 0 0
    BUSCOMP 0 0
    SHOWINMIX 1 0.666700 0.500000 1 0.500000 0 -1 0
    FREEMODE 0
    SEL 0
    REC 0 0 0 0 0 0 0
    VU 2
    TRACKHEIGHT 0 0
    INQ 0 0 0 0.5000000000 100 0 0 100
    NCHAN 2
    FX 1
    TRACKID {E90B41F3-1037-4929-9DD6-A3946FC140D3}
    PERF 0
    MIDIOUT -1
    MAINSEND 1 0
    <PANENV2
      ACT 1
      VIS 1 1 1.000000
      LANEHEIGHT 0 0
      ARM 0
      DEFSHAPE 0 -1 -1
      PT 5.332833 0.000000 0
      PT 26.666667 0.000000 0
      PT 26.667167 1.000000 0
      PT 27.000000 1.000000 0
      PT 27.000000 -1.000000 0
      PT 27.333333 -1.000000 0
      PT 27.333333 1.000000 0
      PT 27.666667 1.000000 0
      PT 27.666667 -1.000000 0
      PT 28.000000 -1.000000 0
      PT 28.000000 1.000000 0
      PT 28.333333 1.000000 0
      PT 28.333333 -1.000000 0
      PT 28.666667 -0.966667 0
      PT 28.666667 0.000000 0
      PT 29.333333 0.000000 0
      PT 29.333333 1.000000 0
      PT 29.666666 1.000000 0
      PT 29.666666 -1.000000 0
      PT 29.999999 -1.000000 0
      PT 29.999999 1.000000 0
      PT 30.333333 1.000000 0
      PT 30.333333 -1.000000 0
      PT 30.666666 -1.000000 0
      PT 30.666666 1.000000 0
      PT 30.999999 1.000000 0
      PT 30.999999 -1.000000 0
      PT 31.333333 -0.966667 0
      PT 31.333333 0.000000 0
      PT 32.000000 0.000000 0
      PT 32.000500 1.000000 0
      PT 32.333333 1.000000 0
      PT 32.333333 -1.000000 0
      PT 32.666666 -1.000000 0
      PT 32.666666 1.000000 0
      PT 33.000000 1.000000 0
      PT 33.000000 -1.000000 0
      PT 33.333333 -1.000000 0
      PT 33.333333 1.000000 0
      PT 33.666666 1.000000 0
      PT 33.666666 -1.000000 0
      PT 34.000000 -0.966667 0
      PT 34.000000 0.000000 0
      PT 34.666666 0.000000 0
      PT 34.666666 1.000000 0
      PT 34.999999 1.000000 0
      PT 34.999999 -1.000000 0
      PT 35.333332 -1.000000 0
      PT 35.333332 1.000000 0
      PT 35.666666 1.000000 0
      PT 35.666666 -1.000000 0
      PT 35.999999 -1.000000 0
      PT 35.999999 1.000000 0
      PT 36.333332 1.000000 0
      PT 36.333332 -1.000000 0
      PT 36.666666 -0.966667 0
      PT 36.666666 0.000000 0
      PT 68.000500 0.000000 0
    >
    <FXCHAIN
      SHOW 0
      LASTSEL 0
      DOCKED 0
      BYPASS 0 0
      <VST "VSTi: chipsounds (x86) (Plogue Art et Technologie, Inc)" "chipsounds VST_x86.dll" 0 ""
        T0dMUO5e7f4AAAAAAgAAAAEAAAAAAAAAAgAAAAAAAAAFAwAAAQAAAAAAEABDRUdQ/BAAAHic7Vjfb5swEH6ftP/B8tP2UMDQkDA1q9K0qSIta7Rk0rSX6gIutWZMZkyW
        7q+fDaGQH2vYniYt94J9/u58d4YPjovLdcLRisqMpaKPieVgdPn+9auLgWQwgxVtrPl+gNFSplEeqvG1VjhOgDUWabmYUaWYiDP0PQfO1JNexihTkkKi1X3suRglsJ4V
        mgHnaTi56mO342M0GV+P73I1SSNaWEGu0gSU3nTGU9XHTlPF6YryPmZC+84TKhRGnK1oaayRWah99FwzAA5aRdAZoiYoKwv5Rj3UdlT2sa8NYp4ugM9zUYTpWE4hGNnP
        mekgEIsK7wISsw2x0DSXFA0f2dJ2B84X+9NUXzz05uN8NnyL0QLEt3G0KREKH0EIE/WZzm6Z8rI4am/L5eJegoipAdZKpXVZsXvSGOZqk++Pew5ZUaVNwEXQg3xdxbwC
        nhus5bmdrcwK4ASY2EGSvRpsI0nD58tItzXSa408b43stEb6rZHd1shea2TQGkmc9tD2p0TaHxNpf06k/UGRoyc1BQnJ3i3VDQ7c0DWUeM0adDudwPF/Dz6vPZPe0TAC
        pz6K8+NgcuzhaoKbKZJDz2wTfLTKTXBdZ+IGVs+gvRfg9WPhHvY9BxlTtWHFME2sKU/jnFrm5WF9GN1ZeUblFjEVZsM803R+DQqQeloa967nm9cF+2nK6ZucqreO3pKK
        iEE5jLSNHlQyKi+uc5KTnORfkR2WsEua+GPiICfiOMlJ/iP5e+KYSxbHVM50p0dFSOVx6iBdlwQVdbidBnO4h5iDlBGONlLOu8XYG3ZHwVYeQ8cbvZjLhW26ympy8/BA
        Q7XfZw6SBTPZ7PaTz63p7edxZQGh0m3wuO6Yi/nN8zyjXO9BozksdnvFqaQZVRMqcsSyCq+KcHfIeUnjmIFKpV6na716xdlSt6igHvv46zvb9MNZmosos0unmX3Y3jaG
        Fmi2X+5+f9bB0IPB3IKUTIGw6upsYgHOZZomiFQRNSpl61KZ3xp29V9DT34Bg7DewAAAEAAAAA==
      >
      FLOATPOS 0 0 0 0
      FXID {68E65CB7-3377-4894-923B-6F66E8E58D8E}
      WAK 0
    >
    <ITEM
      POSITION 0.00000000003000
      SNAPOFFS 0.00000000000000
      LENGTH 5.33333333333333
      LOOP 1
      ALLTAKES 0
      SEL 0
      FADEIN 1 0.000000 0.000000 1 0 0.000000
      FADEOUT 1 0.000000 0.000000 1 0 0.000000
      MUTE 0
      IGUID {61CDEBB1-3252-4A4A-886E-F7E3EE564404}
      IID 43
      NAME "NES Pulse untitled MIDI item"
      VOLPAN 1.000000 0.000000 1.000000 -1.000000
      SOFFS 0.00000000000000 0.00000000000000
      PLAYRATE 1.00000000000000 1 0.00000000000000 -1 0 0.002500
      CHANMODE 0
      GUID {408F65B9-9F54-4D59-9086-449C49899793}
      <SOURCE MIDI
        HASDATA 1 960 QN
        POOLEDEVTS {0D14592F-514F-415C-85B1-A37A50D25F05}
        E 0 90 40 7a
        E 240 80 40 00
        E 240 90 34 7a
        E 120 80 34 00
        E 120 90 40 7a
        E 240 80 40 00
        E 480 90 3e 7a
        E 120 80 3e 00
        E 120 90 3b 7a
        E 120 80 3b 00
        E 120 90 40 7a
        E 240 80 40 00
        E 240 90 34 7a
        E 120 80 34 00
        E 120 90 40 7a
        E 240 80 40 00
        E 480 90 3e 7a
        E 120 80 3e 00
        E 120 90 3b 7a
        E 120 80 3b 00
        E 120 90 40 7a
        E 240 80 40 00
        E 240 90 34 7a
        E 120 80 34 00
        E 120 90 40 7a
        E 240 80 40 00
        E 480 90 3e 7a
        E 120 80 3e 00
        E 120 90 42 7a
        E 120 80 42 00
        E 120 90 43 7a
        E 240 80 43 00
        E 240 90 34 7a
        E 120 80 34 00
        E 120 90 40 7a
        E 240 80 40 00
        E 480 90 3e 7a
        E 120 80 3e 00
        E 120 90 3b 7a
        E 120 80 3b 00
        E 120 90 40 7a
        E 240 80 40 00
        E 240 90 34 7a
        E 120 80 34 00
        E 120 90 40 7a
        E 240 80 40 00
        E 480 90 3e 7a
        E 120 80 3e 00
        E 120 90 3b 7a
        E 120 80 3b 00
        E 120 90 40 7a
        E 240 80 40 00
        E 240 90 34 7a
        E 120 80 34 00
        E 120 90 40 7a
        E 240 80 40 00
        E 480 90 3e 7a
        E 120 80 3e 00
        E 120 90 3b 7a
        E 120 80 3b 00
        E 120 90 40 7a
        E 240 80 40 00
        E 240 90 43 7a
        E 120 80 43 00
        E 120 90 43 7a
        E 120 80 43 00
        E 120 90 43 7a
        E 120 80 43 00
        E 360 90 40 7a
        E 240 80 40 00
        E 240 90 45 7a
        e 180 e0 37 3b
        e 30 e0 56 31
        e 30 e0 75 27
        e 30 e0 13 1e
        e 30 e0 32 14
        e 30 e0 51 0a
        e 30 e0 70 00
        e 60 e0 00 40
        E 0 80 45 00
        E 60 90 34 7a
        E 120 80 34 00
        E 120 90 3e 7a
        E 240 80 3e 00
        E 480 90 3b 7a
        E 240 80 3b 00
        E 0 90 3b 7a
        E 240 80 3b 00
        E 0 b0 7b 00
        GUID {A9371802-4EC9-4C2A-8432-000039078974}
        IGNTEMPO 0 120.00000000 4 4
        SRCCOLOR 89
        VELLANE -1 112 0
        CFGEDITVIEW 16214.160000 0.100024 65 11 0 0 0 0 0
        KEYSNAP 0 0 "102034050607" 0 "Major"
        TRACKSEL 0 0 0
        EVTFILTER 0 -1 -1 -1 -1 0 1 0 0 -1.00000000 -1.00000000
        CFGEDIT 1 1 0 1 0 0 1 1 1 1 1 0.12500000 -1862 85 -3 1087 0 0 0 0 0.00000000 0 0 0 0 0.500000 0 0 1.000000 64
      >
    >
    <ITEM
      POSITION 5.33333333336333
      SNAPOFFS 0.00000000000000
      LENGTH 5.33333333333333
      LOOP 1
      ALLTAKES 0
      SEL 0
      FADEIN 1 0.000000 0.000000 1 0 0.000000
      FADEOUT 1 0.000000 0.000000 1 0 0.000000
      MUTE 0
      IGUID {1815F997-2B46-476B-98A4-FB0267ECA0CE}
      IID 43
      NAME "NES Pulse untitled MIDI item"
      VOLPAN 1.000000 0.000000 1.000000 -1.000000
      SOFFS 0.00000000000000 0.00000000000000
      PLAYRATE 1.00000000000000 1 0.00000000000000 -1 0 0.002500
      CHANMODE 0
      GUID {2B551A25-D1A5-45C5-8800-0DFB44D21F52}
      <SOURCE MIDI
        HASDATA 1 960 QN
        POOLEDEVTS {D5D44581-5B92-49F6-9A73-C49A5862498C}
        E 0 90 40 7a
        E 240 80 40 00
        E 240 90 34 7a
        E 120 80 34 00
        E 120 90 40 7a
        E 240 80 40 00
        E 480 90 3e 7a
        E 120 80 3e 00
        E 120 90 3b 7a
        E 120 80 3b 00
        E 120 90 40 7a
        E 240 80 40 00
        E 240 90 34 7a
        E 120 80 34 00
        E 120 90 40 7a
        E 240 80 40 00
        E 480 90 3e 7a
        E 120 80 3e 00
        E 120 90 3b 7a
        E 120 80 3b 00
        E 120 90 40 7a
        E 240 80 40 00
        E 240 90 34 7a
        E 120 80 34 00
        E 120 90 40 7a
        E 240 80 40 00
        E 480 90 3e 7a
        E 120 80 3e 00
        E 120 90 42 7a
        E 120 80 42 00
        E 120 90 43 7a
        E 240 80 43 00
        E 240 90 34 7a
        E 120 80 34 00
        E 120 90 40 7a
        E 240 80 40 00
        E 480 90 3e 7a
        E 120 80 3e 00
        E 120 90 3b 7a
        E 120 80 3b 00
        E 120 90 40 7a
        E 240 80 40 00
        E 240 90 34 7a
        E 120 80 34 00
        E 120 90 40 7a
        E 240 80 40 00
        E 480 90 3e 7a
        E 120 80 3e 00
        E 120 90 3b 7a
        E 120 80 3b 00
        E 120 90 40 7a
        E 240 80 40 00
        E 240 90 34 7a
        E 120 80 34 00
        E 120 90 40 7a
        E 240 80 40 00
        E 480 90 3e 7a
        E 120 80 3e 00
        E 120 90 3b 7a
        E 120 80 3b 00
        E 120 90 40 7a
        E 240 80 40 00
        E 240 90 43 7a
        E 120 80 43 00
        E 120 90 43 7a
        E 120 80 43 00
        E 120 90 43 7a
        E 120 80 43 00
        E 360 90 40 7a
        E 240 80 40 00
        E 240 90 45 7a
        e 180 e0 37 3b
        e 30 e0 56 31
        e 30 e0 75 27
        e 30 e0 13 1e
        e 30 e0 32 14
        e 30 e0 51 0a
        e 30 e0 70 00
        e 60 e0 00 40
        E 0 80 45 00
        E 60 90 34 7a
        E 120 80 34 00
        E 120 90 3e 7a
        E 240 80 3e 00
        E 480 90 3b 7a
        E 240 80 3b 00
        E 0 90 3b 7a
        E 240 80 3b 00
        E 0 b0 7b 00
        GUID {D3175E52-4EF3-47EE-93AB-FF333389A027}
        IGNTEMPO 0 120.00000000 4 4
        SRCCOLOR 92
        VELLANE -1 112 0
        CFGEDITVIEW -768.000000 0.100971 53 12 0 0 0 0 0
        KEYSNAP 0 0 "102034050607" 0 "Major"
        TRACKSEL 0 0 0
        EVTFILTER 0 -1 -1 -1 -1 0 1 0 0 -1.00000000 -1.00000000
        CFGEDIT 1 1 0 1 0 0 1 1 1 1 1 0.25000000 -1878 69 -3 1087 0 0 0 0 0.00000000 0 0 0 0 0.500000 0 0 1.000000 64
      >
    >
    <ITEM
      POSITION 16.00000000001999
      SNAPOFFS 0.00000000000000
      LENGTH 5.33333333333333
      LOOP 1
      ALLTAKES 0
      SEL 0
      FADEIN 1 0.000000 0.000000 1 0 0.000000
      FADEOUT 1 0.000000 0.000000 1 0 0.000000
      MUTE 0
      IGUID {113EED1D-0714-46BA-8A2A-C1C5CB66BE7A}
      IID 32
      NAME "Pulse Synth 1 untitled MIDI item glued"
      VOLPAN 1.000000 0.000000 1.000000 -1.000000
      SOFFS 0.00000000000000 0.00000000000000
      PLAYRATE 1.00000000000000 1 0.00000000000000 -1 0 0.002500
      CHANMODE 0
      GUID {9D00587E-2865-48EB-8FEE-B9FD9D010504}
      <SOURCE MIDI
        HASDATA 1 960 QN
        POOLEDEVTS {C07E68EC-A68B-48CB-9639-B6C5E7C30965}
        E 0 90 4c 7f
        E 420 e0 00 40
        E 30 e0 56 36
        E 30 e0 5e 2c
        E 30 e0 46 21
        E 30 e0 6d 18
        E 30 e0 32 11
        E 30 e0 36 0c
        E 30 e0 36 0c
        E 30 e0 3a 07
        E 60 80 4c 00
        E 150 e0 00 40
        E 90 90 4c 7f
        E 120 80 4c 00
        E 120 90 58 7f
        E 120 80 58 00
        E 120 90 4c 7f
        E 120 80 4c 00
        E 120 90 40 7f
        E 240 80 40 00
        E 0 90 4f 60
        E 480 80 4f 00
        E 0 90 4e 60
        E 240 80 4e 00
        E 240 90 4c 7f
        E 420 e0 00 40
        E 30 e0 56 36
        E 30 e0 5e 2c
        E 30 e0 46 21
        E 30 e0 6d 18
        E 30 e0 32 11
        E 30 e0 36 0c
        E 30 e0 36 0c
        E 30 e0 3a 07
        E 60 80 4c 00
        E 120 e0 00 40
        E 600 90 4a 7f
        E 120 80 4a 00
        E 120 90 4a 7f
        E 120 80 4a 00
        E 120 90 4a 7f
        E 120 80 4a 00
        E 360 90 4a 7f
        E 120 80 4a 00
        E 120 90 4a 7f
        E 120 80 4a 00
        E 120 90 4a 7f
        E 480 80 4a 00
        E 0 90 4f 7f
        E 240 80 4f 00
        E 240 90 51 7f
        E 480 80 51 00
        E 0 90 4a 7f
        E 240 80 4a 00
        E 240 90 4c 7f
        E 420 e0 00 40
        E 30 e0 56 36
        E 30 e0 5e 2c
        E 30 e0 46 21
        E 30 e0 6d 18
        E 30 e0 32 11
        E 30 e0 36 0c
        E 30 e0 36 0c
        E 30 e0 3a 07
        E 60 80 4c 00
        E 120 e0 00 40
        E 120 90 4c 7f
        E 120 80 4c 00
        E 120 90 58 7f
        E 120 80 58 00
        E 120 90 4c 7f
        E 120 80 4c 00
        E 120 90 40 7f
        E 240 80 40 00
        E 0 90 4f 60
        E 480 80 4f 00
        E 0 90 4e 60
        E 240 80 4e 00
        E 240 90 4c 7f
        E 420 e0 00 40
        E 30 e0 56 36
        E 30 e0 5e 2c
        E 30 e0 46 21
        E 30 e0 6d 18
        E 30 e0 32 11
        E 30 e0 36 0c
        E 30 e0 36 0c
        E 30 e0 3a 07
        E 60 80 4c 00
        E 120 e0 00 40
        E 600 90 4a 7f
        E 120 80 4a 00
        E 120 90 4a 7f
        E 120 80 4a 00
        E 120 90 4a 7f
        E 120 80 4a 00
        E 360 90 4a 7f
        E 120 80 4a 00
        E 120 90 4a 7f
        E 120 80 4a 00
        E 120 90 4a 7f
        E 480 80 4a 00
        E 0 90 4f 7f
        E 240 80 4f 00
        E 240 90 4e 7f
        E 210 e0 4f 40
        E 30 e0 00 40
        E 30 e0 33 3a
        E 30 e0 18 34
        E 30 e0 3b 30
        E 30 e0 1f 2a
        E 30 e0 00 29
        E 30 e0 42 26
        E 30 e0 65 22
        E 30 e0 27 20
        E 30 e0 08 1f
        E 30 e0 4a 1c
        E 30 e0 2b 1b
        E 30 e0 0c 1a
        E 30 e0 4e 17
        E 30 e0 0f 15
        E 30 e0 70 13
        E 30 e0 32 11
        E 30 e0 74 0e
        E 30 e0 17 0b
        E 30 e0 1b 06
        E 30 e0 3e 02
        E 30 e0 00 00
        E 30 e0 00 00
        E 30 e0 00 40
        E 0 80 4e 00
        E 30 b0 7b 00
        GUID {D150AC13-4939-4563-9D59-1C75858492DF}
        IGNTEMPO 0 120.00000000 4 4
        SRCCOLOR 52
        VELLANE 128 112 0
        CFGEDITVIEW 19362.960000 0.101918 18 12 0 0 0 0 0
        KEYSNAP 0 0 "102034050607" 0 "Major"
        TRACKSEL 0 0 0
        EVTFILTER 0 -1 -1 -1 -1 0 1 0 0 -1.00000000 -1.00000000
        CFGEDIT 1 1 0 1 0 0 1 1 1 1 1 0.03125000 -1894 53 -3 1087 0 0 0 0 0.00000000 0 0 0 0 0.500000 0 0 1.000000 64
      >
    >
    <ITEM
      POSITION 21.33333333334669
      SNAPOFFS 0.00000000000000
      LENGTH 5.33333333333333
      LOOP 1
      ALLTAKES 0
      SEL 0
      FADEIN 1 0.000000 0.000000 1 0 0.000000
      FADEOUT 1 0.000000 0.000000 1 0 0.000000
      MUTE 0
      IGUID {B58F7DFA-C200-4C64-BC95-3CE92F732B55}
      IID 32
      NAME "Pulse Synth 1 untitled MIDI item glued"
      VOLPAN 1.000000 0.000000 1.000000 -1.000000
      SOFFS 0.00000000000000 0.00000000000000
      PLAYRATE 1.00000000000000 1 0.00000000000000 -1 0 0.002500
      CHANMODE 0
      GUID {DA03FE9A-003B-4092-BEAE-F46C94AFB3BF}
      <SOURCE MIDI
        HASDATA 1 960 QN
        POOLEDEVTS {B24413DE-B0C8-4286-8F97-E0EFC2899EC6}
        E 0 90 4c 7f
        E 420 e0 00 40
        E 30 e0 56 36
        E 30 e0 5e 2c
        E 30 e0 46 21
        E 30 e0 6d 18
        E 30 e0 32 11
        E 30 e0 36 0c
        E 30 e0 36 0c
        E 30 e0 3a 07
        E 60 80 4c 00
        E 150 e0 00 40
        E 90 90 4c 7f
        E 120 80 4c 00
        E 120 90 58 7f
        E 120 80 58 00
        E 120 90 4c 7f
        E 120 80 4c 00
        E 120 90 40 7f
        E 240 80 40 00
        E 0 90 4f 60
        E 480 80 4f 00
        E 0 90 4e 60
        E 240 80 4e 00
        E 240 90 4c 7f
        E 420 e0 00 40
        E 30 e0 56 36
        E 30 e0 5e 2c
        E 30 e0 46 21
        E 30 e0 6d 18
        E 30 e0 32 11
        E 30 e0 36 0c
        E 30 e0 36 0c
        E 30 e0 3a 07
        E 60 80 4c 00
        E 120 e0 00 40
        E 600 90 4a 7f
        E 120 80 4a 00
        E 120 90 4a 7f
        E 120 80 4a 00
        E 120 90 4a 7f
        E 120 80 4a 00
        E 360 90 4a 7f
        E 120 80 4a 00
        E 120 90 4a 7f
        E 120 80 4a 00
        E 120 90 4a 7f
        E 480 80 4a 00
        E 0 90 4f 7f
        E 240 80 4f 00
        E 240 90 51 7f
        E 480 80 51 00
        E 0 90 4a 7f
        E 240 80 4a 00
        E 240 90 4c 7f
        E 420 e0 00 40
        E 30 e0 56 36
        E 30 e0 5e 2c
        E 30 e0 46 21
        E 30 e0 6d 18
        E 30 e0 32 11
        E 30 e0 36 0c
        E 30 e0 36 0c
        E 30 e0 3a 07
        E 60 80 4c 00
        E 120 e0 00 40
        E 120 90 4c 7f
        E 120 80 4c 00
        E 120 90 58 7f
        E 120 80 58 00
        E 120 90 4c 7f
        E 120 80 4c 00
        E 120 90 40 7f
        E 240 80 40 00
        E 0 90 4f 60
        E 480 80 4f 00
        E 0 90 4e 60
        E 240 80 4e 00
        E 240 90 4c 7f
        E 420 e0 00 40
        E 30 e0 56 36
        E 30 e0 5e 2c
        E 30 e0 46 21
        E 30 e0 6d 18
        E 30 e0 32 11
        E 30 e0 36 0c
        E 30 e0 36 0c
        E 30 e0 3a 07
        E 60 80 4c 00
        E 120 e0 00 40
        E 600 90 4a 7f
        E 120 80 4a 00
        E 120 90 4a 7f
        E 120 80 4a 00
        E 120 90 4a 7f
        E 120 80 4a 00
        E 360 90 4a 7f
        E 120 80 4a 00
        E 120 90 4a 7f
        E 120 80 4a 00
        E 120 90 4a 7f
        E 480 80 4a 00
        E 0 90 4f 7f
        E 240 80 4f 00
        E 240 90 4e 7f
        E 210 e0 4f 40
        E 30 e0 00 40
        E 30 e0 33 3a
        E 30 e0 18 34
        E 30 e0 3b 30
        E 30 e0 1f 2a
        E 30 e0 00 29
        E 30 e0 42 26
        E 30 e0 65 22
        E 30 e0 27 20
        E 30 e0 08 1f
        E 30 e0 4a 1c
        E 30 e0 2b 1b
        E 30 e0 0c 1a
        E 30 e0 4e 17
        E 30 e0 0f 15
        E 30 e0 70 13
        E 30 e0 32 11
        E 30 e0 74 0e
        E 30 e0 17 0b
        E 30 e0 1b 06
        E 30 e0 3e 02
        E 30 e0 00 00
        E 30 e0 00 00
        E 30 e0 00 40
        E 0 80 4e 00
        E 30 b0 7b 00
        GUID {392942A9-0EC7-428D-BBEF-21CF5F6E6493}
        IGNTEMPO 0 120.00000000 4 4
        SRCCOLOR 73
        VELLANE -1 112 0
        CFGEDITVIEW -7680.000000 0.101918 49 12 0 0 0 0 0
        KEYSNAP 0 0 "102034050607" 0 "Major"
        TRACKSEL 0 0 0
        EVTFILTER 0 -1 -1 -1 -1 0 1 0 0 -1.00000000 -1.00000000
        CFGEDIT 1 1 0 1 0 0 1 1 1 1 1 0.25000000 -1915 39 -24 1073 0 0 0 0 0.00000000 0 0 0 0 0.500000 0 0 1.000000 64
      >
    >
    <ITEM
      POSITION 26.66666666669669
      SNAPOFFS 0.00000000000000
      LENGTH 5.33333333333329
      LOOP 1
      ALLTAKES 0
      SEL 0
      FADEIN 1 0.000000 0.000000 1 0 0.000000
      FADEOUT 1 0.000000 0.000000 1 0 0.000000
      MUTE 0
      IGUID {32678A2A-A731-4584-8FA4-1036C3A0A301}
      IID 13
      NAME "Pulse Synth 1 untitled MIDI item"
      VOLPAN 1.000000 0.000000 1.000000 -1.000000
      SOFFS 0.00000000000000 0.00000000000000
      PLAYRATE 1.00000000000000 1 0.00000000000000 -1 0 0.002500
      CHANMODE 0
      GUID {9A3B6688-3EC7-401A-AE35-C40F8175B463}
      <SOURCE MIDI
        HASDATA 1 960 QN
        POOLEDEVTS {9A72D9DD-6EAF-4B32-BB5E-E023C1A42A1E}
        E 0 e0 00 40
        E 0 90 40 7f
        E 120 80 40 00
        E 120 90 45 7f
        E 120 80 45 00
        E 120 90 4c 7f
        E 120 80 4c 00
        E 120 90 53 7f
        E 120 80 53 00
        E 120 90 40 7f
        E 120 80 40 00
        E 120 90 45 7f
        E 120 80 45 00
        E 120 90 4c 7f
        E 120 80 4c 00
        E 120 90 51 7f
        E 120 80 51 00
        E 120 90 40 7f
        E 120 80 40 00
        E 120 90 45 7f
        E 120 80 45 00
        E 120 90 4c 7f
        E 120 80 4c 00
        E 120 90 56 7f
        E 120 80 56 00
        E 120 90 4c 7f
        E 120 80 4c 00
        E 120 90 45 7f
        E 120 80 45 00
        E 120 90 51 7f
        E 120 80 51 00
        E 120 90 45 7f
        E 120 80 45 00
        E 120 90 40 7f
        E 120 80 40 00
        E 120 90 45 7f
        E 120 80 45 00
        E 120 90 42 7f
        E 240 80 42 00
        E 240 90 3e 7f
        E 120 80 3e 00
        E 120 90 45 7f
        E 120 80 45 00
        E 120 90 47 7f
        E 240 80 47 00
        E 240 90 48 7f
        E 120 80 48 00
        E 120 90 48 7f
        E 120 80 48 00
        E 120 90 48 7f
        E 120 80 48 00
        E 120 90 48 7f
        E 120 80 48 00
        E 120 90 47 7f
        E 120 80 47 00
        E 120 90 47 7f
        E 120 80 47 00
        E 120 90 45 7f
        E 120 80 45 00
        E 120 90 45 7f
        E 120 80 45 00
        E 120 90 40 7f
        E 120 80 40 00
        E 120 90 45 7f
        E 120 80 45 00
        E 120 90 4c 7f
        E 120 80 4c 00
        E 120 90 53 7f
        E 120 80 53 00
        E 120 90 40 7f
        E 120 80 40 00
        E 120 90 45 7f
        E 120 80 45 00
        E 120 90 4c 7f
        E 120 80 4c 00
        E 120 90 51 7f
        E 120 80 51 00
        E 120 90 40 7f
        E 120 80 40 00
        E 120 90 45 7f
        E 120 80 45 00
        E 120 90 4c 7f
        E 120 80 4c 00
        E 120 90 56 7f
        E 120 80 56 00
        E 120 90 4c 7f
        E 120 80 4c 00
        E 120 90 45 7f
        E 120 80 45 00
        E 120 90 51 7f
        E 120 80 51 00
        E 120 90 45 7f
        E 120 80 45 00
        E 120 90 40 7f
        E 120 80 40 00
        E 120 90 45 7f
        E 120 80 45 00
        E 120 90 42 7f
        E 240 80 42 00
        E 240 90 3e 7f
        E 120 80 3e 00
        E 120 90 45 7f
        E 120 80 45 00
        E 120 90 47 7f
        E 240 80 47 00
        E 240 90 48 7f
        E 120 80 48 00
        E 120 90 48 7f
        E 120 80 48 00
        E 120 90 48 7f
        E 120 80 48 00
        E 120 90 48 7f
        E 120 80 48 00
        E 120 90 47 7f
        E 120 80 47 00
        E 120 90 47 7f
        E 120 80 47 00
        E 120 90 45 7f
        E 120 80 45 00
        E 120 90 45 7f
        E 120 80 45 00
        E 120 b0 7b 00
        GUID {F6FA0ED0-DB17-45C5-9EA8-83EDABB0A925}
        IGNTEMPO 0 120.00000000 4 4
        SRCCOLOR 29
        VELLANE 128 112 0
        CFGEDITVIEW 9.360000 0.101918 18 12 0 0 0 0 0
        KEYSNAP 0 0 "102034050607" 0 "Major"
        TRACKSEL 0 0 0
        EVTFILTER 0 -1 -1 -1 -1 0 1 0 0 -1.00000000 -1.00000000
        CFGEDIT 1 1 0 1 0 0 1 1 1 1 1 0.03125000 -1894 53 -3 1087 0 0 0 0 0.00000000 0 0 0 0 0.500000 0 0 1.000000 64
      >
    >
    <ITEM
      POSITION 32.00000000003001
      SNAPOFFS 0.00000000000000
      LENGTH 5.33333333333329
      LOOP 1
      ALLTAKES 0
      SEL 0
      FADEIN 1 0.000000 0.000000 1 0 0.000000
      FADEOUT 1 0.000000 0.000000 1 0 0.000000
      MUTE 0
      IGUID {05B85F0E-0883-4B05-B0FF-EBEF29358542}
      IID 13
      NAME "Pulse Synth 1 untitled MIDI item"
      VOLPAN 1.000000 0.000000 1.000000 -1.000000
      SOFFS 0.00000000000000 0.00000000000000
      PLAYRATE 1.00000000000000 1 0.00000000000000 -1 0 0.002500
      CHANMODE 0
      GUID {989DE3B7-9FA9-48AB-9EDF-CB6020F8DC0E}
      <SOURCE MIDI
        HASDATA 1 960 QN
        POOLEDEVTS {7E7C8599-7177-4371-B562-D5CBE246EB7C}
        E 0 e0 00 40
        E 0 90 40 7f
        E 120 80 40 00
        E 120 90 45 7f
        E 120 80 45 00
        E 120 90 4c 7f
        E 120 80 4c 00
        E 120 90 53 7f
        E 120 80 53 00
        E 120 90 40 7f
        E 120 80 40 00
        E 120 90 45 7f
        E 120 80 45 00
        E 120 90 4c 7f
        E 120 80 4c 00
        E 120 90 51 7f
        E 120 80 51 00
        E 120 90 40 7f
        E 120 80 40 00
        E 120 90 45 7f
        E 120 80 45 00
        E 120 90 4c 7f
        E 120 80 4c 00
        E 120 90 56 7f
        E 120 80 56 00
        E 120 90 4c 7f
        E 120 80 4c 00
        E 120 90 45 7f
        E 120 80 45 00
        E 120 90 51 7f
        E 120 80 51 00
        E 120 90 45 7f
        E 120 80 45 00
        E 120 90 40 7f
        E 120 80 40 00
        E 120 90 45 7f
        E 120 80 45 00
        E 120 90 42 7f
        E 240 80 42 00
        E 240 90 3e 7f
        E 120 80 3e 00
        E 120 90 45 7f
        E 120 80 45 00
        E 120 90 47 7f
        E 240 80 47 00
        E 240 90 48 7f
        E 120 80 48 00
        E 120 90 48 7f
        E 120 80 48 00
        E 120 90 48 7f
        E 120 80 48 00
        E 120 90 48 7f
        E 120 80 48 00
        E 120 90 47 7f
        E 120 80 47 00
        E 120 90 47 7f
        E 120 80 47 00
        E 120 90 45 7f
        E 120 80 45 00
        E 120 90 45 7f
        E 120 80 45 00
        E 120 90 40 7f
        E 120 80 40 00
        E 120 90 45 7f
        E 120 80 45 00
        E 120 90 4c 7f
        E 120 80 4c 00
        E 120 90 53 7f
        E 120 80 53 00
        E 120 90 40 7f
        E 120 80 40 00
        E 120 90 45 7f
        E 120 80 45 00
        E 120 90 4c 7f
        E 120 80 4c 00
        E 120 90 51 7f
        E 120 80 51 00
        E 120 90 40 7f
        E 120 80 40 00
        E 120 90 45 7f
        E 120 80 45 00
        E 120 90 4c 7f
        E 120 80 4c 00
        E 120 90 56 7f
        E 120 80 56 00
        E 120 90 4c 7f
        E 120 80 4c 00
        E 120 90 45 7f
        E 120 80 45 00
        E 120 90 51 7f
        E 120 80 51 00
        E 120 90 45 7f
        E 120 80 45 00
        E 120 90 40 7f
        E 120 80 40 00
        E 120 90 45 7f
        E 120 80 45 00
        E 120 90 42 7f
        E 240 80 42 00
        E 240 90 3e 7f
        E 120 80 3e 00
        E 120 90 45 7f
        E 120 80 45 00
        E 120 90 47 7f
        E 240 80 47 00
        E 240 90 48 7f
        E 120 80 48 00
        E 120 90 48 7f
        E 120 80 48 00
        E 120 90 48 7f
        E 120 80 48 00
        E 120 90 48 7f
        E 120 80 48 00
        E 120 90 47 7f
        E 120 80 47 00
        E 120 90 47 7f
        E 120 80 47 00
        E 120 90 45 7f
        E 120 80 45 00
        E 120 90 45 7f
        E 120 80 45 00
        E 120 b0 7b 00
        GUID {5C91B76E-96C5-4C91-BCC7-1BB63EB27B67}
        IGNTEMPO 0 120.00000000 4 4
        SRCCOLOR 114
        VELLANE 128 112 0
        CFGEDITVIEW 0.000000 0.000000 18 12 0 0 0 0 0
        KEYSNAP 0 0 "102034050607" 0 "Major"
        TRACKSEL 0 0 0
        EVTFILTER 0 -1 -1 -1 -1 0 1 0 0 -1.00000000 -1.00000000
        CFGEDIT 1 1 0 1 0 0 1 1 1 1 1 0.03125000 -1894 53 -3 1087 0 0 0 0 0.00000000 0 0 0 0 0.500000 0 0 1.000000 64
      >
    >
    <ITEM
      POSITION 37.33333333336335
      SNAPOFFS 0.00000000000000
      LENGTH 5.33333333333335
      LOOP 1
      ALLTAKES 0
      SEL 0
      FADEIN 1 0.000000 0.000000 1 0 0.000000
      FADEOUT 1 0.000000 0.000000 1 0 0.000000
      MUTE 0
      IGUID {DAA2147D-0A5B-4CCF-BD93-F0BFF09E3BD7}
      IID 43
      NAME "NES Pulse untitled MIDI item"
      VOLPAN 1.000000 0.000000 1.000000 -1.000000
      SOFFS 0.00000000000000 0.00000000000000
      PLAYRATE 1.00000000000000 1 0.00000000000000 -1 0 0.002500
      CHANMODE 0
      GUID {DFCCF27D-A4A7-4210-9065-ECDC7EE2C4C3}
      <SOURCE MIDI
        HASDATA 1 960 QN
        POOLEDEVTS {C7D0BC6B-DDAD-410D-A6BB-53C8B9219E94}
        e 0 90 4c 7a
        e 240 80 4c 00
        e 240 90 40 7a
        e 120 80 40 00
        e 120 90 4c 7a
        e 240 80 4c 00
        e 480 90 4a 7a
        e 120 80 4a 00
        e 120 90 47 7a
        e 120 80 47 00
        e 120 90 4c 7a
        e 240 80 4c 00
        e 240 90 40 7a
        e 120 80 40 00
        e 120 90 4c 7a
        e 240 80 4c 00
        e 480 90 4a 7a
        e 120 80 4a 00
        e 120 90 47 7a
        e 120 80 47 00
        e 120 90 4c 7a
        e 240 80 4c 00
        e 240 90 40 7a
        e 120 80 40 00
        e 120 90 4c 7a
        e 240 80 4c 00
        e 480 90 4a 7a
        e 120 80 4a 00
        e 120 90 4e 7a
        e 120 80 4e 00
        e 120 90 4f 7a
        e 240 80 4f 00
        e 240 90 40 7a
        e 120 80 40 00
        e 120 90 4c 7a
        e 240 80 4c 00
        e 480 90 4a 7a
        e 120 80 4a 00
        e 120 90 47 7a
        e 120 80 47 00
        e 120 90 4c 7a
        e 240 80 4c 00
        e 240 90 40 7a
        e 120 80 40 00
        e 120 90 4c 7a
        e 240 80 4c 00
        e 480 90 4a 7a
        e 120 80 4a 00
        e 120 90 47 7a
        e 120 80 47 00
        e 120 90 4c 7a
        e 240 80 4c 00
        e 240 90 40 7a
        e 120 80 40 00
        e 120 90 4c 7a
        e 240 80 4c 00
        e 480 90 4a 7a
        e 120 80 4a 00
        e 120 90 47 7a
        e 120 80 47 00
        e 120 90 4c 7a
        e 240 80 4c 00
        e 240 90 4f 7a
        e 120 80 4f 00
        e 120 90 4f 7a
        e 120 80 4f 00
        e 120 90 4f 7a
        e 120 80 4f 00
        e 360 90 4c 7a
        e 240 80 4c 00
        e 240 90 51 7a
        e 180 e0 37 3b
        e 30 e0 56 31
        e 30 e0 75 27
        e 30 e0 13 1e
        e 30 e0 32 14
        e 30 e0 51 0a
        e 30 e0 70 00
        E 60 e0 00 40
        e 0 80 51 00
        e 60 90 40 7a
        e 120 80 40 00
        e 120 90 4a 7a
        e 240 80 4a 00
        e 480 90 47 7a
        e 240 80 47 00
        e 0 90 47 7a
        e 240 80 47 00
        E 0 b0 7b 00
        GUID {50392F76-D9D1-46C4-A8AB-36B83830E8F7}
        IGNTEMPO 0 120.00000000 4 4
        SRCCOLOR 148
        VELLANE -1 112 0
        CFGEDITVIEW 16244.880000 0.100024 35 11 0 0 0 0 0
        KEYSNAP 0 0 "102034050607" 0 "Major"
        TRACKSEL 0 0 0
        EVTFILTER 0 -1 -1 -1 -1 0 1 0 0 -1.00000000 -1.00000000
        CFGEDIT 1 1 0 1 0 0 1 1 1 1 1 0.12500000 -1862 85 -3 1087 0 0 0 0 0.00000000 0 0 0 0 0.500000 0 0 1.000000 64
      >
    >
    <ITEM
      POSITION 42.66666666669669
      SNAPOFFS 0.00000000000000
      LENGTH 4.66666666664997
      LOOP 1
      ALLTAKES 0
      SEL 0
      FADEIN 1 0.000000 0.000000 1 0 0.000000
      FADEOUT 1 0.000000 0.000000 1 0 0.000000
      MUTE 0
      IGUID {B7402728-D9D8-41A9-9A0A-5D1F63B830A6}
      IID 43
      NAME "NES Pulse untitled MIDI item"
      VOLPAN 1.000000 0.000000 1.000000 -1.000000
      SOFFS 0.00000000000000 0.00000000000000
      PLAYRATE 1.00000000000000 1 0.00000000000000 -1 0 0.002500
      CHANMODE 0
      GUID {CE4E2169-4DE2-43A3-9BEF-E51E9628610C}
      <SOURCE MIDI
        HASDATA 1 960 QN
        POOLEDEVTS {B610A737-DA87-4CDB-8A16-53DDAD28DB91}
        E 0 90 4c 7a
        E 240 80 4c 00
        E 240 90 40 7a
        E 120 80 40 00
        E 120 90 4c 7a
        E 240 80 4c 00
        E 480 90 4a 7a
        E 120 80 4a 00
        E 120 90 47 7a
        E 120 80 47 00
        E 120 90 4c 7a
        E 240 80 4c 00
        E 240 90 40 7a
        E 120 80 40 00
        E 120 90 4c 7a
        E 240 80 4c 00
        E 480 90 4a 7a
        E 120 80 4a 00
        E 120 90 47 7a
        E 120 80 47 00
        E 120 90 4c 7a
        E 240 80 4c 00
        E 240 90 40 7a
        E 120 80 40 00
        E 120 90 4c 7a
        E 240 80 4c 00
        E 480 90 4a 7a
        E 120 80 4a 00
        E 120 90 4e 7a
        E 120 80 4e 00
        E 120 90 4f 7a
        E 240 80 4f 00
        E 240 90 40 7a
        E 120 80 40 00
        E 120 90 4c 7a
        E 240 80 4c 00
        E 480 90 4a 7a
        E 120 80 4a 00
        E 120 90 47 7a
        E 120 80 47 00
        E 120 90 4c 7a
        E 240 80 4c 00
        E 240 90 40 7a
        E 120 80 40 00
        E 120 90 4c 7a
        E 240 80 4c 00
        E 0 90 4a 7a
        E 120 80 4a 00
        E 120 90 47 7a
        E 120 80 47 00
        E 120 90 4c 7a
        E 240 80 4c 00
        E 240 90 40 7a
        E 120 80 40 00
        E 120 90 4c 7a
        E 240 80 4c 00
        E 0 90 4a 7a
        E 120 80 4a 00
        E 120 90 47 7a
        E 120 80 47 00
        E 120 e0 4f 40
        E 0 90 4c 7a
        E 30 e0 00 40
        E 30 e0 00 40
        E 30 e0 33 3a
        E 30 e0 75 37
        E 30 e0 56 36
        E 30 e0 56 36
        E 30 e0 18 34
        E 30 e0 5a 31
        E 30 e0 5a 31
        E 30 e0 7d 2d
        E 30 e0 7d 2d
        E 30 e0 5e 2c
        E 30 e0 3f 2b
        E 30 e0 1f 2a
        E 30 e0 1f 2a
        E 30 e0 00 29
        E 30 e0 61 27
        E 30 e0 61 27
        E 30 e0 42 26
        E 30 e0 23 25
        E 30 e0 04 24
        E 30 e0 46 21
        E 30 e0 08 1f
        E 30 e0 2b 1b
        E 30 e0 6d 18
        E 30 e0 2f 16
        E 30 e0 70 13
        E 30 e0 32 11
        E 30 e0 74 0e
        E 30 e0 55 0d
        E 30 e0 17 0b
        E 30 e0 78 09
        E 30 e0 59 08
        E 30 e0 3a 07
        E 30 e0 7c 04
        E 30 e0 1f 01
        E 30 e0 00 00
        E 30 e0 00 00
        E 30 e0 00 00
        E 30 e0 00 00
        E 30 e0 00 00
        E 30 e0 00 00
        E 30 e0 00 00
        E 30 80 4c 00
        E 90 e0 00 40
        E 30 90 4c 7a
        E 120 80 4c 00
        E 0 90 58 7a
        E 120 80 58 00
        E 0 90 4c 7a
        E 120 80 4c 00
        E 0 90 58 7a
        E 120 80 58 00
        E 0 90 4c 7a
        E 120 80 4c 00
        E 0 90 58 7a
        E 120 80 58 00
        E 0 90 4c 7a
        E 120 80 4c 00
        E 0 90 58 7a
        E 120 80 58 00
        E 0 90 4c 7a
        E 120 80 4c 00
        E 0 90 58 7a
        E 120 80 58 00
        E 0 90 4c 7a
        E 120 80 4c 00
        E 0 90 58 7a
        E 120 80 58 00
        E 0 90 51 7a
        E 180 e0 37 3b
        E 30 e0 56 31
        E 30 e0 75 27
        E 30 e0 13 1e
        E 30 e0 32 14
        E 30 e0 51 0a
        E 30 e0 70 00
        E 60 e0 00 40
        E 0 80 51 00
        E 60 90 40 7a
        E 120 80 40 00
        E 120 90 4a 7a
        E 240 80 4a 00
        E 480 90 47 7a
        E 240 80 47 00
        E 0 90 47 7a
        E 240 80 47 00
        E 0 b0 7b 00
        GUID {D5DA379E-703E-4093-9478-EF0132C9FBD4}
        IGNTEMPO 0 120.00000000 4 4
        SRCCOLOR 150
        VELLANE 128 112 0
        CFGEDITVIEW -15243.120000 0.085836 20 11 0 0 0 0 0
        KEYSNAP 0 0 "102034050607" 0 "Major"
        TRACKSEL 0 0 0
        EVTFILTER 0 -1 -1 -1 -1 0 1 0 0 -1.00000000 -1.00000000
        CFGEDIT 1 1 0 1 0 0 1 1 1 1 1 0.25000000 -1862 85 -3 1087 0 0 0 0 0.00000000 0 0 0 0 0.500000 0 0 1.000000 64
      >
    >
    <ITEM
      POSITION 47.33333333334667
      SNAPOFFS 0.00000000000000
      LENGTH 10.00000000000000
      LOOP 1
      ALLTAKES 0
      SEL 0
      FADEIN 1 0.000000 0.000000 1 0 0.000000
      FADEOUT 1 0.000000 0.000000 1 0 0.000000
      MUTE 0
      IGUID {6FFEEE8B-17B9-4702-9A58-C2CCAA2205CD}
      IID 109
      NAME "NES Pulse untitled MIDI item"
      VOLPAN 1.000000 0.000000 1.000000 -1.000000
      SOFFS 0.00000000000000 0.00000000000000
      PLAYRATE 1.00000000000000 1 0.00000000000000 -1 0 0.002500
      CHANMODE 0
      GUID {B8A8A29A-2FB0-40C7-B285-F406E5B7E14C}
      <SOURCE MIDI
        HASDATA 1 960 QN
        POOLEDEVTS {5A1988AC-EDB8-4045-A4DA-3CD32735FBE5}
        E 0 90 40 7f
        E 480 b0 01 09
        E 1410 e0 4f 40
        E 30 e0 00 40
        E 30 e0 00 40
        E 30 e0 00 40
        E 30 e0 00 40
        E 30 e0 71 3c
        E 30 e0 52 3b
        E 30 e0 75 37
        E 30 e0 37 35
        E 30 e0 79 32
        E 30 e0 3b 30
        E 30 e0 7d 2d
        E 30 e0 3f 2b
        E 30 e0 00 29
        E 30 e0 42 26
        E 30 e0 65 22
        E 30 e0 46 21
        E 30 80 40 00
        E 240 e0 00 40
        E 240 b0 01 00
        E 0 90 4c 7f
        E 480 80 4c 00
        E 0 90 40 7f
        E 240 80 40 00
        E 240 90 4c 7f
        E 960 b0 01 09
        E 1680 80 4c 00
        E 210 b0 01 00
        E 30 90 4c 7f
        E 360 80 4c 00
        E 120 90 4c 7f
        E 120 80 4c 00
        E 120 90 4c 7f
        E 120 80 4c 00
        E 120 90 4f 7f
        E 840 80 4f 00
        E 120 90 5b 7f
        E 120 80 5b 00
        E 0 90 4f 7f
        E 120 80 4f 00
        E 240 90 4e 7f
        E 840 80 4e 00
        E 120 90 5a 7f
        E 120 80 5a 00
        E 0 90 4e 7f
        E 120 80 4e 00
        E 240 90 4a 7f
        E 480 b0 01 09
        E 1440 b0 01 00
        E 0 80 4a 00
        E 480 90 4f 7f
        E 240 80 4f 00
        E 0 90 4e 7f
        E 240 80 4e 00
        E 0 90 4a 7f
        E 240 80 4a 00
        E 240 90 4a 7f
        E 240 80 4a 00
        E 240 90 5b 7f
        E 120 80 5b 00
        E 0 90 4f 7f
        E 120 80 4f 00
        E 0 90 5b 7f
        E 120 80 5b 00
        E 0 90 4f 7f
        E 120 80 4f 00
        E 0 90 5a 7f
        E 120 80 5a 00
        E 0 90 4e 7f
        E 120 80 4e 00
        E 0 90 5a 7f
        E 120 80 5a 00
        E 0 90 4e 7f
        E 120 80 4e 00
        E 0 90 4c 7f
        E 960 b0 01 09
        E 1680 b0 01 00
        E 0 80 4c 00
        E 120 b0 01 00
        E 120 b0 01 00
        E 0 90 4e 7f
        E 120 80 4e 00
        E 120 90 4e 7f
        E 120 80 4e 00
        E 120 90 4e 7f
        E 120 80 4e 00
        E 120 90 4e 7f
        E 120 80 4e 00
        E 120 b0 01 00
        E 0 90 4f 7f
        E 840 80 4f 00
        E 120 90 4e 7f
        E 240 80 4e 00
        E 0 90 51 7f
        E 120 80 51 00
        E 120 90 56 7f
        E 120 80 56 00
        E 120 90 5a 7f
        E 120 80 5a 00
        E 120 90 56 7f
        E 240 80 56 00
        E 0 90 51 7f
        E 120 80 51 00
        E 120 90 56 7f
        E 120 80 56 00
        E 120 90 51 7f
        E 120 80 51 00
        E 120 b0 01 00
        E 0 90 4f 7f
        E 210 e0 00 40
        E 30 e0 00 40
        E 30 e0 52 3b
        E 30 e0 33 3a
        E 30 e0 56 36
        E 30 e0 7d 2d
        E 30 e0 3f 2b
        E 30 e0 00 29
        E 30 e0 42 26
        E 30 e0 42 26
        E 30 e0 23 25
        E 30 e0 23 25
        E 30 e0 23 25
        E 30 e0 23 25
        E 30 e0 00 29
        E 30 e0 1f 2a
        E 30 e0 3f 2b
        E 30 e0 7d 2d
        E 30 e0 5a 31
        E 30 e0 75 37
        E 30 e0 33 3a
        E 30 e0 71 3c
        E 30 e0 00 40
        E 90 b0 01 00
        E 0 80 4f 00
        E 0 90 53 7f
        E 960 80 53 00
        E 480 b0 01 00
        E 0 90 51 7f
        E 960 80 51 00
        E 480 b0 01 00
        E 0 90 4f 7f
        E 960 80 4f 00
        e 480 b0 01 00
        e 0 90 4f 7f
        E 210 90 51 7f
        e 30 80 4f 00
        E 720 80 51 00
        E 480 b0 7b 00
        GUID {C1EF510D-154F-40B3-A6D6-27B5510CFECB}
        IGNTEMPO 0 120.00000000 4 4
        SRCCOLOR 157
        VELLANE 128 112 0
        CFGEDITVIEW 169.440000 0.088701 21 11 0 0 0 0 0
        KEYSNAP 0 0 "102034050607" 0 "Major"
        TRACKSEL 0 0 0
        EVTFILTER 0 -1 -1 -1 -1 0 1 0 0 -1.00000000 -1.00000000
        CFGEDIT 1 1 0 1 0 0 1 1 1 1 1 0.25000000 -1862 85 -3 1087 0 0 0 0 0.00000000 0 0 0 0 0.500000 0 0 1.000000 64
      >
    >
    <ITEM
      POSITION 57.33333333333966
      SNAPOFFS 0.00000000000000
      LENGTH 12.66666666666001
      LOOP 1
      ALLTAKES 0
      SEL 0
      FADEIN 1 0.000000 0.000000 1 0 0.000000
      FADEOUT 1 0.000000 0.000000 1 0 0.000000
      MUTE 0
      IGUID {8F59D251-9AA5-4D26-83A6-304CF6DEDED8}
      IID 169
      NAME "NES Pulse untitled MIDI item glued"
      VOLPAN 1.000000 0.000000 1.000000 -1.000000
      SOFFS 0.00000000000000 0.00000000000000
      PLAYRATE 1.00000000000000 1 0.00000000000000 -1 0 0.002500
      CHANMODE 0
      GUID {34536C63-18EC-435C-B93A-C67FC4533EB2}
      <SOURCE MIDI
        HASDATA 1 960 QN
        POOLEDEVTS {7B4524AC-C162-420D-B312-47A7ACE8B2A6}
        E 0 90 40 7f
        E 480 b0 01 09
        E 1410 e0 4f 40
        E 30 e0 00 40
        E 30 e0 00 40
        E 30 e0 00 40
        E 30 e0 00 40
        E 30 e0 71 3c
        E 30 e0 52 3b
        E 30 e0 75 37
        E 30 e0 37 35
        E 30 e0 79 32
        E 30 e0 3b 30
        E 30 e0 7d 2d
        E 30 e0 3f 2b
        E 30 e0 00 29
        E 30 e0 42 26
        E 30 e0 65 22
        E 30 e0 46 21
        E 30 80 40 00
        E 240 e0 00 40
        E 240 b0 01 00
        E 0 90 4c 7f
        E 480 80 4c 00
        E 0 90 40 7f
        E 240 80 40 00
        E 240 90 4c 7f
        E 960 b0 01 09
        E 1680 80 4c 00
        E 210 b0 01 00
        E 30 90 4c 7f
        E 360 80 4c 00
        E 120 90 4c 7f
        E 120 80 4c 00
        E 120 90 4c 7f
        E 120 80 4c 00
        E 120 90 4f 7f
        E 840 80 4f 00
        E 120 90 5b 7f
        E 120 80 5b 00
        E 0 90 4f 7f
        E 120 80 4f 00
        E 240 90 4e 7f
        E 840 80 4e 00
        E 120 90 5a 7f
        E 120 80 5a 00
        E 0 90 4e 7f
        E 120 80 4e 00
        E 240 90 4a 7f
        E 480 b0 01 09
        E 1440 b0 01 00
        E 0 80 4a 00
        E 480 90 4f 7f
        E 240 80 4f 00
        E 0 90 4e 7f
        E 240 80 4e 00
        E 0 90 4a 7f
        E 240 80 4a 00
        E 240 90 4a 7f
        E 240 80 4a 00
        E 240 90 5b 7f
        E 120 80 5b 00
        E 0 90 4f 7f
        E 120 80 4f 00
        E 0 90 5b 7f
        E 120 80 5b 00
        E 0 90 4f 7f
        E 120 80 4f 00
        E 0 90 5a 7f
        E 120 80 5a 00
        E 0 90 4e 7f
        E 120 80 4e 00
        E 0 90 5a 7f
        E 120 80 5a 00
        E 0 90 4e 7f
        E 120 80 4e 00
        E 0 90 4c 7f
        E 960 b0 01 09
        E 1680 b0 01 00
        E 0 80 4c 00
        E 120 b0 01 00
        E 120 b0 01 00
        E 0 90 4e 7f
        E 120 80 4e 00
        E 120 90 4e 7f
        E 120 80 4e 00
        E 120 90 4e 7f
        E 120 80 4e 00
        E 120 90 4e 7f
        E 120 80 4e 00
        E 120 b0 01 00
        E 0 90 4f 7f
        E 840 80 4f 00
        E 120 90 4e 7f
        E 240 80 4e 00
        E 0 90 51 7f
        E 120 80 51 00
        E 120 90 56 7f
        E 120 80 56 00
        E 120 90 5a 7f
        E 120 80 5a 00
        E 120 90 56 7f
        E 240 80 56 00
        E 0 90 51 7f
        E 120 80 51 00
        E 120 90 56 7f
        E 120 80 56 00
        E 120 90 51 7f
        E 120 80 51 00
        E 120 b0 01 00
        E 0 90 4f 7f
        E 210 e0 00 40
        E 30 e0 00 40
        E 30 e0 52 3b
        E 30 e0 33 3a
        E 30 e0 56 36
        E 30 e0 7d 2d
        E 30 e0 3f 2b
        E 30 e0 00 29
        E 30 e0 42 26
        E 30 e0 42 26
        E 30 e0 23 25
        E 30 e0 23 25
        E 30 e0 23 25
        E 30 e0 23 25
        E 30 e0 00 29
        E 30 e0 1f 2a
        E 30 e0 3f 2b
        E 30 e0 7d 2d
        E 30 e0 5a 31
        E 30 e0 75 37
        E 30 e0 33 3a
        E 30 e0 71 3c
        E 30 e0 00 40
        E 90 b0 01 00
        E 0 80 4f 00
        E 0 90 53 7f
        E 960 80 53 00
        E 480 b0 01 00
        E 0 90 51 7f
        E 960 80 51 00
        E 480 b0 01 00
        E 0 90 4f 7f
        E 960 80 4f 00
        E 480 b0 01 00
        E 0 90 4f 7f
        E 210 90 51 7f
        E 30 80 4f 00
        E 720 80 51 00
        E 480 90 4c 60
        E 960 b0 01 09
        E 1950 e0 33 3a
        E 30 e0 14 39
        E 30 e0 79 32
        E 30 e0 3b 30
        E 30 e0 7d 2d
        E 30 e0 3f 2b
        E 30 e0 49 29
        E 30 e0 61 27
        E 30 e0 42 26
        E 30 e0 04 24
        E 30 e0 65 22
        E 30 e0 27 20
        E 30 e0 08 1f
        E 30 e0 69 1d
        E 30 e0 2b 1b
        E 30 e0 0c 1a
        E 30 e0 6d 18
        E 30 e0 2f 16
        E 30 e0 0f 15
        E 30 e0 70 13
        E 30 e0 32 11
        E 30 e0 13 10
        E 30 e0 74 0e
        E 30 e0 36 0c
        E 30 e0 59 08
        E 30 e0 3a 07
        E 30 e0 7c 04
        E 30 e0 1f 01
        E 120 80 4c 00
        E 360 e0 00 40
        E 3480 b0 7b 00
        GUID {90B0528A-9672-4AA9-95E6-C164E5812B32}
        IGNTEMPO 0 120.00000000 4 4
        SRCCOLOR 227
        VELLANE 128 112 0
        CFGEDITVIEW 37463.520000 0.058981 36 12 0 0 0 0 0
        KEYSNAP 0 0 "102034050607" 0 "Major"
        TRACKSEL 0 0 0
        EVTFILTER 0 -1 -1 -1 -1 0 1 0 0 -1.00000000 -1.00000000
        CFGEDIT 1 1 0 1 0 0 1 1 1 1 1 0.03125000 -1846 101 -3 1087 0 0 0 0 0.00000000 0 0 0 0 0.500000 0 0 1.000000 64
      >
    >
  >
  <TRACK '{9B970CC8-6AD4-4CF3-B110-E19E690F6358}'
    NAME "DMG Pulse"
    PEAKCOL 30338403
    BEAT -1
    AUTOMODE 0
    VOLPAN 1.00000000000000 0.00000000000000 -1.00000000000000 -1.00000000000000 1.00000000000000
    MUTESOLO 0 0 0
    IPHASE 0
    ISBUS 0 0
    BUSCOMP 0 0
    SHOWINMIX 1 0.666700 0.500000 1 0.500000 0 -1 0
    FREEMODE 0
    SEL 0
    REC 0 0 0 0 0 0 0
    VU 2
    TRACKHEIGHT 0 0
    INQ 0 0 0 0.5000000000 100 0 0 100
    NCHAN 2
    FX 1
    TRACKID {9B970CC8-6AD4-4CF3-B110-E19E690F6358}
    PERF 0
    MIDIOUT -1
    MAINSEND 1 0
    <VOLENV2
      ACT 1
      VIS 1 1 1.000000
      LANEHEIGHT 0 0
      ARM 1
      DEFSHAPE 0 -1 -1
      PT 0.000000 0.893696 0
      PT 5.333333 0.000000 0
      PT 6.666667 0.533333 0
      PT 6.666667 0.000000 0
      PT 8.000000 0.500000 0
      PT 8.000000 0.033333 0
      PT 9.333333 0.566667 0
      PT 9.333333 0.000000 0
      PT 10.666667 0.566667 0
      PT 66.333333 0.566667 0
      PT 67.332833 0.300133 0
      PT 77.999500 0.300000 0
      PT 78.000000 0.300133 0
      PT 88.666667 0.300000 0
      PT 88.667167 0.500020 0
      PT 94.000500 0.566667 0
    >
    <PANENV2
      ACT 1
      VIS 1 1 1.000000
      LANEHEIGHT 0 0
      ARM 1
      DEFSHAPE 0 -1 -1
      PT -0.000500 0.000000 0
      PT 16.000500 0.000000 0
      PT 94.000500 0.000000 0
    >
    <FXCHAIN
      SHOW 0
      LASTSEL 2
      DOCKED 0
      BYPASS 0 0
      <VST "VSTi: chipsounds (x86) (Plogue Art et Technologie, Inc)" "chipsounds VST_x86.dll" 0 ""
        T0dMUO5e7f4AAAAAAgAAAAEAAAAAAAAAAgAAAAAAAABMAwAAAQAAAAAAEABDRUdQDRMAAHic7Vjfb9MwEH5H4n+w8gQPJHHapQ1aQVu7TZWomOh44WVykyOzcJxgO2Xw
        13NOkzbttjaDFyR6UlX/+O783Z1zjnP6/j4TZAlK81yOHOr6Dnn/7uWL0zPF2ZwtoTUXhpFDCpUnZWymExzw/chBLEE5nYMxXKaafC+Z4OYnTjtEGwUsw+GR0wsckrH7
        eTVyJkQez85HTnASOmQ2nUw/lmaWJ1BpsdLkGTO46FzkZuT47SEBSxAjh0u0XWYgjUMEX8JKGZE6Rqu0ajDBcIiSNwQsKVfHoh4eox6okRMiLhX5gombUlY0fdevxCHe
        2jMkQXhSWZcss8tQl1yXCsj4jhfeZHZlf+RVKQXPuIHktUMWTH6bJnWMSHzHpLS036B7RS5W0TEP1iwWt4rJFCxwM2hwTFfLZ61maWqHf9wKpqsw1Ywr1jPGZcN6yUQJ
        VXJ3fNtG0jXyYRS2kUFnZK8zst8ZedIZGXZGDjojh52RUWck9btDu2eJdk8T7Z4n2j1R9GCmrpli2SOb72QftO1WFO21OmjvgP4wouHgSeywjaUH2PboFomABuHT4P6G
        MR0ejETkb3ZD/zCYHnq+2+B26GiwN8qRfzDRbfAm1TSI3KFF9/bAN7EOHrd9w1QKpi64cZ651yJPS3DtueR+uPzolhrUVsmr1MalxpNiwgwj5mdhzQe90J5E/JcNZ2h9
        ag40XBJkwtmqmaAONhq5XP0F/lGOcpR/RXaqhLcqE88uHPRYOI5ylP9I/rJwfMIHHhRe1+agbRFwtYHi2a8fwz8sIoNJ3Rz6E5yb4H9QTT+z/+dBuFE8TUHN8SYNMgZ1
        2HM6CGjUeB6ctDwPHvOc1o7XsuoPqnZvPLiMtpI59nuXe3059eytvelcfP0KsXl4jz/LFtx6s3tdX1/9rz5PGw0WG76E6eaLRNW/WPc1CFwDkhu2sB5uvfcq0GBmIEvC
        dYM3Fd3OG40YuEd0/5wb0r/HqEpkXTBzN3K+vPXsdwidlzLR3mox7e3anaOZi4SbXHltIy7DyWL3Rb0z4QLSlDM02hA8F7x4BrG1vmcVD5GBR8lcMaW4YdLdpLPmwoRQ
        eZ4R2jBqpdbD3NrvXF7zoQs7vwFZAnJzAAAQAAAA
      >
      FLOATPOS 24 24 296 212
      FXID {68E65CB7-3377-4894-923B-6F66E8E58D8E}
      WAK 0
      BYPASS 0 0
      <VST "VST: LFOTool (x86) (Xfer Records)" "LFOTool.dll" 0 ""
        T2ZmWO5e7f4CAAAAAQAAAAAAAAACAAAAAAAAAAIAAAABAAAAAAAAAAIAAAAAAAAAgEkAAAEAAAAAABAAAAAA4P//3z8AAAAg///fPwAAAOD//98/AAAA4P//3z8AAADg
        ///fPwAAAOD//98/AAAA4P//3z8AAADg///fPwAAAOD//98/AAAA4P//3z8AAADg///fPwAAAOD//98/AAAA4P//3z8AAADg///fPwAAAOD//98/AAAA4P//3z8AAADg
        ///fPwAAAOD//98/AAAA4P//3z8AAADg///fPwAAAOD//98/AAAA4P//3z8AAADg///fPwAAAOD//98/AAAA4P//3z8AAADg///fPwAAAOD//98/AAAA4P//3z8AAADg
        ///fPwAAAOD//98/AAAA4P//3z8AAADg///fPwAAAOD//98/AAAA4P//3z8AAADg///fPwAAAOD//98/AAAA4P//3z8AAADg///fPwAAAOD//98/AAAA4P//3z8AAADg
        ///fPwAAAOD//98/AAAA4P//3z8AAADg///fPwAAAOD//98/AAAA4P//3z8AAADg///fPwAAAOD//98/AAAA4P//3z8AAADg///fPwAAAOD//98/AAAA4P//3z8AAADg
        ///fPwAAAOD//98/AAAA4P//3z8AAADg///fPwAAAOD//98/AAAA4P//3z8AAADg///fPwAAAOD//98/AAAA4P//3z8AAADg///fPwAAAOD//98/AAAA4P//3z8AAADg
        ///fPwAAAOD//98/AAAA4P//3z8AAADg///fPwAAAOD//98/AAAA4P//3z8AAADg///fPwAAAOD//98/AAAA4P//3z8AAADg///fPwAAAOD//98/AAAA4P//3z8AAADg
        ///fPwAAAOD//98/AAAA4P//3z8AAADg///fPwAAAOD//98/AAAA4P//3z8AAADg///fPwAAAOD//98/AAAA4P//3z8AAADg///fPwAAAOD//98/AAAA4P//3z8AAADg
        ///fPwAAAOD//98/AAAA4P//3z8AAADg///fPwAAAOD//98/AAAA4P//3z8AAADg///fPwAAAOD//98/AAAA4P//3z8AAADg///fPwAAAOD//98/AAAA4P//3z8AAADg
        ///fPwAAAOD//98/AAAA4P//3z8AAADg///fPwAAAOD//98/AAAA4P//3z8AAADg///fPwAAAOD//98/AAAA4P//3z8AAADg///fPwAAAOD//98/AAAA4P//3z8AAADg
        ///fPwAAAOD//98/AAAA4P//3z8AAADg///fPwAAAOD//98/AAAA4P//3z8AAADg///fPwAAAOD//98/AAAA4P//3z8AAADg///fPwAAAOD//98/AAAA4P//3z8AAADg
        ///fPwAAAOD//98/AAAA4P//3z8AAADg///fPwAAAOD//98/AAAA4P//3z8AAADg///fPwAAAOD//98/AAAA4P//3z8AAADg///fPwAAAOD//98/AAAA4P//3z8AAADg
        ///fPwAAAOD//98/AAAA4P//3z8AAADg///fPwAAAOD//98/AAAA4P//3z8AAADg///fPwAAAOD//98/AAAA4P//3z8AAADg///fPwAAAOD//98/AAAA4P//3z8AAADg
        ///fPwAAAOD//98/AAAA4P//3z8AAADg///fPwAAAOD//98/AAAA4P//3z8AAADg///fPwAAAOD//98/AAAA4P//3z8AAADg///fPwAAAOD//98/AAAA4P//3z8AAADg
        ///fPwAAAOD//98/AAAA4P//3z8AAADg///fPwAAAOD//98/AAAA4P//3z8AAADg///fPwAAAOD//98/AAAA4P//3z8AAADg///fPwAAAOD//98/AAAA4P//3z8AAADg
        ///fPwAAAOD//98/AAAA4P//3z8AAADg///fPwAAAOD//98/AAAA4P//3z8AAADg///fPwAAAOD//98/AAAA4P//3z8AAADg///fPwAAAOD//98/AAAA4P//3z8AAADg
        ///fPwAAAOD//98/AAAA4P//3z8AAADg///fPwAAAOD//98/AAAA4P//3z8AAADg///fPwAAAOD//98/AAAA4P//3z8AAADg///fPwAAAOD//98/AAAA4P//3z8AAADg
        ///fPwAAAOD//98/AAAA4P//3z8AAADg///fPwAAAOD//98/AAAA4P//3z8AAADg///fPwAAAOD//98/AAAA4P//3z8AAADg///fPwAAAOD//98/AAAA4P//3z8AAADg
        ///fPwAAAOD//98/AAAA4P//3z8AAADg///fPwAAAOD//98/AAAA4P//3z8AAADg///fPwAAAOD//98/AAAA4P//3z8AAADg///fPwAAAOD//98/AAAA4P//3z8AAADg
        ///fPwAAAOD//98/AAAA4P//3z8AAADg///fPwAAAOD//98/AAAA4P//3z8AAADg///fPwAAAOD//98/AAAA4P//3z8AAADg///fPwAAAOD//98/AAAA4P//3z8AAADg
        ///fPwAAAOD//98/AAAA4P//3z8AAADg///fPwAAAOD//98/AAAA4P//3z8AAADg///fPwAAAOD//98/AAAA4P//3z8AAADg///fPwAAAOD//98/AAAA4P//3z8AAADg
        ///fPwAAAOD//98/AAAA4P//3z8AAADg///fPwAAAOD//98/AAAA4P//3z8AAADg///fPwAAAOD//98/AAAA4P//3z8AAADg///fPwAAAOD//98/AAAA4P//3z8AAADg
        ///fPwAAAOD//98/AAAA4P//3z8AAADg///fPwAAAOD//98/AAAA4P//3z8AAADg///fPwAAAOD//98/AAAA4P//3z8AAADg///fPwAAAOD//98/AAAA4P//3z8AAADg
        ///fPwAAAOD//98/AAAA4P//3z8AAADg///fPwAAAOD//98/AAAA4P//3z8AAADg///fPwAAAOD//98/AAAA4P//3z8AAADg///fPwAAAOD//98/AAAA4P//3z8AAADg
        ///fPwAAAOD//98/AAAA4P//3z8AAADg///fPwAAAOD//98/AAAA4P//3z8AAADg///fPwAAAOD//98/AAAA4P//3z8AAADg///fPwAAAOD//98/AAAA4P//3z8AAADg
        ///fPwAAAOD//98/AAAA4P//3z8AAADg///fPwAAAOD//98/AAAA4P//3z8AAADg///fPwAAAOD//98/AAAA4P//3z8AAADg///fPwAAAOD//98/AAAA4P//3z8AAADg
        ///fPwAAAOD//98/AAAA4P//3z8AAADg///fPwAAAOD//98/AAAA4P//3z8AAADg///fPwAAAOD//98/AAAA4P//3z8AAADg///fPwAAAOD//98/AAAA4P//3z8AAADg
        ///fPwAAAOD//98/AAAA4P//3z8AAADg///fPwAAAOD//98/AAAA4P//3z8AAADg///fPwAAAOD//98/AAAA4P//3z8AAADg///fPwAAAOD//98/AAAA4P//3z8AAADg
        ///fPwAAAOD//98/AAAA4P//3z8AAADg///fPwAAAOD//98/AAAA4P//3z8AAADg///fPwAAAOD//98/AAAA4P//3z8AAADg///fPwAAAOD//98/AAAA4P//3z8AAADg
        ///fPwAAAOD//98/AAAA4P//3z8AAADg///fPwAAAOD//98/AAAA4P//3z8AAADg///fPwAAAOD//98/AAAA4P//3z8AAADg///fPwAAAOD//98/AAAA4P//3z8AAADg
        ///fPwAAAOD//98/AAAA4P//3z8AAADg///fPwAAAOD//98/AAAA4P//3z8AAADg///fPwAAAOD//98/AAAA4P//3z8AAADg///fPwAAAOD//98/AAAA4P//3z8AAADg
        ///fPwAAAOD//98/AAAA4P//3z8AAADg///fPwAAAOD//98/AAAA4P//3z8AAADg///fPwAAAOD//98/AAAA4P//3z8AAADg///fPwAAAOD//98/AAAA4P//3z8AAADg
        ///fPwAAAOD//98/AAAA4P//3z8AAADg///fPwAAAOD//98/AAAA4P//3z8AAADg///fPwAAAOD//98/AAAA4P//3z8AAADg///fPwAAAOD//98/AAAA4P//3z8AAADg
        ///fPwAAAOD//98/AAAA4P//3z8AAADg///fPwAAAOD//98/AAAA4P//3z8AAADg///fPwAAAOD//98/AAAA4P//3z8AAADg///fPwAAAOD//98/AAAA4P//3z8AAADg
        ///fPwAAAOD//98/AAAA4P//3z8AAADg///fPwAAAOD//98/AAAA4P//3z8AAADg///fPwAAAOD//98/AAAA4P//3z8AAADg///fPwAAAOD//98/AAAA4P//3z8AAADg
        ///fPwAAAOD//98/AAAA4P//3z8AAADg///fPwAAAOD//98/AAAA4P//3z8AAADg///fPwAAAOD//98/AAAA4P//3z8AAADg///fPwAAAOD//98/AAAA4P//3z8AAADg
        ///fPwAAAOD//98/AAAA4P//3z8AAADg///fPwAAAOD//98/AAAA4P//3z8AAADg///fPwAAAOD//98/AAAA4P//3z8AAADg///fPwAAAOD//98/AAAA4P//3z8AAADg
        ///fPwAAAOD//98/AAAA4P//3z8AAADg///fPwAAAOD//98/AAAA4P//3z8AAADg///fPwAAAOD//98/AAAA4P//3z8AAADg///fPwAAAOD//98/AAAA4P//3z8AAADg
        ///fPwAAAOD//98/AAAA4P//3z8AAADg///fPwAAAOD//98/AAAA4P//3z8AAADg///fPwAAAOD//98/AAAA4P//3z8AAADg///fPwAAAOD//98/AAAA4P//3z8AAADg
        ///fPwAAAOD//98/AAAA4P//3z8AAADg///fPwAAAOD//98/AAAA4P//3z8AAADg///fPwAAAOD//98/AAAA4P//3z8AAADg///fPwAAAOD//98/AAAA4P//3z8AAADg
        ///fPwAAAOD//98/AAAA4P//3z8AAADg///fPwAAAOD//98/AAAA4P//3z8AAADg///fPwAAAOD//98/AAAA4P//3z8AAADg///fPwAAAOD//98/AAAA4P//3z8AAADg
        ///fPwAAAOD//98/AAAA4P//3z8AAADg///fPwAAAOD//98/AAAA4P//3z8AAADg///fPwAAAOD//98/AAAA4P//3z8AAADg///fPwAAAOD//98/AAAA4P//3z8AAADg
        ///fPwAAAOD//98/AAAA4P//3z8AAADg///fPwAAAOD//98/AAAA4P//3z8AAADg///fPwAAAOD//98/AAAA4P//3z8AAADg///fPwAAAOD//98/AAAA4P//3z8AAADg
        ///fPwAAAOD//98/AAAA4P//3z8AAADg///fPwAAAOD//98/AAAA4P//3z8AAADg///fPwAAAOD//98/AAAA4P//3z8AAADg///fPwAAAOD//98/AAAA4P//3z8AAADg
        ///fPwAAAOD//98/AAAA4P//3z8AAADg///fPwAAAOD//98/AAAA4P//3z8AAADg///fPwAAAOD//98/AAAA4P//3z8AAADg///fPwAAAOD//98/AAAA4P//3z8AAADg
        ///fPwAAAOD//98/AAAA4P//3z8AAADg///fPwAAAOD//98/AAAA4P//3z8AAADg///fPwAAAOD//98/AAAA4P//3z8AAADg///fPwAAAOD//98/AAAA4P//3z8AAADg
        ///fPwAAAOD//98/AAAA4P//3z8AAADg///fPwAAAOD//98/AAAA4P//3z8AAADg///fPwAAAOD//98/AAAA4P//3z8AAADg///fPwAAAOD//98/AAAA4P//3z8AAADg
        ///fPwAAAOD//98/AAAA4P//3z8AAADg///fPwAAAOD//98/AAAA4P//3z8AAADg///fPwAAAOD//98/AAAA4P//3z8AAADg///fPwAAAOD//98/AAAA4P//3z8AAADg
        ///fPwAAAOD//98/AAAA4P//3z8AAADg///fPwAAAOD//98/AAAA4P//3z8AAADg///fPwAAAOD//98/AAAA4P//3z8AAADg///fPwAAAOD//98/AAAA4P//3z8AAADg
        ///fPwAAAOD//98/AAAA4P//3z8AAADg///fPwAAAOD//98/AAAA4P//3z8AAADg///fPwAAAOD//98/AAAA4P//3z8AAADg///fPwAAAOD//98/AAAA4P//3z8AAADg
        ///fPwAAAOD//98/AAAA4P//3z8AAADg///fPwAAAOD//98/AAAA4P//3z8AAADg///fPwAAAOD//98/AAAA4P//3z8AAADg///fPwAAAOD//98/AAAA4P//3z8AAADg
        ///fPwAAAOD//98/AAAA4P//3z8AAADg///fPwAAAOD//98/AAAA4P//3z8AAADg///fPwAAAOD//98/AAAA4P//3z8AAADg///fPwAAAOD//98/AAAA4P//3z8AAADg
        ///fPwAAAOD//98/AAAA4P//3z8AAADg///fPwAAAOD//98/AAAA4P//3z8AAADg///fPwAAAOD//98/AAAA4P//3z8AAADg///fPwAAAOD//98/AAAA4P//3z8AAADg
        ///fPwAAAOD//98/AAAA4P//3z8AAADg///fPwAAAOD//98/AAAA4P//3z8AAADg///fPwAAAOD//98/AAAA4P//3z8AAADg///fPwAAAOD//98/AAAA4P//3z8AAADg
        ///fPwAAAOD//98/AAAA4P//3z8AAADg///fPwAAAOD//98/AAAA4P//3z8AAADg///fPwAAAOD//98/AAAA4P//3z8AAADg///fPwAAAOD//98/AAAA4P//3z8AAADg
        ///fPwAAAOD//98/AAAA4P//3z8AAADg///fPwAAAOD//98/AAAA4P//3z8AAADg///fPwAAAOD//98/AAAA4P//3z8AAADg///fPwAAAOD//98/AAAA4P//3z8AAADg
        ///fPwAAAOD//98/AAAA4P//3z8AAADg///fPwAAAOD//98/AAAA4P//3z8AAADg///fPwAAAOD//98/AAAA4P//3z8AAADg///fPwAAAOD//98/AAAA4P//3z8AAADg
        ///fPwAAAOD//98/AAAA4P//3z8AAADg///fPwAAAOD//98/AAAA4P//3z8AAADg///fPwAAAOD//98/AAAA4P//3z8AAADg///fPwAAAOD//98/AAAA4P//3z8AAADg
        ///fPwAAAOD//98/AAAA4P//3z8AAADg///fPwAAAOD//98/AAAA4P//3z8AAADg///fPwAAAOD//98/AAAA4P//3z8AAADg///fPwAAAOD//98/AAAA4P//3z8AAADg
        ///fPwAAAOD//98/AAAA4P//3z8AAADg///fPwAAAOD//98/AAAA4P//3z8AAADg///fPwAAAOD//98/AAAA4P//3z8AAADg///fPwAAAOD//98/AAAA4P//3z8AAADg
        ///fPwAAAOD//98/AAAA4P//3z8AAADg///fPwAAAOD//98/AAAA4P//3z8AAADg///fPwAAAOD//98/AAAA4P//3z8AAADg///fPwAAAOD//98/AAAA4P//3z8AAADg
        ///fPwAAAOD//98/AAAA4P//3z8AAADg///fPwAAAOD//98/AAAA4P//3z8AAADg///fPwAAAOD//98/AAAA4P//3z8AAADg///fPwAAAOD//98/AAAA4P//3z8AAADg
        ///fPwAAAOD//98/AAAA4P//3z8AAADg///fPwAAAOD//98/AAAA4P//3z8AAADg///fPwAAAOD//98/AAAA4P//3z8AAADg///fPwAAAOD//98/AAAA4P//3z8AAADg
        ///fPwAAAOD//98/AAAA4P//3z8AAADg///fPwAAAOD//98/AAAA4P//3z8AAADg///fPwAAAOD//98/AAAA4P//3z8AAADg///fPwAAAOD//98/AAAA4P//3z8AAADg
        ///fPwAAAOD//98/AAAA4P//3z8AAADg///fPwAAAOD//98/AAAA4P//3z8AAADg///fPwAAAOD//98/AAAAAAAAAAAAAAAAAGBoQAAAAAAAYGhAAAAAAABAeEAAAAAA
        AEB4QAAAAAAAQHhAAAAAAABAeEAAAAAAAEB4QAAAAAAAQHhAAAAAAABAeEAAAAAAAEB4QAAAAAAAQHhAAAAAAABAeEAAAAAAAEB4QAAAAAAAQHhAAAAAAABAeEAAAAAA
        AEB4QAAAAAAAQHhAAAAAAABAeEAAAAAAAEB4QAAAAAAAQHhAAAAAAABAeEAAAAAAAEB4QAAAAAAAQHhAAAAAAABAeEAAAAAAAEB4QAAAAAAAQHhAAAAAAABAeEAAAAAA
        AEB4QAAAAAAAQHhAAAAAAABAeEAAAAAAAEB4QAAAAAAAQHhAAAAAAABAeEAAAAAAAEB4QAAAAAAAQHhAAAAAAABAeEAAAAAAAEB4QAAAAAAAQHhAAAAAAABAeEAAAAAA
        AEB4QAAAAAAAQHhAAAAAAABAeEAAAAAAAEB4QAAAAAAAQHhAAAAAAABAeEAAAAAAAEB4QAAAAAAAQHhAAAAAAABAeEAAAAAAAEB4QAAAAAAAQHhAAAAAAABAeEAAAAAA
        AEB4QAAAAAAAQHhAAAAAAABAeEAAAAAAAEB4QAAAAAAAQHhAAAAAAABAeEAAAAAAAEB4QAAAAAAAQHhAAAAAAABAeEAAAAAAAEB4QAAAAAAAQHhAAAAAAABAeEAAAAAA
        AAAAAAAAAAAAQGhAAAAAAABAeEAAAAAAAEB4QAAAAAAAQHhAAAAAAABAeEAAAAAAAEB4QAAAAAAAQHhAAAAAAABAeEAAAAAAAEB4QAAAAAAAQHhAAAAAAABAeEAAAAAA
        AEB4QAAAAAAAQHhAAAAAAABAeEAAAAAAAEB4QAAAAAAAQHhAAAAAAABAeEAAAAAAAEB4QAAAAAAAQHhAAAAAAABAeEAAAAAAAEB4QAAAAAAAQHhAAAAAAABAeEAAAAAA
        AEB4QAAAAAAAQHhAAAAAAABAeEAAAAAAAEB4QAAAAAAAQHhAAAAAAABAeEAAAAAAAEB4QAAAAAAAQHhAAAAAAABAeEAAAAAAAEB4QAAAAAAAQHhAAAAAAABAeEAAAAAA
        AEB4QAAAAAAAQHhAAAAAAABAeEAAAAAAAEB4QAAAAAAAQHhAAAAAAABAeEAAAAAAAEB4QAAAAAAAQHhAAAAAAABAeEAAAAAAAEB4QAAAAAAAQHhAAAAAAABAeEAAAAAA
        AEB4QAAAAAAAQHhAAAAAAABAeEAAAAAAAEB4QAAAAAAAQHhAAAAAAABAeEAAAAAAAEB4QAAAAAAAQHhAAAAAAABAeEAAAAAAAEB4QAAAAAAAQHhAAAAAAABAeEAAAAAA
        AEB4QAAAAAAAQHhAAAAAAABAeEAAAAAAAEB4QAAAAAAAAAAAAAAAAABAaEAAAAAAAEB4QAAAAAAAQHhAAAAAAABAeEAAAAAAAEB4QAAAAAAAQHhAAAAAAABAeEAAAAAA
        AEB4QAAAAAAAQHhAAAAAAABAeEAAAAAAAEB4QAAAAAAAQHhAAAAAAABAeEAAAAAAAEB4QAAAAAAAQHhAAAAAAABAeEAAAAAAAEB4QAAAAAAAQHhAAAAAAABAeEAAAAAA
        AEB4QAAAAAAAQHhAAAAAAABAeEAAAAAAAEB4QAAAAAAAQHhAAAAAAABAeEAAAAAAAEB4QAAAAAAAQHhAAAAAAABAeEAAAAAAAEB4QAAAAAAAQHhAAAAAAABAeEAAAAAA
        AEB4QAAAAAAAQHhAAAAAAABAeEAAAAAAAEB4QAAAAAAAQHhAAAAAAABAeEAAAAAAAEB4QAAAAAAAQHhAAAAAAABAeEAAAAAAAEB4QAAAAAAAQHhAAAAAAABAeEAAAAAA
        AEB4QAAAAAAAQHhAAAAAAABAeEAAAAAAAEB4QAAAAAAAQHhAAAAAAABAeEAAAAAAAEB4QAAAAAAAQHhAAAAAAABAeEAAAAAAAEB4QAAAAAAAQHhAAAAAAABAeEAAAAAA
        AEB4QAAAAAAAQHhAAAAAAABAeEAAAAAAAEB4QAAAAAAAQHhAAAAAAABAeEAAAAAAAEB4QAAAAAAAQHhAAAAAAAAAAAAAAAAAAEBoQAAAAAAAQHhAAAAAAABAeEAAAAAA
        AEB4QAAAAAAAQHhAAAAAAABAeEAAAAAAAEB4QAAAAAAAQHhAAAAAAABAeEAAAAAAAEB4QAAAAAAAQHhAAAAAAABAeEAAAAAAAEB4QAAAAAAAQHhAAAAAAABAeEAAAAAA
        AEB4QAAAAAAAQHhAAAAAAABAeEAAAAAAAEB4QAAAAAAAQHhAAAAAAABAeEAAAAAAAEB4QAAAAAAAQHhAAAAAAABAeEAAAAAAAEB4QAAAAAAAQHhAAAAAAABAeEAAAAAA
        AEB4QAAAAAAAQHhAAAAAAABAeEAAAAAAAEB4QAAAAAAAQHhAAAAAAABAeEAAAAAAAEB4QAAAAAAAQHhAAAAAAABAeEAAAAAAAEB4QAAAAAAAQHhAAAAAAABAeEAAAAAA
        AEB4QAAAAAAAQHhAAAAAAABAeEAAAAAAAEB4QAAAAAAAQHhAAAAAAABAeEAAAAAAAEB4QAAAAAAAQHhAAAAAAABAeEAAAAAAAEB4QAAAAAAAQHhAAAAAAABAeEAAAAAA
        AEB4QAAAAAAAQHhAAAAAAABAeEAAAAAAAEB4QAAAAAAAQHhAAAAAAABAeEAAAAAAAEB4QAAAAAAAQHhAAAAAAABAeEAAAAAAAEB4QAAAAAAAQHhAAAAAAABAeEAAAAAA
        AAAAAAAAAAAAQGhAAAAAAABAeEAAAAAAAEB4QAAAAAAAQHhAAAAAAABAeEAAAAAAAEB4QAAAAAAAQHhAAAAAAABAeEAAAAAAAEB4QAAAAAAAQHhAAAAAAABAeEAAAAAA
        AEB4QAAAAAAAQHhAAAAAAABAeEAAAAAAAEB4QAAAAAAAQHhAAAAAAABAeEAAAAAAAEB4QAAAAAAAQHhAAAAAAABAeEAAAAAAAEB4QAAAAAAAQHhAAAAAAABAeEAAAAAA
        AEB4QAAAAAAAQHhAAAAAAABAeEAAAAAAAEB4QAAAAAAAQHhAAAAAAABAeEAAAAAAAEB4QAAAAAAAQHhAAAAAAABAeEAAAAAAAEB4QAAAAAAAQHhAAAAAAABAeEAAAAAA
        AEB4QAAAAAAAQHhAAAAAAABAeEAAAAAAAEB4QAAAAAAAQHhAAAAAAABAeEAAAAAAAEB4QAAAAAAAQHhAAAAAAABAeEAAAAAAAEB4QAAAAAAAQHhAAAAAAABAeEAAAAAA
        AEB4QAAAAAAAQHhAAAAAAABAeEAAAAAAAEB4QAAAAAAAQHhAAAAAAABAeEAAAAAAAEB4QAAAAAAAQHhAAAAAAABAeEAAAAAAAEB4QAAAAAAAQHhAAAAAAABAeEAAAAAA
        AEB4QAAAAAAAQHhAAAAAAABAeEAAAAAAAEB4QAAAAAAAAAAAAAAAAABAaEAAAAAAAEB4QAAAAAAAQHhAAAAAAABAeEAAAAAAAEB4QAAAAAAAQHhAAAAAAABAeEAAAAAA
        AEB4QAAAAAAAQHhAAAAAAABAeEAAAAAAAEB4QAAAAAAAQHhAAAAAAABAeEAAAAAAAEB4QAAAAAAAQHhAAAAAAABAeEAAAAAAAEB4QAAAAAAAQHhAAAAAAABAeEAAAAAA
        AEB4QAAAAAAAQHhAAAAAAABAeEAAAAAAAEB4QAAAAAAAQHhAAAAAAABAeEAAAAAAAEB4QAAAAAAAQHhAAAAAAABAeEAAAAAAAEB4QAAAAAAAQHhAAAAAAABAeEAAAAAA
        AEB4QAAAAAAAQHhAAAAAAABAeEAAAAAAAEB4QAAAAAAAQHhAAAAAAABAeEAAAAAAAEB4QAAAAAAAQHhAAAAAAABAeEAAAAAAAEB4QAAAAAAAQHhAAAAAAABAeEAAAAAA
        AEB4QAAAAAAAQHhAAAAAAABAeEAAAAAAAEB4QAAAAAAAQHhAAAAAAABAeEAAAAAAAEB4QAAAAAAAQHhAAAAAAABAeEAAAAAAAEB4QAAAAAAAQHhAAAAAAABAeEAAAAAA
        AEB4QAAAAAAAQHhAAAAAAABAeEAAAAAAAEB4QAAAAAAAQHhAAAAAAABAeEAAAAAAAEB4QAAAAAAAQHhAAAAAAAAAAAAAAAAAAEBoQAAAAAAAQHhAAAAAAABAeEAAAAAA
        AEB4QAAAAAAAQHhAAAAAAABAeEAAAAAAAEB4QAAAAAAAQHhAAAAAAABAeEAAAAAAAEB4QAAAAAAAQHhAAAAAAABAeEAAAAAAAEB4QAAAAAAAQHhAAAAAAABAeEAAAAAA
        AEB4QAAAAAAAQHhAAAAAAABAeEAAAAAAAEB4QAAAAAAAQHhAAAAAAABAeEAAAAAAAEB4QAAAAAAAQHhAAAAAAABAeEAAAAAAAEB4QAAAAAAAQHhAAAAAAABAeEAAAAAA
        AEB4QAAAAAAAQHhAAAAAAABAeEAAAAAAAEB4QAAAAAAAQHhAAAAAAABAeEAAAAAAAEB4QAAAAAAAQHhAAAAAAABAeEAAAAAAAEB4QAAAAAAAQHhAAAAAAABAeEAAAAAA
        AEB4QAAAAAAAQHhAAAAAAABAeEAAAAAAAEB4QAAAAAAAQHhAAAAAAABAeEAAAAAAAEB4QAAAAAAAQHhAAAAAAABAeEAAAAAAAEB4QAAAAAAAQHhAAAAAAABAeEAAAAAA
        AEB4QAAAAAAAQHhAAAAAAABAeEAAAAAAAEB4QAAAAAAAQHhAAAAAAABAeEAAAAAAAEB4QAAAAAAAQHhAAAAAAABAeEAAAAAAAEB4QAAAAAAAQHhAAAAAAABAeEAAAAAA
        AAAAAAAAAAAAQGhAAAAAAABAeEAAAAAAAEB4QAAAAAAAQHhAAAAAAABAeEAAAAAAAEB4QAAAAAAAQHhAAAAAAABAeEAAAAAAAEB4QAAAAAAAQHhAAAAAAABAeEAAAAAA
        AEB4QAAAAAAAQHhAAAAAAABAeEAAAAAAAEB4QAAAAAAAQHhAAAAAAABAeEAAAAAAAEB4QAAAAAAAQHhAAAAAAABAeEAAAAAAAEB4QAAAAAAAQHhAAAAAAABAeEAAAAAA
        AEB4QAAAAAAAQHhAAAAAAABAeEAAAAAAAEB4QAAAAAAAQHhAAAAAAABAeEAAAAAAAEB4QAAAAAAAQHhAAAAAAABAeEAAAAAAAEB4QAAAAAAAQHhAAAAAAABAeEAAAAAA
        AEB4QAAAAAAAQHhAAAAAAABAeEAAAAAAAEB4QAAAAAAAQHhAAAAAAABAeEAAAAAAAEB4QAAAAAAAQHhAAAAAAABAeEAAAAAAAEB4QAAAAAAAQHhAAAAAAABAeEAAAAAA
        AEB4QAAAAAAAQHhAAAAAAABAeEAAAAAAAEB4QAAAAAAAQHhAAAAAAABAeEAAAAAAAEB4QAAAAAAAQHhAAAAAAABAeEAAAAAAAEB4QAAAAAAAQHhAAAAAAABAeEAAAAAA
        AEB4QAAAAAAAQHhAAAAAAABAeEAAAAAAAEB4QAAAAAAAAAAAAAAAAABAaEAAAAAAAEB4QAAAAAAAQHhAAAAAAABAeEAAAAAAAEB4QAAAAAAAQHhAAAAAAABAeEAAAAAA
        AEB4QAAAAAAAQHhAAAAAAABAeEAAAAAAAEB4QAAAAAAAQHhAAAAAAABAeEAAAAAAAEB4QAAAAAAAQHhAAAAAAABAeEAAAAAAAEB4QAAAAAAAQHhAAAAAAABAeEAAAAAA
        AEB4QAAAAAAAQHhAAAAAAABAeEAAAAAAAEB4QAAAAAAAQHhAAAAAAABAeEAAAAAAAEB4QAAAAAAAQHhAAAAAAABAeEAAAAAAAEB4QAAAAAAAQHhAAAAAAABAeEAAAAAA
        AEB4QAAAAAAAQHhAAAAAAABAeEAAAAAAAEB4QAAAAAAAQHhAAAAAAABAeEAAAAAAAEB4QAAAAAAAQHhAAAAAAABAeEAAAAAAAEB4QAAAAAAAQHhAAAAAAABAeEAAAAAA
        AEB4QAAAAAAAQHhAAAAAAABAeEAAAAAAAEB4QAAAAAAAQHhAAAAAAABAeEAAAAAAAEB4QAAAAAAAQHhAAAAAAABAeEAAAAAAAEB4QAAAAAAAQHhAAAAAAABAeEAAAAAA
        AEB4QAAAAAAAQHhAAAAAAABAeEAAAAAAAEB4QAAAAAAAQHhAAAAAAABAeEAAAAAAAEB4QAAAAAAAQHhAAAAAAAAAAAAAAAAAAEBoQAAAAAAAQHhAAAAAAABAeEAAAAAA
        AEB4QAAAAAAAQHhAAAAAAABAeEAAAAAAAEB4QAAAAAAAQHhAAAAAAABAeEAAAAAAAEB4QAAAAAAAQHhAAAAAAABAeEAAAAAAAEB4QAAAAAAAQHhAAAAAAABAeEAAAAAA
        AEB4QAAAAAAAQHhAAAAAAABAeEAAAAAAAEB4QAAAAAAAQHhAAAAAAABAeEAAAAAAAEB4QAAAAAAAQHhAAAAAAABAeEAAAAAAAEB4QAAAAAAAQHhAAAAAAABAeEAAAAAA
        AEB4QAAAAAAAQHhAAAAAAABAeEAAAAAAAEB4QAAAAAAAQHhAAAAAAABAeEAAAAAAAEB4QAAAAAAAQHhAAAAAAABAeEAAAAAAAEB4QAAAAAAAQHhAAAAAAABAeEAAAAAA
        AEB4QAAAAAAAQHhAAAAAAABAeEAAAAAAAEB4QAAAAAAAQHhAAAAAAABAeEAAAAAAAEB4QAAAAAAAQHhAAAAAAABAeEAAAAAAAEB4QAAAAAAAQHhAAAAAAABAeEAAAAAA
        AEB4QAAAAAAAQHhAAAAAAABAeEAAAAAAAEB4QAAAAAAAQHhAAAAAAABAeEAAAAAAAEB4QAAAAAAAQHhAAAAAAABAeEAAAAAAAEB4QAAAAAAAQHhAAAAAAABAeEAAAAAA
        AAAAAAAAAAAAQGhAAAAAAABAeEAAAAAAAEB4QAAAAAAAQHhAAAAAAABAeEAAAAAAAEB4QAAAAAAAQHhAAAAAAABAeEAAAAAAAEB4QAAAAAAAQHhAAAAAAABAeEAAAAAA
        AEB4QAAAAAAAQHhAAAAAAABAeEAAAAAAAEB4QAAAAAAAQHhAAAAAAABAeEAAAAAAAEB4QAAAAAAAQHhAAAAAAABAeEAAAAAAAEB4QAAAAAAAQHhAAAAAAABAeEAAAAAA
        AEB4QAAAAAAAQHhAAAAAAABAeEAAAAAAAEB4QAAAAAAAQHhAAAAAAABAeEAAAAAAAEB4QAAAAAAAQHhAAAAAAABAeEAAAAAAAEB4QAAAAAAAQHhAAAAAAABAeEAAAAAA
        AEB4QAAAAAAAQHhAAAAAAABAeEAAAAAAAEB4QAAAAAAAQHhAAAAAAABAeEAAAAAAAEB4QAAAAAAAQHhAAAAAAABAeEAAAAAAAEB4QAAAAAAAQHhAAAAAAABAeEAAAAAA
        AEB4QAAAAAAAQHhAAAAAAABAeEAAAAAAAEB4QAAAAAAAQHhAAAAAAABAeEAAAAAAAEB4QAAAAAAAQHhAAAAAAABAeEAAAAAAAEB4QAAAAAAAQHhAAAAAAABAeEAAAAAA
        AEB4QAAAAAAAQHhAAAAAAABAeEAAAAAAAEB4QAAAAAAAAAAAAAAAAABAaEAAAAAAAEB4QAAAAAAAQHhAAAAAAABAeEAAAAAAAEB4QAAAAAAAQHhAAAAAAABAeEAAAAAA
        AEB4QAAAAAAAQHhAAAAAAABAeEAAAAAAAEB4QAAAAAAAQHhAAAAAAABAeEAAAAAAAEB4QAAAAAAAQHhAAAAAAABAeEAAAAAAAEB4QAAAAAAAQHhAAAAAAABAeEAAAAAA
        AEB4QAAAAAAAQHhAAAAAAABAeEAAAAAAAEB4QAAAAAAAQHhAAAAAAABAeEAAAAAAAEB4QAAAAAAAQHhAAAAAAABAeEAAAAAAAEB4QAAAAAAAQHhAAAAAAABAeEAAAAAA
        AEB4QAAAAAAAQHhAAAAAAABAeEAAAAAAAEB4QAAAAAAAQHhAAAAAAABAeEAAAAAAAEB4QAAAAAAAQHhAAAAAAABAeEAAAAAAAEB4QAAAAAAAQHhAAAAAAABAeEAAAAAA
        AEB4QAAAAAAAQHhAAAAAAABAeEAAAAAAAEB4QAAAAAAAQHhAAAAAAABAeEAAAAAAAEB4QAAAAAAAQHhAAAAAAABAeEAAAAAAAEB4QAAAAAAAQHhAAAAAAABAeEAAAAAA
        AEB4QAAAAAAAQHhAAAAAAABAeEAAAAAAAEB4QAAAAAAAQHhAAAAAAABAeEAAAAAAAEB4QAAAAAAAQHhAAAAAAAAAAAAAAAAAAAAAAAAAAAAAAG5AAAAAAAAAbkAAAAAA
        AAAAAAAAAAAAAAAAAAAAAAAAAAAAAAAAAAAAAAAAAAAAAAAAAAAAAAAAAAAAAAAAAAAAAAAAAAAAAAAAAAAAAAAAAAAAAAAAAAAAAAAAAAAAAAAAAAAAAAAAAAAAAAAA
        AAAAAAAAAAAAAAAAAAAAAAAAAAAAAAAAAAAAAAAAAAAAAAAAAAAAAAAAAAAAAAAAAAAAAAAAAAAAAAAAAAAAAAAAAAAAAAAAAAAAAAAAAAAAAAAAAAAAAAAAAAAAAAAA
        AAAAAAAAAAAAAAAAAAAAAAAAAAAAAAAAAAAAAAAAAAAAAAAAAAAAAAAAAAAAAAAAAAAAAAAAAAAAAAAAAAAAAAAAAAAAAAAAAAAAAAAAAAAAAAAAAAAAAAAAAAAAAAAA
        AAAAAAAAAAAAAAAAAAAAAAAAAAAAAAAAAAAAAAAAAAAAAAAAAAAAAAAAAAAAAAAAAAAAAAAAAAAAAAAAAAAAAAAAAAAAAAAAAAAAAAAAAAAAAAAAAAAAAAAAAAAAAAAA
        AAAAAAAAAAAAAAAAAAAAAAAAAAAAAAAAAAAAAAAAAAAAAAAAAAAAAAAAAAAAAAAAAAAAAAAAAAAAAAAAAAAAAAAAAAAAAAAAAAAAAAAAAAAAAAAAAAAAAAAAAAAAAAAA
        AAAAAAAAAAAAAF5AAAAAAAAAAAAAAAAAAAAAAAAAAAAAAAAAAAAAAAAAAAAAAAAAAAAAAAAAAAAAAAAAAAAAAAAAAAAAAAAAAAAAAAAAAAAAAAAAAAAAAAAAAAAAAAAA
        AAAAAAAAAAAAAAAAAAAAAAAAAAAAAAAAAAAAAAAAAAAAAAAAAAAAAAAAAAAAAAAAAAAAAAAAAAAAAAAAAAAAAAAAAAAAAAAAAAAAAAAAAAAAAAAAAAAAAAAAAAAAAAAA
        AAAAAAAAAAAAAAAAAAAAAAAAAAAAAAAAAAAAAAAAAAAAAAAAAAAAAAAAAAAAAAAAAAAAAAAAAAAAAAAAAAAAAAAAAAAAAAAAAAAAAAAAAAAAAAAAAAAAAAAAAAAAAAAA
        AAAAAAAAAAAAAAAAAAAAAAAAAAAAAAAAAAAAAAAAAAAAAAAAAAAAAAAAAAAAAAAAAAAAAAAAAAAAAAAAAAAAAAAAAAAAAAAAAAAAAAAAAAAAAAAAAAAAAAAAAAAAAAAA
        AAAAAAAAAAAAAAAAAAAAAAAAAAAAAAAAAAAAAAAAAAAAAAAAAAAAAAAAAAAAAAAAAAAAAAAAAAAAAAAAAAAAAAAAAAAAAAAAAAAAAAAAAAAAAAAAAAAAAAAAAAAAAAAA
        AAAAAAAAAAAAAAAAAAAAAAAAAAAAAAAAAAAAAAAAAAAAAAAAAAAAAAAAXkAAAAAAAAAAAAAAAAAAAAAAAAAAAAAAAAAAAAAAAAAAAAAAAAAAAAAAAAAAAAAAAAAAAAAA
        AAAAAAAAAAAAAAAAAAAAAAAAAAAAAAAAAAAAAAAAAAAAAAAAAAAAAAAAAAAAAAAAAAAAAAAAAAAAAAAAAAAAAAAAAAAAAAAAAAAAAAAAAAAAAAAAAAAAAAAAAAAAAAAA
        AAAAAAAAAAAAAAAAAAAAAAAAAAAAAAAAAAAAAAAAAAAAAAAAAAAAAAAAAAAAAAAAAAAAAAAAAAAAAAAAAAAAAAAAAAAAAAAAAAAAAAAAAAAAAAAAAAAAAAAAAAAAAAAA
        AAAAAAAAAAAAAAAAAAAAAAAAAAAAAAAAAAAAAAAAAAAAAAAAAAAAAAAAAAAAAAAAAAAAAAAAAAAAAAAAAAAAAAAAAAAAAAAAAAAAAAAAAAAAAAAAAAAAAAAAAAAAAAAA
        AAAAAAAAAAAAAAAAAAAAAAAAAAAAAAAAAAAAAAAAAAAAAAAAAAAAAAAAAAAAAAAAAAAAAAAAAAAAAAAAAAAAAAAAAAAAAAAAAAAAAAAAAAAAAAAAAAAAAAAAAAAAAAAA
        AAAAAAAAAAAAAAAAAAAAAAAAAAAAAAAAAAAAAAAAAAAAAAAAAAAAAAAAAAAAAAAAAAAAAAAAAAAAAAAAAAAAAAAAAAAAAAAAAABeQAAAAAAAAAAAAAAAAAAAAAAAAAAA
        AAAAAAAAAAAAAAAAAAAAAAAAAAAAAAAAAAAAAAAAAAAAAAAAAAAAAAAAAAAAAAAAAAAAAAAAAAAAAAAAAAAAAAAAAAAAAAAAAAAAAAAAAAAAAAAAAAAAAAAAAAAAAAAA
        AAAAAAAAAAAAAAAAAAAAAAAAAAAAAAAAAAAAAAAAAAAAAAAAAAAAAAAAAAAAAAAAAAAAAAAAAAAAAAAAAAAAAAAAAAAAAAAAAAAAAAAAAAAAAAAAAAAAAAAAAAAAAAAA
        AAAAAAAAAAAAAAAAAAAAAAAAAAAAAAAAAAAAAAAAAAAAAAAAAAAAAAAAAAAAAAAAAAAAAAAAAAAAAAAAAAAAAAAAAAAAAAAAAAAAAAAAAAAAAAAAAAAAAAAAAAAAAAAA
        AAAAAAAAAAAAAAAAAAAAAAAAAAAAAAAAAAAAAAAAAAAAAAAAAAAAAAAAAAAAAAAAAAAAAAAAAAAAAAAAAAAAAAAAAAAAAAAAAAAAAAAAAAAAAAAAAAAAAAAAAAAAAAAA
        AAAAAAAAAAAAAAAAAAAAAAAAAAAAAAAAAAAAAAAAAAAAAAAAAAAAAAAAAAAAAAAAAAAAAAAAAAAAAAAAAAAAAAAAAAAAAAAAAAAAAAAAAAAAAAAAAAAAAAAAAAAAAAAA
        AAAAAAAAAAAAAF5AAAAAAAAAAAAAAAAAAAAAAAAAAAAAAAAAAAAAAAAAAAAAAAAAAAAAAAAAAAAAAAAAAAAAAAAAAAAAAAAAAAAAAAAAAAAAAAAAAAAAAAAAAAAAAAAA
        AAAAAAAAAAAAAAAAAAAAAAAAAAAAAAAAAAAAAAAAAAAAAAAAAAAAAAAAAAAAAAAAAAAAAAAAAAAAAAAAAAAAAAAAAAAAAAAAAAAAAAAAAAAAAAAAAAAAAAAAAAAAAAAA
        AAAAAAAAAAAAAAAAAAAAAAAAAAAAAAAAAAAAAAAAAAAAAAAAAAAAAAAAAAAAAAAAAAAAAAAAAAAAAAAAAAAAAAAAAAAAAAAAAAAAAAAAAAAAAAAAAAAAAAAAAAAAAAAA
        AAAAAAAAAAAAAAAAAAAAAAAAAAAAAAAAAAAAAAAAAAAAAAAAAAAAAAAAAAAAAAAAAAAAAAAAAAAAAAAAAAAAAAAAAAAAAAAAAAAAAAAAAAAAAAAAAAAAAAAAAAAAAAAA
        AAAAAAAAAAAAAAAAAAAAAAAAAAAAAAAAAAAAAAAAAAAAAAAAAAAAAAAAAAAAAAAAAAAAAAAAAAAAAAAAAAAAAAAAAAAAAAAAAAAAAAAAAAAAAAAAAAAAAAAAAAAAAAAA
        AAAAAAAAAAAAAAAAAAAAAAAAAAAAAAAAAAAAAAAAAAAAAAAAAAAAAAAAXkAAAAAAAAAAAAAAAAAAAAAAAAAAAAAAAAAAAAAAAAAAAAAAAAAAAAAAAAAAAAAAAAAAAAAA
        AAAAAAAAAAAAAAAAAAAAAAAAAAAAAAAAAAAAAAAAAAAAAAAAAAAAAAAAAAAAAAAAAAAAAAAAAAAAAAAAAAAAAAAAAAAAAAAAAAAAAAAAAAAAAAAAAAAAAAAAAAAAAAAA
        AAAAAAAAAAAAAAAAAAAAAAAAAAAAAAAAAAAAAAAAAAAAAAAAAAAAAAAAAAAAAAAAAAAAAAAAAAAAAAAAAAAAAAAAAAAAAAAAAAAAAAAAAAAAAAAAAAAAAAAAAAAAAAAA
        AAAAAAAAAAAAAAAAAAAAAAAAAAAAAAAAAAAAAAAAAAAAAAAAAAAAAAAAAAAAAAAAAAAAAAAAAAAAAAAAAAAAAAAAAAAAAAAAAAAAAAAAAAAAAAAAAAAAAAAAAAAAAAAA
        AAAAAAAAAAAAAAAAAAAAAAAAAAAAAAAAAAAAAAAAAAAAAAAAAAAAAAAAAAAAAAAAAAAAAAAAAAAAAAAAAAAAAAAAAAAAAAAAAAAAAAAAAAAAAAAAAAAAAAAAAAAAAAAA
        AAAAAAAAAAAAAAAAAAAAAAAAAAAAAAAAAAAAAAAAAAAAAAAAAAAAAAAAAAAAAAAAAAAAAAAAAAAAAAAAAAAAAAAAAAAAAAAAAABeQAAAAAAAAAAAAAAAAAAAAAAAAAAA
        AAAAAAAAAAAAAAAAAAAAAAAAAAAAAAAAAAAAAAAAAAAAAAAAAAAAAAAAAAAAAAAAAAAAAAAAAAAAAAAAAAAAAAAAAAAAAAAAAAAAAAAAAAAAAAAAAAAAAAAAAAAAAAAA
        AAAAAAAAAAAAAAAAAAAAAAAAAAAAAAAAAAAAAAAAAAAAAAAAAAAAAAAAAAAAAAAAAAAAAAAAAAAAAAAAAAAAAAAAAAAAAAAAAAAAAAAAAAAAAAAAAAAAAAAAAAAAAAAA
        AAAAAAAAAAAAAAAAAAAAAAAAAAAAAAAAAAAAAAAAAAAAAAAAAAAAAAAAAAAAAAAAAAAAAAAAAAAAAAAAAAAAAAAAAAAAAAAAAAAAAAAAAAAAAAAAAAAAAAAAAAAAAAAA
        AAAAAAAAAAAAAAAAAAAAAAAAAAAAAAAAAAAAAAAAAAAAAAAAAAAAAAAAAAAAAAAAAAAAAAAAAAAAAAAAAAAAAAAAAAAAAAAAAAAAAAAAAAAAAAAAAAAAAAAAAAAAAAAA
        AAAAAAAAAAAAAAAAAAAAAAAAAAAAAAAAAAAAAAAAAAAAAAAAAAAAAAAAAAAAAAAAAAAAAAAAAAAAAAAAAAAAAAAAAAAAAAAAAAAAAAAAAAAAAAAAAAAAAAAAAAAAAAAA
        AAAAAAAAAAAAAF5AAAAAAAAAAAAAAAAAAAAAAAAAAAAAAAAAAAAAAAAAAAAAAAAAAAAAAAAAAAAAAAAAAAAAAAAAAAAAAAAAAAAAAAAAAAAAAAAAAAAAAAAAAAAAAAAA
        AAAAAAAAAAAAAAAAAAAAAAAAAAAAAAAAAAAAAAAAAAAAAAAAAAAAAAAAAAAAAAAAAAAAAAAAAAAAAAAAAAAAAAAAAAAAAAAAAAAAAAAAAAAAAAAAAAAAAAAAAAAAAAAA
        AAAAAAAAAAAAAAAAAAAAAAAAAAAAAAAAAAAAAAAAAAAAAAAAAAAAAAAAAAAAAAAAAAAAAAAAAAAAAAAAAAAAAAAAAAAAAAAAAAAAAAAAAAAAAAAAAAAAAAAAAAAAAAAA
        AAAAAAAAAAAAAAAAAAAAAAAAAAAAAAAAAAAAAAAAAAAAAAAAAAAAAAAAAAAAAAAAAAAAAAAAAAAAAAAAAAAAAAAAAAAAAAAAAAAAAAAAAAAAAAAAAAAAAAAAAAAAAAAA
        AAAAAAAAAAAAAAAAAAAAAAAAAAAAAAAAAAAAAAAAAAAAAAAAAAAAAAAAAAAAAAAAAAAAAAAAAAAAAAAAAAAAAAAAAAAAAAAAAAAAAAAAAAAAAAAAAAAAAAAAAAAAAAAA
        AAAAAAAAAAAAAAAAAAAAAAAAAAAAAAAAAAAAAAAAAAAAAAAAAAAAAAAAXkAAAAAAAAAAAAAAAAAAAAAAAAAAAAAAAAAAAAAAAAAAAAAAAAAAAAAAAAAAAAAAAAAAAAAA
        AAAAAAAAAAAAAAAAAAAAAAAAAAAAAAAAAAAAAAAAAAAAAAAAAAAAAAAAAAAAAAAAAAAAAAAAAAAAAAAAAAAAAAAAAAAAAAAAAAAAAAAAAAAAAAAAAAAAAAAAAAAAAAAA
        AAAAAAAAAAAAAAAAAAAAAAAAAAAAAAAAAAAAAAAAAAAAAAAAAAAAAAAAAAAAAAAAAAAAAAAAAAAAAAAAAAAAAAAAAAAAAAAAAAAAAAAAAAAAAAAAAAAAAAAAAAAAAAAA
        AAAAAAAAAAAAAAAAAAAAAAAAAAAAAAAAAAAAAAAAAAAAAAAAAAAAAAAAAAAAAAAAAAAAAAAAAAAAAAAAAAAAAAAAAAAAAAAAAAAAAAAAAAAAAAAAAAAAAAAAAAAAAAAA
        AAAAAAAAAAAAAAAAAAAAAAAAAAAAAAAAAAAAAAAAAAAAAAAAAAAAAAAAAAAAAAAAAAAAAAAAAAAAAAAAAAAAAAAAAAAAAAAAAAAAAAAAAAAAAAAAAAAAAAAAAAAAAAAA
        AAAAAAAAAAAAAAAAAAAAAAAAAAAAAAAAAAAAAAAAAAAAAAAAAAAAAAAAAAAAAAAAAAAAAAAAAAAAAAAAAAAAAAAAAAAAAAAAAABeQAAAAAAAAAAAAAAAAAAAAAAAAAAA
        AAAAAAAAAAAAAAAAAAAAAAAAAAAAAAAAAAAAAAAAAAAAAAAAAAAAAAAAAAAAAAAAAAAAAAAAAAAAAAAAAAAAAAAAAAAAAAAAAAAAAAAAAAAAAAAAAAAAAAAAAAAAAAAA
        AAAAAAAAAAAAAAAAAAAAAAAAAAAAAAAAAAAAAAAAAAAAAAAAAAAAAAAAAAAAAAAAAAAAAAAAAAAAAAAAAAAAAAAAAAAAAAAAAAAAAAAAAAAAAAAAAAAAAAAAAAAAAAAA
        AAAAAAAAAAAAAAAAAAAAAAAAAAAAAAAAAAAAAAAAAAAAAAAAAAAAAAAAAAAAAAAAAAAAAAAAAAAAAAAAAAAAAAAAAAAAAAAAAAAAAAAAAAAAAAAAAAAAAAAAAAAAAAAA
        AAAAAAAAAAAAAAAAAAAAAAAAAAAAAAAAAAAAAAAAAAAAAAAAAAAAAAAAAAAAAAAAAAAAAAAAAAAAAAAAAAAAAAAAAAAAAAAAAAAAAAAAAAAAAAAAAAAAAAAAAAAAAAAA
        AAAAAAAAAAAAAAAAAAAAAAAAAAAAAAAAAAAAAAAAAAAAAAAAAAAAAAAAAAAAAAAAAAAAAAAAAAAAAAAAAAAAAAAAAAAAAAAAAAAAAAAAAAAAAAAAAAAAAAAAAAAAAAAA
        AAAAAAAAAAAAAF5AAAAAAAAAAAAAAAAAAAAAAAAAAAAAAAAAAAAAAAAAAAAAAAAAAAAAAAAAAAAAAAAAAAAAAAAAAAAAAAAAAAAAAAAAAAAAAAAAAAAAAAAAAAAAAAAA
        AAAAAAAAAAAAAAAAAAAAAAAAAAAAAAAAAAAAAAAAAAAAAAAAAAAAAAAAAAAAAAAAAAAAAAAAAAAAAAAAAAAAAAAAAAAAAAAAAAAAAAAAAAAAAAAAAAAAAAAAAAAAAAAA
        AAAAAAAAAAAAAAAAAAAAAAAAAAAAAAAAAAAAAAAAAAAAAAAAAAAAAAAAAAAAAAAAAAAAAAAAAAAAAAAAAAAAAAAAAAAAAAAAAAAAAAAAAAAAAAAAAAAAAAAAAAAAAAAA
        AAAAAAAAAAAAAAAAAAAAAAAAAAAAAAAAAAAAAAAAAAAAAAAAAAAAAAAAAAAAAAAAAAAAAAAAAAAAAAAAAAAAAAAAAAAAAAAAAAAAAAAAAAAAAAAAAAAAAAAAAAAAAAAA
        AAAAAAAAAAAAAAAAAAAAAAAAAAAAAAAAAAAAAAAAAAAAAAAAAAAAAAAAAAAAAAAAAAAAAAAAAAAAAAAAAAAAAAAAAAAAAAAAAAAAAAAAAAAAAAAAAAAAAAAAAAAAAAAA
        AAAAAAAAAAAAAAAAAAAAAAAAAAAAAAAAAAAAAAAAAAAAAAAAAAAAAAAAXkAAAAAAAAAAAAAAAAAAAAAAAAAAAAAAAAAAAAAAAAAAAAAAAAAAAAAAAAAAAAAAAAAAAAAA
        AAAAAAAAAAAAAAAAAAAAAAAAAAAAAAAAAAAAAAAAAAAAAAAAAAAAAAAAAAAAAAAAAAAAAAAAAAAAAAAAAAAAAAAAAAAAAAAAAAAAAAAAAAAAAAAAAAAAAAAAAAAAAAAA
        AAAAAAAAAAAAAAAAAAAAAAAAAAAAAAAAAAAAAAAAAAAAAAAAAAAAAAAAAAAAAAAAAAAAAAAAAAAAAAAAAAAAAAAAAAAAAAAAAAAAAAAAAAAAAAAAAAAAAAAAAAAAAAAA
        AAAAAAAAAAAAAAAAAAAAAAAAAAAAAAAAAAAAAAAAAAAAAAAAAAAAAAAAAAAAAAAAAAAAAAAAAAAAAAAAAAAAAAAAAAAAAAAAAAAAAAAAAAAAAAAAAAAAAAAAAAAAAAAA
        AAAAAAAAAAAAAAAAAAAAAAAAAAAAAAAAAAAAAAAAAAAAAAAAAAAAAAAAAAAAAAAAAAAAAAAAAAAAAAAAAAAAAAAAAAAAAAAAAAAAAAAAAAAAAAAAAAAAAAAAAAAAAAAA
        AAAAAAAAAAAAAAAAAAAAAAAAAAAAAAAAAAAAAAAAAAAAAAAAAAAAAAAAAAAAAAAAAAAAAAAAAAAAAAAAAQAAAAAAgD8AAIA/ABdrPwDYGj8AAAAAAAAAAAAAAAAAAAAA
        AAAAAAAAAAAAAAAAAAAAAO/u7j7v7u4+7+7uPu/u7j7v7u4+7+7uPu/u7j7v7u4+7+7uPu/u7j7v7u4+7+7uPgAAAADsURg/AAAAPwAAAD8AAIA/AAAAPwAAAD8AAAA/
        AwAAAAAAAAAAAIA/AAAAPwAAAAAAAAAAAAAAAAEBAAADAAAAAAAAAAAAAAAAAAAAAAAAAAAAAAAAAAAAAAAAAAAAAAAAAAAAAAAAAAAAAAAAAAAAAAAAAAAAAAAAAAAA
        AAAAAAAAAAAAAAAAAAAAAAAAAAAAAAAAAAAAAAAAAAAAAAAAAAAAAAAAAAAAAAAAAAAAAAAAAAAAAAAAAAAAAAAAAAAAAAAAAAAAAAAAAAAAAAA/AACAPwAAAAAAAAA/
        CtcjPAAAAAAAAAAAAAAAAIXrkT9mZuY+AAAAPwQCAgICAgICAgICAgAAAAABAAAAAAAAAAEAAAAAAAAAAERlZmF1bHRQcm9ncmFtICAAEAAAAA==
      >
      FLOATPOS 0 0 0 0
      FXID {6353352D-768D-47D6-9E90-D661783EE87A}
      WAK 0
      BYPASS 0 0
      <VST "VST: Classic Reverb (x86) (Kjaerhus Audio)" "Classic Reverb.dll" 0 ""
        djl6Nu9e7f4CAAAAAQAAAAAAAAACAAAAAAAAAAIAAAABAAAAAAAAAAIAAAAAAAAAKAAAAAAAAAACABAA776t3g3wrd7NzEw/mpmZPgAAAD+amZk+mpkZPwAAAD+amZk+
        AAAAP1NtYWxsIEhhbGwAU21hbGwgSGFsbAAQAAAA
      >
      FLOATPOS 0 0 0 0
      FXID {796E1FC5-775E-47CB-B2AE-77040DF04A47}
      WAK 0
    >
    <ITEM
      POSITION 5.33333333336333
      SNAPOFFS 0.00000000000000
      LENGTH 5.33333333333333
      LOOP 1
      ALLTAKES 0
      SEL 0
      FADEIN 1 0.000000 0.000000 1 0 0.000000
      FADEOUT 1 0.000000 0.000000 1 0 0.000000
      MUTE 0
      IGUID {4AE8D5A7-2C76-4FE5-8C73-371AE6CEFA26}
      IID 48
      NAME "DMG Pulse untitled MIDI item"
      VOLPAN 1.000000 0.000000 1.000000 -1.000000
      SOFFS 0.00000000000000 0.00000000000000
      PLAYRATE 1.00000000000000 1 0.00000000000000 -1 0 0.002500
      CHANMODE 0
      GUID {D208010B-A794-47F1-A0E2-0D4ABA1BF6B8}
      <SOURCE MIDI
        HASDATA 1 960 QN
        POOLEDEVTS {52AA36A0-C60B-4BBD-B9D3-D5F3DD2BD20B}
        E 0 90 4c 7f
        E 3840 80 4c 00
        E 0 90 4e 7f
        E 3840 80 4e 00
        E 0 90 4f 7f
        E 3840 80 4f 00
        E 0 90 51 7f
        E 2880 e0 2f 3f
        E 30 e0 00 40
        E 30 e0 52 3b
        E 30 e0 75 37
        E 30 e0 16 35
        E 30 e0 79 32
        E 30 e0 3b 30
        E 30 e0 1f 2a
        E 30 e0 42 26
        E 30 e0 65 22
        E 30 e0 27 20
        E 30 e0 69 1d
        E 30 e0 0c 1a
        E 30 e0 4e 17
        E 30 e0 0f 15
        E 30 e0 0f 15
        E 30 e0 51 12
        E 30 e0 13 10
        E 30 e0 74 0e
        E 30 e0 36 0c
        E 30 e0 17 0b
        E 30 e0 78 09
        E 30 e0 3a 07
        E 30 e0 5d 03
        E 30 e0 1f 01
        E 30 e0 00 00
        E 30 e0 00 00
        E 30 e0 00 00
        e 120 e0 00 40
        E 0 80 51 00
        E 30 b0 7b 00
        GUID {42C7ABCD-CD77-40EA-9CAB-EE8DD56B950D}
        IGNTEMPO 0 120.00000000 4 4
        SRCCOLOR 94
        VELLANE 128 112 0
        CFGEDITVIEW 15284.880000 0.563328 28 12 0 0 0 0 0
        KEYSNAP 0 0 "102034050607" 0 "Major"
        TRACKSEL 0 0 0
        EVTFILTER 0 -1 -1 -1 -1 0 1 0 0 -1.00000000 -1.00000000
        CFGEDIT 1 1 0 1 0 0 1 1 1 1 1 0.03125000 -1878 69 -3 1087 0 0 0 0 0.00000000 0 0 0 0 0.500000 0 0 1.000000 64
      >
    >
    <ITEM
      POSITION 67.33333333333300
      SNAPOFFS 0.00000000000000
      LENGTH 10.66666666666664
      LOOP 1
      ALLTAKES 0
      SEL 0
      FADEIN 1 0.000000 0.000000 1 0 0.000000
      FADEOUT 1 0.000000 0.000000 1 0 0.000000
      MUTE 0
      IGUID {A9765081-23DB-4FCA-A183-2BE51421A069}
      IID 137
      NAME "DMG Pulse untitled MIDI item"
      VOLPAN 1.000000 0.000000 1.000000 -1.000000
      SOFFS 0.00000000000000 0.00000000000000
      PLAYRATE 1.00000000000000 1 0.00000000000000 -1 0 0.002500
      CHANMODE 0
      GUID {569BE81D-B242-4522-A01B-AE0CC178B958}
      <SOURCE MIDI
        HASDATA 1 960 QN
        POOLEDEVTS {6379F89A-91D0-4546-992E-304511BAE828}
        E 0 90 40 7e
        E 240 80 40 00
        E 240 90 40 7e
        E 240 80 40 00
        E 0 90 40 7e
        E 240 80 40 00
        E 0 90 40 7e
        E 240 80 40 00
        E 240 90 40 7e
        E 240 80 40 00
        E 0 90 40 7e
        E 240 80 40 00
        E 0 90 40 7e
        E 240 80 40 00
        E 240 90 40 7e
        E 240 80 40 00
        E 0 90 40 7e
        E 240 80 40 00
        E 0 90 40 7e
        E 240 80 40 00
        E 240 90 40 7e
        E 240 80 40 00
        E 0 90 40 7e
        E 240 80 40 00
        E 0 90 40 7e
        E 240 80 40 00
        E 240 90 40 7e
        E 240 80 40 00
        E 0 90 40 7e
        E 240 80 40 00
        E 0 90 40 7e
        E 240 80 40 00
        E 240 90 40 7e
        E 240 80 40 00
        E 0 90 40 7e
        E 240 80 40 00
        E 0 90 40 7e
        E 240 80 40 00
        E 240 90 40 7e
        E 240 80 40 00
        E 0 90 40 7e
        E 240 80 40 00
        E 0 90 40 7e
        E 240 80 40 00
        E 240 90 40 7e
        E 240 80 40 00
        E 0 90 40 7e
        E 240 80 40 00
        E 0 90 48 7e
        E 240 80 48 00
        E 240 90 48 7e
        E 240 80 48 00
        E 0 90 48 7e
        E 240 80 48 00
        E 0 90 48 7e
        E 240 80 48 00
        E 240 90 48 7e
        E 240 80 48 00
        E 0 90 48 7e
        E 240 80 48 00
        E 0 90 48 7e
        E 240 80 48 00
        E 240 90 48 7e
        E 240 80 48 00
        E 0 90 48 7e
        E 240 80 48 00
        E 0 90 48 7e
        E 240 80 48 00
        E 240 90 48 7e
        E 240 80 48 00
        E 0 90 48 7e
        E 240 80 48 00
        E 0 90 48 7e
        E 240 80 48 00
        E 240 90 48 7e
        E 240 80 48 00
        E 0 90 48 7e
        E 240 80 48 00
        E 0 90 48 7e
        E 240 80 48 00
        E 240 90 48 7e
        E 240 80 48 00
        E 0 90 48 7e
        E 240 80 48 00
        E 0 90 48 7e
        E 240 80 48 00
        E 240 90 48 7e
        E 240 80 48 00
        E 0 90 48 7e
        E 240 80 48 00
        E 0 90 47 7e
        E 240 80 47 00
        E 240 90 47 7e
        E 240 80 47 00
        E 0 90 47 7e
        E 240 80 47 00
        E 0 90 45 7e
        E 240 80 45 00
        E 240 90 45 7e
        E 240 80 45 00
        E 0 90 45 7e
        E 240 80 45 00
        E 0 90 45 7e
        E 240 80 45 00
        E 240 90 45 7e
        E 240 80 45 00
        E 0 90 45 7e
        E 240 80 45 00
        E 0 90 45 7e
        E 240 80 45 00
        E 240 90 45 7e
        E 240 80 45 00
        E 0 90 45 7e
        E 240 80 45 00
        E 0 90 45 7e
        E 240 80 45 00
        E 240 90 45 7e
        E 240 80 45 00
        E 0 90 45 7e
        E 240 80 45 00
        E 0 90 45 7e
        E 240 80 45 00
        E 240 90 45 7e
        E 240 80 45 00
        E 0 90 45 7e
        E 240 80 45 00
        E 0 90 45 7e
        E 240 80 45 00
        E 240 90 45 7e
        E 240 80 45 00
        E 0 90 45 7e
        E 240 80 45 00
        E 0 90 45 7e
        E 240 80 45 00
        E 240 90 45 7e
        E 240 80 45 00
        E 0 90 45 7e
        E 240 80 45 00
        E 0 90 45 7e
        E 240 80 45 00
        E 240 90 45 7e
        E 240 80 45 00
        E 0 90 45 7e
        E 240 80 45 00
        E 0 90 47 7e
        E 240 80 47 00
        E 240 90 47 7e
        E 240 80 47 00
        E 0 90 47 7e
        E 240 80 47 00
        E 0 90 47 7e
        E 240 80 47 00
        E 240 90 47 7e
        E 240 80 47 00
        E 0 90 47 7e
        E 240 80 47 00
        E 0 90 47 7e
        E 240 80 47 00
        E 240 90 47 7e
        E 240 80 47 00
        E 0 90 47 7e
        E 240 80 47 00
        E 0 90 47 7e
        E 240 80 47 00
        E 240 90 47 7e
        E 240 80 47 00
        E 0 90 47 7e
        E 240 80 47 00
        E 0 90 47 7e
        E 240 80 47 00
        E 240 90 47 7e
        E 240 80 47 00
        E 0 90 47 7e
        E 240 80 47 00
        E 0 90 47 7e
        E 240 80 47 00
        E 240 90 47 7e
        E 240 80 47 00
        E 0 90 47 7e
        E 240 80 47 00
        E 0 90 43 7e
        E 240 80 43 00
        E 240 90 43 7e
        E 240 80 43 00
        E 0 90 43 7e
        E 240 80 43 00
        e 0 90 43 7e
        e 240 80 43 00
        e 240 90 43 7e
        e 240 80 43 00
        e 0 90 43 7e
        e 240 80 43 00
        E 0 b0 7b 00
        GUID {24D111EA-2882-4DA1-ABC4-A8ED10D3424D}
        IGNTEMPO 0 120.00000000 4 4
        SRCCOLOR 195
        VELLANE -1 112 0
        CFGEDITVIEW 0.000000 0.070040 33 12 0 0 0 0 0
        KEYSNAP 0 0 "102034050607" 0 "Major"
        TRACKSEL 0 0 0
        EVTFILTER 0 -1 -1 -1 -1 0 1 0 0 -1.00000000 -1.00000000
        CFGEDIT 1 1 0 1 0 0 1 1 1 1 1 0.25000000 -1902 41 -43 1043 0 0 0 0 0.00000000 0 0 0 0 0.500000 0 0 1.000000 64
      >
    >
    <ITEM
      POSITION 77.99999999999965
      SNAPOFFS 0.00000000000000
      LENGTH 10.66666666666666
      LOOP 1
      ALLTAKES 0
      SEL 0
      FADEIN 1 0.000000 0.000000 1 0 0.000000
      FADEOUT 1 0.000000 0.000000 1 0 0.000000
      MUTE 0
      IGUID {68E54058-2864-498E-90B1-FA839723FE95}
      IID 137
      NAME "DMG Pulse untitled MIDI item"
      VOLPAN 1.000000 0.000000 1.000000 -1.000000
      SOFFS 0.00000000000000 0.00000000000000
      PLAYRATE 1.00000000000000 1 0.00000000000000 -1 0 0.002500
      CHANMODE 0
      GUID {80162670-D736-4B4F-B4DB-FF78D95F65D8}
      <SOURCE MIDI
        HASDATA 1 960 QN
        POOLEDEVTS {E9625A3C-18C3-4248-B5DF-17A1AA3B7F99}
        E 0 90 40 7e
        E 240 80 40 00
        E 240 90 40 7e
        E 240 80 40 00
        E 0 90 40 7e
        E 240 80 40 00
        E 0 90 40 7e
        E 240 80 40 00
        E 240 90 40 7e
        E 240 80 40 00
        E 0 90 40 7e
        E 240 80 40 00
        E 0 90 40 7e
        E 240 80 40 00
        E 240 90 40 7e
        E 240 80 40 00
        E 0 90 40 7e
        E 240 80 40 00
        E 0 90 40 7e
        E 240 80 40 00
        E 240 90 40 7e
        E 240 80 40 00
        E 0 90 40 7e
        E 240 80 40 00
        E 0 90 40 7e
        E 240 80 40 00
        E 240 90 40 7e
        E 240 80 40 00
        E 0 90 40 7e
        E 240 80 40 00
        E 0 90 40 7e
        E 240 80 40 00
        E 240 90 40 7e
        E 240 80 40 00
        E 0 90 40 7e
        E 240 80 40 00
        E 0 90 40 7e
        E 240 80 40 00
        E 240 90 40 7e
        E 240 80 40 00
        E 0 90 40 7e
        E 240 80 40 00
        E 0 90 40 7e
        E 240 80 40 00
        E 240 90 40 7e
        E 240 80 40 00
        E 0 90 40 7e
        E 240 80 40 00
        E 0 90 48 7e
        E 240 80 48 00
        E 240 90 48 7e
        E 240 80 48 00
        E 0 90 48 7e
        E 240 80 48 00
        E 0 90 48 7e
        E 240 80 48 00
        E 240 90 48 7e
        E 240 80 48 00
        E 0 90 48 7e
        E 240 80 48 00
        E 0 90 48 7e
        E 240 80 48 00
        E 240 90 48 7e
        E 240 80 48 00
        E 0 90 48 7e
        E 240 80 48 00
        E 0 90 48 7e
        E 240 80 48 00
        E 240 90 48 7e
        E 240 80 48 00
        E 0 90 48 7e
        E 240 80 48 00
        E 0 90 48 7e
        E 240 80 48 00
        E 240 90 48 7e
        E 240 80 48 00
        E 0 90 48 7e
        E 240 80 48 00
        E 0 90 48 7e
        E 240 80 48 00
        E 240 90 48 7e
        E 240 80 48 00
        E 0 90 48 7e
        E 240 80 48 00
        E 0 90 48 7e
        E 240 80 48 00
        E 240 90 48 7e
        E 240 80 48 00
        E 0 90 48 7e
        E 240 80 48 00
        E 0 90 47 7e
        E 240 80 47 00
        E 240 90 47 7e
        E 240 80 47 00
        E 0 90 47 7e
        E 240 80 47 00
        E 0 90 45 7e
        E 240 80 45 00
        E 240 90 45 7e
        E 240 80 45 00
        E 0 90 45 7e
        E 240 80 45 00
        E 0 90 45 7e
        E 240 80 45 00
        E 240 90 45 7e
        E 240 80 45 00
        E 0 90 45 7e
        E 240 80 45 00
        E 0 90 45 7e
        E 240 80 45 00
        E 240 90 45 7e
        E 240 80 45 00
        E 0 90 45 7e
        E 240 80 45 00
        E 0 90 45 7e
        E 240 80 45 00
        E 240 90 45 7e
        E 240 80 45 00
        E 0 90 45 7e
        E 240 80 45 00
        E 0 90 45 7e
        E 240 80 45 00
        E 240 90 45 7e
        E 240 80 45 00
        E 0 90 45 7e
        E 240 80 45 00
        E 0 90 45 7e
        E 240 80 45 00
        E 240 90 45 7e
        E 240 80 45 00
        E 0 90 45 7e
        E 240 80 45 00
        E 0 90 45 7e
        E 240 80 45 00
        E 240 90 45 7e
        E 240 80 45 00
        E 0 90 45 7e
        E 240 80 45 00
        E 0 90 45 7e
        E 240 80 45 00
        E 240 90 45 7e
        E 240 80 45 00
        E 0 90 45 7e
        E 240 80 45 00
        E 0 90 47 7e
        E 240 80 47 00
        E 240 90 47 7e
        E 240 80 47 00
        E 0 90 47 7e
        E 240 80 47 00
        E 0 90 47 7e
        E 240 80 47 00
        E 240 90 47 7e
        E 240 80 47 00
        E 0 90 47 7e
        E 240 80 47 00
        E 0 90 47 7e
        E 240 80 47 00
        E 240 90 47 7e
        E 240 80 47 00
        E 0 90 47 7e
        E 240 80 47 00
        E 0 90 47 7e
        E 240 80 47 00
        E 240 90 47 7e
        E 240 80 47 00
        E 0 90 47 7e
        E 240 80 47 00
        E 0 90 47 7e
        E 240 80 47 00
        E 240 90 47 7e
        E 240 80 47 00
        E 0 90 47 7e
        E 240 80 47 00
        E 0 90 47 7e
        E 240 80 47 00
        E 240 90 47 7e
        E 240 80 47 00
        E 0 90 47 7e
        E 240 80 47 00
        E 0 90 43 7e
        E 240 80 43 00
        E 240 90 43 7e
        E 240 80 43 00
        E 0 90 43 7e
        E 240 80 43 00
        e 0 90 43 7e
        e 240 80 43 00
        e 240 90 43 7e
        e 240 80 43 00
        e 0 90 43 7e
        e 240 80 43 00
        E 0 b0 7b 00
        GUID {F3DF9A69-8F01-48EA-BA08-D9F3CB3A633C}
        IGNTEMPO 0 120.00000000 4 4
        SRCCOLOR 221
        VELLANE -1 112 0
        CFGEDITVIEW 0.000000 0.000000 33 12 0 0 0 0 0
        KEYSNAP 0 0 "102034050607" 0 "Major"
        TRACKSEL 0 0 0
        EVTFILTER 0 -1 -1 -1 -1 0 1 0 0 -1.00000000 -1.00000000
        CFGEDIT 1 1 0 1 0 0 1 1 1 1 1 0.25000000 -1902 41 -43 1043 0 0 0 0 0.00000000 0 0 0 0 0.500000 0 0 1.000000 64
      >
    >
  >
  <TRACK '{28F26E83-F6BD-4EF1-A098-2C442180AFB9}'
    NAME "Genesis Percussion 1"
    PEAKCOL 16880080
    BEAT -1
    AUTOMODE 0
    VOLPAN 0.76076306062369 0.00000000000000 -1.00000000000000 -1.00000000000000 1.00000000000000
    MUTESOLO 0 0 0
    IPHASE 0
    ISBUS 0 0
    BUSCOMP 0 0
    SHOWINMIX 1 0.666700 0.500000 1 0.500000 0 -1 0
    FREEMODE 0
    SEL 1
    REC 0 0 0 0 0 0 0
    VU 2
    TRACKHEIGHT 0 0
    INQ 0 0 0 0.5000000000 100 0 0 100
    NCHAN 2
    FX 1
    TRACKID {28F26E83-F6BD-4EF1-A098-2C442180AFB9}
    PERF 0
    MIDIOUT -1
    MAINSEND 1 0
    <FXCHAIN
      WNDRECT -1314 36 774 467
      SHOW 0
      LASTSEL 1
      DOCKED 0
      BYPASS 0 0
      <VST "VSTi: sforzando (x86) (Plogue Art et Technologie, Inc)" "sforzando VST_x86.dll" 0 ""
        UUdMUO5e7f4AAAAAAgAAAAEAAAAAAAAAAgAAAAAAAAC1AQAAAQAAAAAAEABDRUdQUQUAAHiclZRLT8MwDMfvSHyHKPetTVfKJq2g8VQPE0gd58lrzYhI09GkFXx73MAe
        PCRCT4nzs/13XGd6/lop1mFjZK1TLoYhZ+dnx0fTWSMhhw4PzpJkwtmmqcu2sNkVGUIRc2IZfdMcrZV6bdhLC0raNzrmzNgGoSJzykcRZxW85s4yU6ou5hcpj04SzubZ
        VXbX2nldovOC1tYVWEqaq9qmPDw0KexQpVxqit1WqC1nSnb44UykKXqlUb8ABWQSbMCwFzU0hfo0X5IfNilPyGGt6hWoRaudzHAYuo+zYFcZiWCydNE1VJTGPEbBLWo0
        Mr9Z5jdRIKJxQE7L3IIuoSk5W4F+zsgndrGKJ9C6lz2g8ja1ottJYs7sj6Sb1bIBvcae3Bst2YzLXx0sW+sq/pTppM5B6q3UDlSLrqPfCvpKih35s/SvZORNjrzJ2Js8
        8SYTb/LUmxx7kxNvUoT+qH+XhH+bhH+fhH+jxJ+duocGqo9WJX/9p3tWjMQ/4Hh/DWL8y1AH/VRvN7cP2XZqoLD0mmT7h8ftr3d7gwoLi+UCVm52+oDTYPtY0uYdG/5V
        vwAAEAAAAA==
      >
      FLOATPOS 0 0 0 0
      FXID {32A31022-5359-4601-86DA-5CD7109E94AD}
      WAK 0
      BYPASS 0 0
      <VST "VST: ReaEQ (Cockos)" "reaeq.dll" 0 ""
        cWVlcu5e7f4CAAAAAQAAAAAAAAACAAAAAAAAAAIAAAABAAAAAAAAAAIAAAAAAAAAoAAAAAEAAAAAABAAIQAAAAQAAAAAAAAAAQAAAIFO+5MolmJA45E3aDt7AUAArBxa
        ZDvvPwEIAAAAAQAAAMAqVHxDDHVAgKqXme+F2T9AiUFg5dDiPwEIAAAAAQAAAC0DeWUQO5VAbUDn8ckKBUCA76fGSzfJPwEBAAAAAQAAAGhzpYSwEtRAAQfPAznL4D8B
        f2q8dJPyPwEBAAAAAQAAAAAAAAAAAPA/AAAAAAAAEAAAAA==
      >
      FLOATPOS 24 24 544 420
      FXID {EB8CC759-0721-461D-8F42-1B46A70CF0B6}
      WAK 0
    >
    <ITEM
      POSITION 0.00000000003000
      SNAPOFFS 0.00000000000000
      LENGTH 5.33333333333333
      LOOP 1
      ALLTAKES 0
      SEL 0
      FADEIN 1 0.000000 0.000000 1 0 0.000000
      FADEOUT 1 0.000000 0.000000 1 0 0.000000
      MUTE 0
      IGUID {2DCA582D-3CC0-4A28-8153-82683057B635}
      IID 44
      NAME "Genesis Percussion untitled MIDI item"
      VOLPAN 1.000000 0.000000 1.000000 -1.000000
      SOFFS 0.00000000000000 0.00000000000000
      PLAYRATE 1.00000000000000 1 0.00000000000000 -1 0 0.002500
      CHANMODE 0
      GUID {6B3257BC-B95E-427F-B6A8-49425BE9A69E}
      <SOURCE MIDI
        HASDATA 1 960 QN
        POOLEDEVTS {B4620C06-2077-4E1C-8DBA-7B0BF52E10F1}
        E 0 90 2a 7f
        E 240 80 2a 00
        e 240 90 2a 65
        e 240 80 2a 00
        E 240 90 2a 7f
        E 240 80 2a 00
        e 240 90 2a 65
        e 240 80 2a 00
        E 240 90 2a 7f
        E 240 80 2a 00
        e 240 90 2a 65
        e 240 80 2a 00
        E 240 90 2a 7f
        E 240 80 2a 00
        e 240 90 2a 65
        e 240 80 2a 00
        e 0 90 2a 65
        e 240 80 2a 00
        E 0 90 2a 7f
        E 240 80 2a 00
        e 240 90 2a 65
        e 240 80 2a 00
        E 240 90 2a 7f
        E 240 80 2a 00
        e 240 90 2a 65
        e 240 80 2a 00
        E 240 90 2a 7f
        E 240 80 2a 00
        e 240 90 2a 65
        e 240 80 2a 00
        E 240 90 2a 7f
        E 240 80 2a 00
        e 0 90 2a 65
        e 240 80 2a 00
        e 0 90 2a 65
        e 240 80 2a 00
        e 0 90 2a 65
        e 240 80 2a 00
        E 0 90 2a 7f
        E 240 80 2a 00
        e 240 90 2a 65
        e 240 80 2a 00
        E 240 90 2a 7f
        E 240 80 2a 00
        e 240 90 2a 65
        e 240 80 2a 00
        E 240 90 2a 7f
        E 240 80 2a 00
        e 240 90 2a 65
        e 240 80 2a 00
        E 240 90 2a 7f
        E 240 80 2a 00
        e 240 90 2a 65
        e 240 80 2a 00
        e 0 90 2a 65
        e 240 80 2a 00
        E 0 90 2a 7f
        E 240 80 2a 00
        e 240 90 2a 65
        e 240 80 2a 00
        e 240 90 2a 65
        e 240 80 2a 00
        E 240 90 2a 7f
        E 240 80 2a 00
        e 240 90 2a 65
        e 240 80 2a 00
        e 0 90 2a 65
        e 240 80 2a 00
        e 0 90 2a 65
        e 240 80 2a 00
        E 240 90 2a 7f
        E 240 80 2a 00
        e 240 90 2a 65
        e 240 80 2a 00
        e 0 90 2a 65
        e 240 80 2a 00
        E 0 b0 7b 00
        GUID {EE649902-A3B4-4E01-A11A-B6CD4F949877}
        IGNTEMPO 0 120.00000000 4 4
        SRCCOLOR 90
        VELLANE -1 112 0
        CFGEDITVIEW 148770.960000 0.042347 50 12 0 0 0 0 0
        KEYSNAP 0 0 "102034050607" 0 "Major"
        TRACKSEL 0 0 0
        EVTFILTER 0 -1 -1 -1 -1 0 1 0 0 -1.00000000 -1.00000000
        CFGEDIT 1 1 0 1 0 0 1 1 1 1 1 0.25000000 -1902 41 -43 1043 0 0 0 0 0.00000000 0 0 0 0 0.500000 0 0 1.000000 64
      >
    >
    <ITEM
      POSITION 5.33333333336333
      SNAPOFFS 0.00000000000000
      LENGTH 5.33333333333333
      LOOP 1
      ALLTAKES 0
      SEL 0
      FADEIN 1 0.000000 0.000000 1 0 0.000000
      FADEOUT 1 0.000000 0.000000 1 0 0.000000
      MUTE 0
      IGUID {545DB200-9E35-4D0F-8C52-330CEC1C37A6}
      IID 44
      NAME "Genesis Percussion untitled MIDI item"
      VOLPAN 1.000000 0.000000 1.000000 -1.000000
      SOFFS 0.00000000000000 0.00000000000000
      PLAYRATE 1.00000000000000 1 0.00000000000000 -1 0 0.002500
      CHANMODE 0
      GUID {FE6A3B4D-387A-498B-A9BA-455C659AE7E2}
      <SOURCE MIDI
        HASDATA 1 960 QN
        POOLEDEVTS {13AA8515-0515-4D2D-A11D-786F6B04BDF3}
        E 0 90 24 7f
        E 0 90 2a 7f
        E 240 80 24 00
        E 0 80 2a 00
        E 0 90 24 7f
        E 240 80 24 00
        E 0 90 24 7f
        E 0 90 2a 65
        E 240 80 24 00
        E 0 80 2a 00
        E 240 90 2a 7f
        E 240 80 2a 00
        E 240 90 2a 65
        E 240 80 2a 00
        E 240 90 28 71
        E 0 90 2a 7f
        E 240 80 28 00
        E 0 80 2a 00
        E 240 90 24 7f
        E 0 90 2a 65
        E 240 80 24 00
        E 0 80 2a 00
        E 240 90 24 7f
        E 0 90 2a 7f
        E 240 80 24 00
        E 0 80 2a 00
        E 0 90 24 7f
        E 240 80 24 00
        E 0 90 2a 65
        E 240 80 2a 00
        E 0 90 2a 65
        E 240 80 2a 00
        E 0 90 2a 7f
        E 240 80 2a 00
        E 240 90 2a 65
        E 240 80 2a 00
        E 240 90 2a 7f
        E 240 80 2a 00
        E 240 90 2a 65
        E 240 80 2a 00
        E 240 90 2a 7f
        E 240 80 2a 00
        E 240 90 2a 65
        E 240 80 2a 00
        E 240 90 2a 7f
        E 240 80 2a 00
        E 0 90 2a 65
        E 240 80 2a 00
        E 0 90 2a 65
        E 240 80 2a 00
        E 0 90 2a 65
        E 240 80 2a 00
        E 0 90 24 7f
        E 0 90 2a 7f
        E 240 80 24 00
        E 0 80 2a 00
        E 0 90 24 7f
        E 240 80 24 00
        E 0 90 24 7f
        E 0 90 2a 65
        E 240 80 24 00
        E 0 80 2a 00
        E 240 90 2a 7f
        E 240 80 2a 00
        E 240 90 2a 65
        E 240 80 2a 00
        E 240 90 28 71
        E 0 90 2a 7f
        E 240 80 28 00
        E 0 80 2a 00
        E 240 90 24 7f
        E 0 90 2a 65
        E 240 80 24 00
        E 0 80 2a 00
        E 240 90 24 7f
        E 0 90 2a 7f
        E 240 80 24 00
        E 0 80 2a 00
        E 0 90 24 7f
        E 240 80 24 00
        E 0 90 2a 65
        E 240 80 2a 00
        E 0 90 2a 65
        E 240 b0 0a 73
        E 0 80 2a 00
        E 0 90 28 71
        E 0 90 2a 7f
        E 240 b0 0a 73
        E 0 80 28 00
        E 0 80 2a 00
        E 0 90 28 71
        E 240 80 28 00
        E 0 90 24 7f
        E 0 90 2a 65
        E 240 80 24 00
        E 0 80 2a 00
        E 0 90 24 7f
        e 240 b0 0a 16
        E 0 80 24 00
        E 0 90 28 71
        E 0 90 2a 65
        E 240 b0 0a 15
        E 0 80 28 00
        E 0 80 2a 00
        E 0 90 28 71
        E 240 80 28 00
        E 0 90 24 7f
        E 0 90 2a 7f
        E 240 80 24 00
        E 0 80 2a 00
        E 0 90 24 7f
        E 240 b0 0a 40
        E 0 80 24 00
        E 0 90 28 71
        E 0 90 2a 65
        E 240 80 28 00
        E 0 80 2a 00
        E 0 90 28 71
        E 0 90 2a 65
        E 240 80 28 00
        E 0 80 2a 00
        E 0 90 28 71
        E 0 90 2a 65
        E 240 80 28 00
        E 0 80 2a 00
        E 0 90 28 71
        E 240 80 28 00
        E 0 90 24 7f
        E 0 90 2a 7f
        E 240 80 24 00
        E 0 80 2a 00
        E 0 90 24 7f
        E 240 80 24 00
        E 0 90 24 7f
        E 0 90 2a 65
        E 240 80 24 00
        E 0 80 2a 00
        E 0 90 24 7f
        E 0 90 2a 65
        E 240 80 24 00
        E 0 80 2a 00
        E 0 b0 7b 00
        GUID {668ACD96-9EA9-4D03-A859-9CE84DE2A643}
        IGNTEMPO 0 120.00000000 4 4
        SRCCOLOR 91
        VELLANE -1 112 0
        CFGEDITVIEW 21252.240000 0.100024 50 12 0 0 0 0 0
        KEYSNAP 0 0 "102034050607" 0 "Major"
        TRACKSEL 0 0 0
        EVTFILTER 0 -1 -1 -1 -1 0 1 0 0 -1.00000000 -1.00000000
        CFGEDIT 1 1 0 1 0 0 1 1 1 1 1 0.25000000 -1902 41 -43 1043 0 0 0 0 0.00000000 0 0 0 0 0.500000 0 0 1.000000 64
      >
    >
    <ITEM
      POSITION 10.66666666668667
      SNAPOFFS 0.00000000000000
      LENGTH 5.33333333333002
      LOOP 1
      ALLTAKES 0
      SEL 0
      FADEIN 1 0.000000 0.000000 1 0 0.000000
      FADEOUT 1 0.000000 0.000000 1 0 0.000000
      MUTE 0
      IGUID {3F6D9696-D540-425D-9782-84FAB38E82F0}
      IID 5
      NAME "Drums untitled MIDI item"
      VOLPAN 1.000000 0.000000 1.000000 -1.000000
      SOFFS 0.00000000000000 0.00000000000000
      PLAYRATE 1.00000000000000 1 0.00000000000000 -1 0 0.002500
      CHANMODE 0
      GUID {D20DB029-D6DA-46EB-A905-41ED6D767DBF}
      <SOURCE MIDI
        HASDATA 1 960 QN
        POOLEDEVTS {1FD7B54D-4816-4F7E-9CD3-7214A70D0563}
        E 0 90 24 7f
        E 0 90 2a 72
        E 120 80 24 00
        E 120 80 2a 00
        E 240 90 2a 65
        E 240 80 2a 00
        E 0 90 2a 65
        E 240 80 2a 00
        E 0 90 28 73
        E 240 80 28 00
        E 240 90 24 7f
        E 0 90 2a 65
        E 120 80 24 00
        E 120 80 2a 00
        E 0 90 2a 65
        E 240 80 2a 00
        E 0 90 2a 72
        E 240 80 2a 00
        E 240 90 24 7f
        E 0 90 2a 65
        E 240 80 24 00
        E 0 80 2a 00
        E 0 90 24 7f
        E 0 90 2a 65
        E 240 80 24 00
        E 0 80 2a 00
        E 0 90 28 73
        E 240 80 28 00
        E 240 90 2a 65
        E 240 80 2a 00
        E 0 90 2a 65
        E 240 80 2a 00
        E 0 90 2a 72
        E 240 80 2a 00
        E 240 90 24 7f
        E 0 90 2a 65
        E 240 80 24 00
        E 0 80 2a 00
        E 0 90 2a 65
        E 240 80 2a 00
        E 0 90 28 73
        E 240 80 28 00
        E 240 90 24 7f
        E 0 90 2a 65
        E 240 80 24 00
        E 0 80 2a 00
        E 0 90 2a 65
        E 240 80 2a 00
        E 0 90 24 7f
        E 0 90 2a 72
        E 240 80 24 00
        E 0 80 2a 00
        E 0 90 2c 65
        E 240 80 2c 00
        E 480 90 28 65
        E 0 90 2a 65
        E 240 80 28 00
        E 0 80 2a 00
        E 240 90 2a 65
        E 240 80 2a 00
        E 0 90 2a 65
        E 240 80 2a 00
        E 0 90 24 7f
        E 0 90 2a 72
        E 120 80 24 00
        E 120 80 2a 00
        E 240 90 2a 65
        E 240 80 2a 00
        E 0 90 2a 65
        E 240 80 2a 00
        E 0 90 28 73
        E 240 80 28 00
        E 240 90 24 7f
        E 0 90 2a 65
        E 120 80 24 00
        E 120 80 2a 00
        E 0 90 2a 65
        E 240 80 2a 00
        E 0 90 2a 72
        E 240 80 2a 00
        E 240 90 24 7f
        E 0 90 2a 65
        E 240 80 24 00
        E 0 80 2a 00
        E 0 90 24 7f
        E 0 90 2a 65
        E 240 80 24 00
        E 0 80 2a 00
        E 0 90 28 73
        E 240 80 28 00
        E 240 90 2a 65
        E 240 80 2a 00
        E 0 90 2a 65
        E 240 80 2a 00
        E 0 90 2a 72
        E 240 80 2a 00
        E 240 90 24 7f
        E 0 90 2a 65
        E 240 80 24 00
        E 0 80 2a 00
        E 0 90 2a 65
        E 240 80 2a 00
        E 0 90 28 73
        E 240 80 28 00
        E 240 90 24 7f
        E 0 90 2a 65
        E 240 80 24 00
        E 0 80 2a 00
        E 0 90 2a 65
        E 240 80 2a 00
        E 0 90 24 7f
        E 0 90 2a 72
        E 240 80 24 00
        E 0 80 2a 00
        E 240 90 2a 65
        E 240 80 2a 00
        E 240 90 2a 65
        E 240 80 2a 00
        E 0 90 2c 65
        E 240 80 2c 00
        E 0 90 2a 65
        E 240 80 2a 00
        E 0 90 2c 65
        E 240 80 2c 00
        E 0 b0 7b 00
        GUID {41FE0BFC-B0E0-4680-B267-805E3CC3C493}
        IGNTEMPO 0 120.00000000 4 4
        SRCCOLOR 67
        VELLANE -1 112 0
        CFGEDITVIEW -768.000000 0.101918 69 12 0 0 0 0 0
        KEYSNAP 0 0 "102034050607" 0 "Major"
        TRACKSEL 0 0 0
        EVTFILTER 0 -1 -1 -1 -1 0 1 0 0 -1.00000000 -1.00000000
        CFGEDIT 1 1 0 1 0 0 1 1 1 1 1 0.25000000 -1915 39 -24 1073 0 0 0 0 0.00000000 0 0 0 0 0.500000 0 0 1.000000 64
      >
    >
    <ITEM
      POSITION 16.00000000002667
      SNAPOFFS 0.00000000000000
      LENGTH 5.33333333333002
      LOOP 1
      ALLTAKES 0
      SEL 0
      FADEIN 1 0.000000 0.000000 1 0 0.000000
      FADEOUT 1 0.000000 0.000000 1 0 0.000000
      MUTE 0
      IGUID {647480AC-CC21-4016-99D2-14374DD4E53F}
      IID 5
      NAME "Drums untitled MIDI item"
      VOLPAN 1.000000 0.000000 1.000000 -1.000000
      SOFFS 0.00000000000000 0.00000000000000
      PLAYRATE 1.00000000000000 1 0.00000000000000 -1 0 0.002500
      CHANMODE 0
      GUID {B4899DE4-0AFD-4F5B-A965-7DB7A046BFCD}
      <SOURCE MIDI
        HASDATA 1 960 QN
        POOLEDEVTS {8435C465-BF17-4AC8-B908-894240673BE3}
        E 0 90 24 7f
        e 0 90 2a 72
        E 120 80 24 00
        e 120 80 2a 00
        e 240 90 2a 65
        e 240 80 2a 00
        e 0 90 2a 65
        e 240 80 2a 00
        e 0 90 28 73
        e 240 80 28 00
        E 240 90 24 7f
        e 0 90 2a 65
        E 120 80 24 00
        e 120 80 2a 00
        e 0 90 2a 65
        e 240 80 2a 00
        e 0 90 2a 72
        e 240 80 2a 00
        E 240 90 24 7f
        e 0 90 2a 65
        E 240 80 24 00
        e 0 80 2a 00
        E 0 90 24 7f
        e 0 90 2a 65
        E 240 80 24 00
        e 0 80 2a 00
        e 0 90 28 73
        e 240 80 28 00
        e 240 90 2a 65
        e 240 80 2a 00
        e 0 90 2a 65
        e 240 80 2a 00
        e 0 90 2a 72
        e 240 80 2a 00
        E 240 90 24 7f
        e 0 90 2a 65
        E 240 80 24 00
        e 0 80 2a 00
        e 0 90 2a 65
        e 240 80 2a 00
        e 0 90 28 73
        e 240 80 28 00
        E 240 90 24 7f
        e 0 90 2a 65
        E 240 80 24 00
        e 0 80 2a 00
        e 0 90 2a 65
        e 240 80 2a 00
        E 0 90 24 7f
        e 0 90 2a 72
        E 240 80 24 00
        e 0 80 2a 00
        e 0 90 2c 65
        e 240 80 2c 00
        e 480 90 28 65
        e 0 90 2a 65
        e 240 80 28 00
        e 0 80 2a 00
        e 240 90 2a 65
        e 240 80 2a 00
        e 0 90 2a 65
        e 240 80 2a 00
        E 0 90 24 7f
        e 0 90 2a 72
        E 120 80 24 00
        e 120 80 2a 00
        e 240 90 2a 65
        e 240 80 2a 00
        e 0 90 2a 65
        e 240 80 2a 00
        e 0 90 28 73
        e 240 80 28 00
        E 240 90 24 7f
        e 0 90 2a 65
        E 120 80 24 00
        e 120 80 2a 00
        e 0 90 2a 65
        e 240 80 2a 00
        e 0 90 2a 72
        e 240 80 2a 00
        E 240 90 24 7f
        e 0 90 2a 65
        E 240 80 24 00
        e 0 80 2a 00
        E 0 90 24 7f
        e 0 90 2a 65
        E 240 80 24 00
        e 0 80 2a 00
        e 0 90 28 73
        e 240 80 28 00
        e 240 90 2a 65
        e 240 80 2a 00
        e 0 90 2a 65
        e 240 80 2a 00
        e 0 90 2a 72
        e 240 80 2a 00
        E 240 90 24 7f
        e 0 90 2a 65
        E 240 80 24 00
        e 0 80 2a 00
        e 0 90 2a 65
        e 240 80 2a 00
        e 0 90 28 73
        e 240 80 28 00
        E 240 90 24 7f
        e 0 90 2a 65
        E 240 80 24 00
        e 0 80 2a 00
        e 0 90 2a 65
        e 240 80 2a 00
        E 0 90 24 7f
        e 0 90 2a 72
        E 240 80 24 00
        e 0 80 2a 00
        e 240 90 2a 65
        e 240 80 2a 00
        e 240 90 2a 65
        e 240 80 2a 00
        e 0 90 2c 65
        e 240 80 2c 00
        e 0 90 2a 65
        e 240 80 2a 00
        e 0 90 2c 65
        e 240 80 2c 00
        E 0 b0 7b 00
        GUID {133F993F-3136-4ECF-96DA-6F5CA18EC22E}
        IGNTEMPO 0 120.00000000 4 4
        SRCCOLOR 75
        VELLANE -1 112 0
        CFGEDITVIEW 33079.440000 0.101918 49 12 0 0 0 0 0
        KEYSNAP 0 0 "102034050607" 0 "Major"
        TRACKSEL 0 0 0
        EVTFILTER 0 -1 -1 -1 -1 0 1 0 0 -1.00000000 -1.00000000
        CFGEDIT 1 1 0 1 0 0 1 1 1 1 1 0.25000000 -1915 39 -24 1073 0 0 0 0 0.00000000 0 0 0 0 0.500000 0 0 1.000000 64
      >
    >
    <ITEM
      POSITION 21.33333333334669
      SNAPOFFS 0.00000000000000
      LENGTH 5.33333333333002
      LOOP 1
      ALLTAKES 0
      SEL 0
      FADEIN 1 0.000000 0.000000 1 0 0.000000
      FADEOUT 1 0.000000 0.000000 1 0 0.000000
      MUTE 0
      IGUID {7EF4DE62-C6ED-416E-87C8-5F6906DBFBC8}
      IID 29
      NAME "Drums untitled MIDI item glued"
      VOLPAN 1.000000 0.000000 1.000000 -1.000000
      SOFFS 0.00000000000000 0.00000000000000
      PLAYRATE 1.00000000000000 1 0.00000000000000 -1 0 0.002500
      CHANMODE 0
      GUID {3BE3D236-511E-4F91-9C7F-576ACDD5DAA1}
      <SOURCE MIDI
        HASDATA 1 960 QN
        POOLEDEVTS {6141111F-F7A6-47CA-878F-A14A4BF3E6D2}
        E 0 90 24 7f
        E 0 90 2a 6b
        E 120 80 24 00
        E 120 80 2a 00
        E 240 90 2a 5e
        E 240 80 2a 00
        E 0 90 2a 5e
        E 240 80 2a 00
        E 0 90 28 6c
        E 240 80 28 00
        E 240 90 24 7f
        E 0 90 2a 5e
        E 120 80 24 00
        E 120 80 2a 00
        E 0 90 2a 5e
        E 240 80 2a 00
        E 0 90 2a 6b
        E 240 80 2a 00
        E 240 90 24 7f
        E 0 90 2a 5e
        E 240 80 24 00
        E 0 80 2a 00
        E 0 90 24 7f
        E 0 90 2a 5e
        E 240 80 24 00
        E 0 80 2a 00
        E 0 90 28 6c
        E 240 80 28 00
        E 240 90 2a 5e
        E 240 80 2a 00
        E 0 90 2a 5e
        E 240 80 2a 00
        E 0 90 2a 6b
        E 240 80 2a 00
        E 240 90 24 7f
        E 0 90 2a 5e
        E 240 80 24 00
        E 0 80 2a 00
        E 0 90 2a 5e
        E 240 80 2a 00
        E 0 90 28 6c
        E 240 80 28 00
        E 240 90 24 7f
        E 0 90 2a 5e
        E 240 80 24 00
        E 0 80 2a 00
        E 0 90 2a 5e
        E 240 80 2a 00
        E 0 90 24 7f
        E 0 90 2a 6b
        E 240 80 24 00
        E 0 80 2a 00
        E 0 90 29 5e
        E 240 80 29 00
        E 480 90 28 5e
        E 0 90 2a 5e
        E 240 80 28 00
        E 0 80 2a 00
        E 240 90 2a 5e
        E 240 80 2a 00
        E 0 90 2a 5e
        E 240 80 2a 00
        E 0 90 24 7f
        E 0 90 2a 6b
        E 120 80 24 00
        E 120 80 2a 00
        E 240 90 2a 5e
        E 240 80 2a 00
        E 0 90 2a 5e
        E 240 80 2a 00
        E 0 90 28 6c
        E 240 80 28 00
        E 240 90 24 7f
        E 0 90 2a 5e
        E 120 80 24 00
        E 120 80 2a 00
        E 0 90 2a 5e
        E 240 80 2a 00
        E 0 90 2a 6b
        E 240 80 2a 00
        E 240 90 24 7f
        E 0 90 2a 5e
        E 240 80 24 00
        E 0 80 2a 00
        E 0 90 24 7f
        E 0 90 2a 5e
        E 240 80 24 00
        E 0 80 2a 00
        E 0 90 24 7f
        E 0 90 28 6c
        E 240 80 24 00
        E 0 80 28 00
        E 240 90 24 7f
        E 0 90 2a 5e
        E 240 80 24 00
        E 0 80 2a 00
        E 0 90 2a 5e
        E 240 80 2a 00
        E 0 90 28 6c
        E 240 80 28 00
        E 0 90 28 6c
        E 240 80 28 00
        E 0 90 24 7f
        E 240 80 24 00
        E 240 90 24 7f
        E 240 80 24 00
        E 240 90 28 6c
        E 240 80 28 00
        E 0 90 28 6c
        E 240 80 28 00
        E 0 90 24 7f
        E 240 80 24 00
        E 0 90 24 7f
        E 240 80 24 00
        E 0 90 28 6c
        E 240 80 28 00
        E 0 90 28 6c
        E 240 80 28 00
        E 0 90 28 6f
        E 240 80 28 00
        E 0 90 28 6f
        E 240 80 28 00
        E 0 90 24 7f
        E 240 80 24 00
        E 0 90 24 7f
        E 240 80 24 00
        E 0 b0 7b 00
        GUID {85C19897-F2FC-487B-A3D7-FBCCC431F253}
        IGNTEMPO 0 120.00000000 4 4
        SRCCOLOR 74
        VELLANE -1 112 0
        CFGEDITVIEW 26591.760000 0.101918 69 12 0 0 0 0 0
        KEYSNAP 0 0 "102034050607" 0 "Major"
        TRACKSEL 0 0 0
        EVTFILTER 0 -1 -1 -1 -1 0 1 0 0 -1.00000000 -1.00000000
        CFGEDIT 1 1 0 1 0 0 1 1 1 1 1 0.25000000 -1915 39 -24 1073 0 0 0 0 0.00000000 0 0 0 0 0.500000 0 0 1.000000 64
      >
    >
    <ITEM
      POSITION 26.66666666669341
      SNAPOFFS 0.00000000000000
      LENGTH 5.33333333332999
      LOOP 1
      ALLTAKES 0
      SEL 0
      FADEIN 1 0.000000 0.000000 1 0 0.000000
      FADEOUT 1 0.000000 0.000000 1 0 0.000000
      MUTE 0
      IGUID {7FB5F596-2A22-4B39-95D5-4BE4F09A39DE}
      IID 29
      NAME "Drums untitled MIDI item glued"
      VOLPAN 1.000000 0.000000 1.000000 -1.000000
      SOFFS 0.00000000000000 0.00000000000000
      PLAYRATE 1.00000000000000 1 0.00000000000000 -1 0 0.002500
      CHANMODE 0
      GUID {DFD10E82-00D8-4105-9085-634DEDA2000B}
      <SOURCE MIDI
        HASDATA 1 960 QN
        POOLEDEVTS {6CF4F5F1-4FC8-4423-BE20-89BD783ADA45}
        E 0 90 24 7f
        E 0 90 2a 68
        E 240 80 24 00
        E 0 80 2a 00
        E 240 90 24 7f
        E 0 90 2a 5b
        E 240 80 24 00
        E 0 80 2a 00
        E 0 90 2a 5b
        E 240 80 2a 00
        E 0 90 24 7f
        E 240 80 24 00
        E 0 90 24 7f
        E 240 80 24 00
        E 0 90 24 7f
        E 0 90 2a 5b
        E 240 80 24 00
        E 0 80 2a 00
        E 0 90 24 7f
        E 0 90 2a 5b
        E 240 80 24 00
        E 0 80 2a 00
        E 0 90 28 69
        E 0 90 2a 68
        E 240 80 28 00
        E 0 80 2a 00
        E 240 90 2a 5b
        E 240 80 2a 00
        E 0 90 2a 5b
        E 240 80 2a 00
        E 480 90 2a 5b
        E 240 80 2a 00
        E 0 90 2a 5b
        E 240 80 2a 00
        E 0 90 2a 68
        E 240 80 2a 00
        E 240 90 24 7f
        E 0 90 2a 5b
        E 240 80 24 00
        E 0 80 2a 00
        E 0 90 24 7f
        E 0 90 2a 5b
        E 240 80 24 00
        E 0 80 2a 00
        E 480 90 24 7f
        E 0 90 2a 5b
        E 240 80 24 00
        E 0 80 2a 00
        E 0 90 24 7f
        E 0 90 2a 5b
        E 240 80 24 00
        E 0 80 2a 00
        E 0 90 28 69
        E 0 90 2a 68
        E 240 80 28 00
        E 0 80 2a 00
        E 240 90 2a 5b
        E 240 80 2a 00
        E 0 90 2a 5b
        E 240 80 2a 00
        E 0 90 2a 5b
        E 240 80 2a 00
        E 240 90 2a 5b
        E 240 80 2a 00
        E 0 90 2a 5b
        E 240 80 2a 00
        E 0 90 24 7f
        E 0 90 2a 68
        E 240 80 24 00
        E 0 80 2a 00
        E 240 90 24 7f
        E 0 90 2a 5b
        E 240 80 24 00
        E 0 80 2a 00
        E 0 90 24 7f
        E 0 90 2a 5b
        E 240 80 24 00
        E 0 80 2a 00
        E 0 90 24 7f
        E 240 80 24 00
        E 240 90 24 7f
        E 0 90 2a 5b
        E 240 80 24 00
        E 0 80 2a 00
        E 0 90 24 7f
        E 0 90 2a 5b
        E 240 80 24 00
        E 0 80 2a 00
        E 0 90 28 69
        E 0 90 2a 68
        E 240 80 28 00
        E 0 80 2a 00
        E 240 90 2a 5b
        E 240 80 2a 00
        E 0 90 2a 5b
        E 240 80 2a 00
        E 480 90 2a 5b
        E 240 80 2a 00
        E 0 90 2a 5b
        E 240 80 2a 00
        E 0 90 24 7f
        E 120 80 24 00
        E 120 90 24 7f
        E 120 80 24 00
        E 120 90 24 7f
        E 0 90 2a 5b
        E 120 80 24 00
        E 120 80 2a 00
        E 0 90 2a 5b
        E 240 80 2a 00
        E 0 90 28 5d
        E 120 80 28 00
        E 120 90 28 5d
        E 120 80 28 00
        E 120 90 28 5d
        E 0 90 2a 5b
        E 120 80 28 00
        E 120 80 2a 00
        E 0 90 2a 5b
        E 240 80 2a 00
        E 0 90 28 60
        E 120 80 28 00
        E 120 90 24 7f
        E 120 80 24 00
        E 120 90 24 7f
        E 0 90 2a 5b
        E 120 80 24 00
        E 120 80 2a 00
        E 0 90 2a 5b
        E 240 80 2a 00
        E 0 90 28 7f
        E 120 80 28 00
        E 120 90 28 7f
        E 120 80 28 00
        E 120 90 28 7f
        E 120 80 28 00
        E 120 90 28 7f
        E 120 80 28 00
        E 120 b0 7b 00
        GUID {319A8C96-9E47-453A-A2C5-F3ADD0366BCD}
        IGNTEMPO 0 120.00000000 4 4
        SRCCOLOR 69
        VELLANE -1 112 0
        CFGEDITVIEW 19200.000000 0.179082 57 12 0 0 0 0 0
        KEYSNAP 0 0 "102034050607" 0 "Major"
        TRACKSEL 0 0 0
        EVTFILTER 0 -1 -1 -1 -1 0 1 0 0 -1.00000000 -1.00000000
        CFGEDIT 1 1 0 1 0 0 1 1 1 0 1 0.12500000 -1878 69 -3 1087 0 0 0 0 0.00000000 0 0 0 0 0.500000 0 0 1.000000 64
      >
    >
    <ITEM
      POSITION 32.00000000002672
      SNAPOFFS 0.00000000000000
      LENGTH 5.33333333333000
      LOOP 1
      ALLTAKES 0
      SEL 0
      FADEIN 1 0.000000 0.000000 1 0 0.000000
      FADEOUT 1 0.000000 0.000000 1 0 0.000000
      MUTE 0
      IGUID {4FE0DFE3-F22E-4A3B-8A62-E09FB581E539}
      IID 29
      NAME "Drums untitled MIDI item glued"
      VOLPAN 1.000000 0.000000 1.000000 -1.000000
      SOFFS 0.00000000000000 0.00000000000000
      PLAYRATE 1.00000000000000 1 0.00000000000000 -1 0 0.002500
      CHANMODE 0
      GUID {29A688E8-A3A4-4C7C-8FA3-30A4685F3BD8}
      <SOURCE MIDI
        HASDATA 1 960 QN
        POOLEDEVTS {C08B3B99-17DF-43A2-852E-2468A5D2749B}
        E 0 90 24 7f
        E 0 90 2a 68
        E 240 80 24 00
        E 0 80 2a 00
        E 240 90 24 7f
        E 0 90 2a 5b
        E 240 80 24 00
        E 0 80 2a 00
        E 0 90 2a 5b
        E 240 80 2a 00
        E 0 90 24 7f
        E 240 80 24 00
        E 0 90 24 7f
        E 240 80 24 00
        E 0 90 24 7f
        E 0 90 2a 5b
        E 240 80 24 00
        E 0 80 2a 00
        E 0 90 24 7f
        E 0 90 2a 5b
        E 240 80 24 00
        E 0 80 2a 00
        E 0 90 28 69
        E 0 90 2a 68
        E 240 80 28 00
        E 0 80 2a 00
        E 240 90 2a 5b
        E 240 80 2a 00
        E 0 90 2a 5b
        E 240 80 2a 00
        E 480 90 2a 5b
        E 240 80 2a 00
        E 0 90 2a 5b
        E 240 80 2a 00
        E 0 90 2a 68
        E 240 80 2a 00
        E 240 90 24 7f
        E 0 90 2a 5b
        E 240 80 24 00
        E 0 80 2a 00
        E 0 90 24 7f
        E 0 90 2a 5b
        E 240 80 24 00
        E 0 80 2a 00
        E 480 90 24 7f
        E 0 90 2a 5b
        E 240 80 24 00
        E 0 80 2a 00
        E 0 90 24 7f
        E 0 90 2a 5b
        E 240 80 24 00
        E 0 80 2a 00
        E 0 90 28 69
        E 0 90 2a 68
        E 240 80 28 00
        E 0 80 2a 00
        E 240 90 2a 5b
        E 240 80 2a 00
        E 0 90 2a 5b
        E 240 80 2a 00
        E 0 90 2a 5b
        E 240 80 2a 00
        E 240 90 2a 5b
        E 240 80 2a 00
        E 0 90 2a 5b
        E 240 80 2a 00
        E 0 90 24 7f
        E 0 90 2a 68
        E 240 80 24 00
        E 0 80 2a 00
        E 240 90 24 7f
        E 0 90 2a 5b
        E 240 80 24 00
        E 0 80 2a 00
        E 0 90 24 7f
        E 0 90 2a 5b
        E 240 80 24 00
        E 0 80 2a 00
        E 0 90 24 7f
        E 240 80 24 00
        E 240 90 24 7f
        E 0 90 2a 5b
        E 240 80 24 00
        E 0 80 2a 00
        E 0 90 24 7f
        E 0 90 2a 5b
        E 240 80 24 00
        E 0 80 2a 00
        E 0 90 28 69
        E 0 90 2a 68
        E 240 80 28 00
        E 0 80 2a 00
        E 240 90 2a 5b
        E 240 80 2a 00
        E 0 90 2a 5b
        E 240 80 2a 00
        E 480 90 2a 5b
        E 240 80 2a 00
        E 0 90 2a 5b
        E 240 80 2a 00
        E 0 90 24 7f
        E 2 90 28 29
        E 238 80 24 00
        E 2 80 28 00
        E 0 90 28 27
        E 240 80 28 00
        E 0 90 28 2c
        E 240 80 28 00
        E 0 90 28 32
        E 238 90 24 7f
        E 2 80 28 00
        E 0 90 28 37
        E 238 80 24 00
        E 2 80 28 00
        E 0 90 28 3c
        E 240 80 28 00
        E 0 90 28 41
        E 240 80 28 00
        E 0 90 28 46
        E 238 90 24 7f
        E 2 80 28 00
        E 0 90 28 4b
        E 238 80 24 00
        E 2 80 28 00
        E 0 90 28 51
        E 240 80 28 00
        E 0 90 28 56
        E 240 80 28 00
        E 0 90 28 5b
        E 238 90 28 00
        E 0 90 24 7f
        E 0 90 28 7f
        E 2 80 28 00
        E 238 80 24 00
        E 0 90 24 7f
        E 0 90 28 7f
        E 240 80 24 00
        E 0 80 28 00
        E 0 90 24 7f
        E 0 90 28 7f
        E 240 80 24 00
        E 0 80 28 00
        E 0 90 24 7f
        E 0 90 28 7f
        E 240 80 24 00
        E 0 80 28 00
        E 0 b0 7b 00
        GUID {92063A95-0EF1-4406-A9E5-90860409E431}
        IGNTEMPO 0 120.00000000 4 4
        SRCCOLOR 115
        VELLANE -1 112 0
        CFGEDITVIEW 22026.268441 0.023876 50 12 0 0 0 0 0
        KEYSNAP 0 0 "102034050607" 0 "Major"
        TRACKSEL 0 0 0
        EVTFILTER 0 -1 -1 -1 -1 0 1 0 0 -1.00000000 -1.00000000
        CFGEDIT 1 1 0 1 0 0 1 1 1 1 1 0.25000000 -1902 41 -43 1043 0 0 0 0 0.00000000 0 0 0 0 0.500000 0 0 1.000000 64
      >
    >
    <ITEM
      POSITION 67.33333333333300
      SNAPOFFS 0.00000000000000
      LENGTH 5.33333333333339
      LOOP 1
      ALLTAKES 0
      SEL 0
      FADEIN 1 0.000000 0.000000 1 0 0.000000
      FADEOUT 1 0.000000 0.000000 1 0 0.000000
      MUTE 0
      IGUID {2C49A544-43A9-4F56-ABBD-AF6104633272}
      IID 138
      NAME "Genesis Percussion untitled MIDI item"
      VOLPAN 1.000000 0.000000 1.000000 -1.000000
      SOFFS 0.00000000000000 0.00000000000000
      PLAYRATE 1.00000000000000 1 0.00000000000000 -1 0 0.002500
      CHANMODE 0
      GUID {4AFA7136-51DE-4155-8967-993B17C7963D}
      <SOURCE MIDI
        HASDATA 1 960 QN
        POOLEDEVTS {518972F1-4AB7-425D-9261-DB2138853DFF}
        e 0 90 24 7f
        E 0 90 31 7f
        e 240 80 24 00
        E 0 80 31 00
        e 240 90 24 7f
        e 240 80 24 00
        e 240 90 24 7f
        E 0 90 2e 7f
        e 240 80 24 00
        E 0 80 2e 00
        E 240 90 2c 7f
        E 240 80 2c 00
        E 240 90 28 7f
        E 0 90 2e 7f
        E 240 80 28 00
        E 0 80 2e 00
        e 240 90 24 7f
        e 240 80 24 00
        E 240 90 2e 7f
        E 240 80 2e 00
        E 240 90 2c 7f
        E 240 80 2c 00
        E 240 90 2e 7f
        E 240 80 2e 00
        e 240 90 24 7f
        e 240 80 24 00
        E 0 90 2c 7f
        E 240 80 2c 00
        e 0 90 24 7f
        E 0 90 2e 7f
        e 240 80 24 00
        E 0 80 2e 00
        E 240 90 2c 7f
        E 240 80 2c 00
        E 0 90 2c 7f
        E 240 80 2c 00
        E 0 90 28 7f
        E 0 90 2e 7f
        E 240 80 28 00
        E 0 80 2e 00
        e 240 90 24 7f
        e 240 80 24 00
        E 240 90 2e 7f
        E 240 80 2e 00
        E 240 90 2c 7f
        E 240 80 2c 00
        e 240 90 24 7f
        E 0 90 31 7f
        e 240 80 24 00
        E 0 80 31 00
        e 240 90 24 7f
        e 240 80 24 00
        e 240 90 24 7f
        E 0 90 2e 7f
        e 240 80 24 00
        E 0 80 2e 00
        E 240 90 2c 7f
        E 240 80 2c 00
        E 240 90 28 7f
        E 0 90 2e 7f
        E 240 80 28 00
        E 0 80 2e 00
        e 240 90 24 7f
        e 240 80 24 00
        E 240 90 2e 7f
        E 240 80 2e 00
        E 240 90 2c 7f
        E 240 80 2c 00
        E 240 90 2e 7f
        E 240 80 2e 00
        e 240 90 24 7f
        e 240 80 24 00
        E 0 90 2c 7f
        E 240 80 2c 00
        e 0 90 24 7f
        E 0 90 2e 7f
        e 240 80 24 00
        E 0 80 2e 00
        E 240 90 2c 7f
        E 240 80 2c 00
        E 0 90 2c 7f
        E 240 80 2c 00
        E 0 90 28 7f
        E 0 90 2e 7f
        E 240 80 28 00
        E 0 80 2e 00
        e 240 90 24 7f
        e 240 80 24 00
        E 240 90 2e 7f
        E 240 80 2e 00
        E 240 90 2a 7f
        E 240 80 2a 00
        E 15600 b0 7b 00
        GUID {190C88AD-A2B2-4B04-AA5B-DF06DF496846}
        IGNTEMPO 0 120.00000000 4 4
        SRCCOLOR 196
        VELLANE -1 112 0
        CFGEDITVIEW -1352.744085 0.029653 50 12 0 0 0 0 0
        KEYSNAP 0 0 "102034050607" 0 "Major"
        TRACKSEL 0 0 0
        EVTFILTER 0 -1 -1 -1 -1 0 1 0 0 -1.00000000 -1.00000000
        CFGEDIT 1 1 0 1 0 0 1 1 1 1 1 0.25000000 -1902 41 -43 1043 0 0 0 0 0.00000000 0 0 0 0 0.500000 0 0 1.000000 64
      >
    >
    <ITEM
      POSITION 72.66666666666633
      SNAPOFFS 0.00000000000000
      LENGTH 5.33333333333333
      LOOP 1
      ALLTAKES 0
      SEL 0
      FADEIN 1 0.000000 0.000000 1 0 0.000000
      FADEOUT 1 0.000000 0.000000 1 0 0.000000
      MUTE 0
      IGUID {57A9E4DE-B998-4DCD-9AE2-5875C414F93F}
      IID 138
      NAME "Genesis Percussion untitled MIDI item"
      VOLPAN 1.000000 0.000000 1.000000 -1.000000
      SOFFS 0.00000000000000 0.00000000000000
      PLAYRATE 1.00000000000000 1 0.00000000000000 -1 0 0.002500
      CHANMODE 0
      GUID {5CCB55D7-3F03-4534-AEA1-FF4FFE34076A}
      <SOURCE MIDI
        HASDATA 1 960 QN
        POOLEDEVTS {B2547885-FDC5-40D6-AD98-A1F441278D8C}
        E 0 90 24 7f
        E 0 90 31 7f
        E 240 80 24 00
        E 0 80 31 00
        E 240 90 24 7f
        E 240 80 24 00
        E 240 90 24 7f
        E 0 90 2e 7f
        E 240 80 24 00
        E 0 80 2e 00
        E 240 90 2c 7f
        E 240 80 2c 00
        E 240 90 28 7f
        E 0 90 2e 7f
        E 240 80 28 00
        E 0 80 2e 00
        E 240 90 24 7f
        E 240 80 24 00
        E 240 90 2e 7f
        E 240 80 2e 00
        E 240 90 2c 7f
        E 240 80 2c 00
        E 240 90 2e 7f
        E 240 80 2e 00
        E 240 90 24 7f
        E 240 80 24 00
        E 0 90 2c 7f
        E 240 80 2c 00
        E 0 90 24 7f
        E 0 90 2e 7f
        E 240 80 24 00
        E 0 80 2e 00
        E 240 90 2c 7f
        E 240 80 2c 00
        E 0 90 2c 7f
        E 240 80 2c 00
        E 0 90 28 7f
        E 0 90 2e 7f
        E 240 80 28 00
        E 0 80 2e 00
        E 240 90 24 7f
        E 240 80 24 00
        E 240 90 2e 7f
        E 240 80 2e 00
        E 240 90 2c 7f
        E 240 80 2c 00
        E 240 90 24 7f
        E 0 90 31 7f
        E 240 80 24 00
        E 0 80 31 00
        E 240 90 24 7f
        E 240 80 24 00
        E 240 90 24 7f
        E 0 90 2e 7f
        E 240 80 24 00
        E 0 80 2e 00
        E 240 90 2c 7f
        E 240 80 2c 00
        E 240 90 28 7f
        E 0 90 2e 7f
        E 240 80 28 00
        E 0 80 2e 00
        E 240 90 24 7f
        E 240 80 24 00
        E 240 90 2e 7f
        E 240 80 2e 00
        E 240 90 2c 7f
        E 240 80 2c 00
        E 240 90 2e 7f
        E 240 80 2e 00
        E 240 90 24 7f
        E 240 80 24 00
        E 0 90 2c 7f
        E 240 80 2c 00
        E 0 90 24 7f
        E 0 90 2e 7f
        E 240 80 24 00
        E 0 80 2e 00
        E 240 90 2c 7f
        E 240 80 2c 00
        E 0 90 2c 7f
        E 240 80 2c 00
        E 0 90 28 7f
        E 0 90 2e 7f
        E 240 80 28 00
        E 0 80 2e 00
        E 240 90 24 7f
        E 240 80 24 00
        E 240 90 2e 7f
        E 240 80 2e 00
        E 240 90 2a 7f
        E 240 80 2a 00
        E 15600 b0 7b 00
        GUID {A70B0A8D-BF05-45A3-8083-FBFB6555C6F9}
        IGNTEMPO 0 120.00000000 4 4
        SRCCOLOR 197
        VELLANE -1 112 0
        CFGEDITVIEW -16712.744085 0.029653 50 12 0 0 0 0 0
        KEYSNAP 0 0 "102034050607" 0 "Major"
        TRACKSEL 0 0 0
        EVTFILTER 0 -1 -1 -1 -1 0 1 0 0 -1.00000000 -1.00000000
        CFGEDIT 1 1 0 1 0 0 1 1 1 1 1 0.25000000 -1902 41 -43 1043 0 0 0 0 0.00000000 0 0 0 0 0.500000 0 0 1.000000 64
      >
    >
    <ITEM
      POSITION 77.99999999999965
      SNAPOFFS 0.00000000000000
      LENGTH 5.33333333333340
      LOOP 1
      ALLTAKES 0
      SEL 0
      FADEIN 1 0.000000 0.000000 1 0 0.000000
      FADEOUT 1 0.000000 0.000000 1 0 0.000000
      MUTE 0
      IGUID {58F46D17-86F6-4BEF-B11D-70F2E7F2A815}
      IID 138
      NAME "Genesis Percussion untitled MIDI item"
      VOLPAN 1.000000 0.000000 1.000000 -1.000000
      SOFFS 0.00000000000000 0.00000000000000
      PLAYRATE 1.00000000000000 1 0.00000000000000 -1 0 0.002500
      CHANMODE 0
      GUID {164A7E9C-1F6F-4C45-9CCE-435F85FF2DD8}
      <SOURCE MIDI
        HASDATA 1 960 QN
        POOLEDEVTS {B1014FEA-E38C-46A3-AE71-6B6524FCDFB6}
        e 0 90 24 7f
        E 0 90 31 7f
        e 240 80 24 00
        E 0 80 31 00
        e 240 90 24 7f
        e 240 80 24 00
        e 240 90 24 7f
        E 0 90 2e 7f
        e 240 80 24 00
        E 0 80 2e 00
        E 240 90 2c 7f
        E 240 80 2c 00
        E 240 90 28 7f
        E 0 90 2e 7f
        E 240 80 28 00
        E 0 80 2e 00
        e 240 90 24 7f
        e 240 80 24 00
        E 240 90 2e 7f
        E 240 80 2e 00
        E 240 90 2c 7f
        E 240 80 2c 00
        E 240 90 2e 7f
        E 240 80 2e 00
        e 240 90 24 7f
        e 240 80 24 00
        E 0 90 2c 7f
        E 240 80 2c 00
        e 0 90 24 7f
        E 0 90 2e 7f
        e 240 80 24 00
        E 0 80 2e 00
        E 240 90 2c 7f
        E 240 80 2c 00
        E 0 90 2c 7f
        E 240 80 2c 00
        E 0 90 28 7f
        E 0 90 2e 7f
        E 240 80 28 00
        E 0 80 2e 00
        e 240 90 24 7f
        e 240 80 24 00
        E 240 90 2e 7f
        E 240 80 2e 00
        E 240 90 2c 7f
        E 240 80 2c 00
        e 240 90 24 7f
        E 0 90 31 7f
        e 240 80 24 00
        E 0 80 31 00
        e 240 90 24 7f
        e 240 80 24 00
        e 240 90 24 7f
        E 0 90 2e 7f
        e 240 80 24 00
        E 0 80 2e 00
        E 240 90 2c 7f
        E 240 80 2c 00
        E 240 90 28 7f
        E 0 90 2e 7f
        E 240 80 28 00
        E 0 80 2e 00
        e 240 90 24 7f
        e 240 80 24 00
        E 240 90 2e 7f
        E 240 80 2e 00
        E 240 90 2c 7f
        E 240 80 2c 00
        E 240 90 2e 7f
        E 240 80 2e 00
        e 240 90 24 7f
        e 240 80 24 00
        E 0 90 2c 7f
        E 240 80 2c 00
        e 0 90 24 7f
        E 0 90 2e 7f
        e 240 80 24 00
        E 0 80 2e 00
        E 240 90 2c 7f
        E 240 80 2c 00
        E 0 90 2c 7f
        E 240 80 2c 00
        E 0 90 28 7f
        E 0 90 2e 7f
        E 240 80 28 00
        E 0 80 2e 00
        e 240 90 24 7f
        e 240 80 24 00
        E 240 90 2e 7f
        E 240 80 2e 00
        E 240 90 2a 7f
        E 240 80 2a 00
        E 15600 b0 7b 00
        GUID {BA99C2FD-5346-4508-A66F-C72902C98B67}
        IGNTEMPO 0 120.00000000 4 4
        SRCCOLOR 222
        VELLANE -1 112 0
        CFGEDITVIEW 0.000000 0.000000 50 12 0 0 0 0 0
        KEYSNAP 0 0 "102034050607" 0 "Major"
        TRACKSEL 0 0 0
        EVTFILTER 0 -1 -1 -1 -1 0 1 0 0 -1.00000000 -1.00000000
        CFGEDIT 1 1 0 1 0 0 1 1 1 1 1 0.25000000 -1902 41 -43 1043 0 0 0 0 0.00000000 0 0 0 0 0.500000 0 0 1.000000 64
      >
    >
    <ITEM
      POSITION 83.33333333333304
      SNAPOFFS 0.00000000000000
      LENGTH 5.33333333333337
      LOOP 1
      ALLTAKES 0
      SEL 0
      FADEIN 1 0.000000 0.000000 1 0 0.000000
      FADEOUT 1 0.000000 0.000000 1 0 0.000000
      MUTE 0
      IGUID {9FA5C2A9-7B1C-4ADA-9AAE-F24719AC3622}
      IID 138
      NAME "Genesis Percussion untitled MIDI item"
      VOLPAN 1.000000 0.000000 1.000000 -1.000000
      SOFFS 0.00000000000000 0.00000000000000
      PLAYRATE 1.00000000000000 1 0.00000000000000 -1 0 0.002500
      CHANMODE 0
      GUID {3D54C9CF-761A-4A79-8443-7CA2C30B243C}
      <SOURCE MIDI
        HASDATA 1 960 QN
        POOLEDEVTS {15656CED-0F98-4303-943B-7E00E7083DE4}
        E 0 90 24 7f
        E 0 90 31 7f
        E 240 80 24 00
        E 0 80 31 00
        E 240 90 24 7f
        E 240 80 24 00
        E 240 90 24 7f
        E 0 90 2e 7f
        E 240 80 24 00
        E 0 80 2e 00
        E 240 90 2c 7f
        E 240 80 2c 00
        E 240 90 28 7f
        E 0 90 2e 7f
        E 240 80 28 00
        E 0 80 2e 00
        E 240 90 24 7f
        E 240 80 24 00
        E 240 90 2e 7f
        E 240 80 2e 00
        E 240 90 2c 7f
        E 240 80 2c 00
        E 240 90 2e 7f
        E 240 80 2e 00
        E 240 90 24 7f
        E 240 80 24 00
        E 0 90 2c 7f
        E 240 80 2c 00
        E 0 90 24 7f
        E 0 90 2e 7f
        E 240 80 24 00
        E 0 80 2e 00
        E 240 90 2c 7f
        E 240 80 2c 00
        E 0 90 2c 7f
        E 240 80 2c 00
        E 0 90 28 7f
        E 0 90 2e 7f
        E 240 80 28 00
        E 0 80 2e 00
        E 240 90 24 7f
        E 240 80 24 00
        E 240 90 2e 7f
        E 240 80 2e 00
        E 240 90 2c 7f
        E 240 80 2c 00
        E 240 90 24 7f
        E 0 90 31 7f
        E 240 80 24 00
        E 0 80 31 00
        E 0 90 24 7f
        E 240 80 24 00
        E 0 90 24 7f
        E 240 80 24 00
        E 240 90 2e 7f
        E 240 80 2e 00
        E 0 90 24 7f
        E 240 80 24 00
        E 0 90 24 7f
        E 240 80 24 00
        E 0 90 24 7f
        E 240 80 24 00
        E 0 90 28 7f
        E 0 90 2e 7f
        E 240 80 28 00
        E 0 80 2e 00
        E 240 90 24 7f
        E 0 90 2c 7f
        E 240 80 24 00
        E 0 80 2c 00
        E 240 90 24 7f
        E 240 80 24 00
        E 240 90 2e 7f
        E 240 80 2e 00
        E 240 90 24 7f
        E 240 80 24 00
        E 240 90 28 7f
        E 240 80 28 00
        E 0 90 28 7f
        E 240 80 28 00
        E 0 90 28 7f
        E 240 80 28 00
        E 240 90 28 7f
        E 240 80 28 00
        E 240 90 2d 7f
        E 240 80 2d 00
        E 240 90 2b 7f
        E 240 80 2b 00
        E 240 90 29 7f
        E 240 80 29 00
        E 16080 b0 7b 00
        GUID {7B85BC0E-10D2-40F3-89A2-A6C232040C3C}
        IGNTEMPO 0 120.00000000 4 4
        SRCCOLOR 211
        VELLANE -1 112 0
        CFGEDITVIEW -768.000000 0.100024 50 12 0 0 0 0 0
        KEYSNAP 0 0 "102034050607" 0 "Major"
        TRACKSEL 0 0 0
        EVTFILTER 0 -1 -1 -1 -1 0 1 0 0 -1.00000000 -1.00000000
        CFGEDIT 1 1 0 1 0 0 1 1 1 1 1 0.25000000 -1902 41 -43 1043 0 0 0 0 0.00000000 0 0 0 0 0.500000 0 0 1.000000 64
      >
    >
  >
  <TRACK '{604FB956-048B-4B8E-9642-7F75216F3260}'
    NAME "Genesis Percussion 2"
    PEAKCOL 32551040
    BEAT -1
    AUTOMODE 0
    VOLPAN 0.56816022662788 0.00000000000000 -1.00000000000000 -1.00000000000000 1.00000000000000
    MUTESOLO 0 0 0
    IPHASE 0
    ISBUS 0 0
    BUSCOMP 0 0
    SHOWINMIX 1 0.666700 0.500000 1 0.500000 0 -1 0
    FREEMODE 0
    SEL 0
    REC 0 0 0 0 0 0 0
    VU 2
    TRACKHEIGHT 0 0
    INQ 0 0 0 0.5000000000 100 0 0 100
    NCHAN 2
    FX 1
    TRACKID {604FB956-048B-4B8E-9642-7F75216F3260}
    PERF 0
    MIDIOUT -1
    MAINSEND 1 0
    <FXCHAIN
      WNDRECT -1314 36 774 467
      SHOW 0
      LASTSEL 0
      DOCKED 0
      BYPASS 0 0
      <VST "VSTi: sforzando (x86) (Plogue Art et Technologie, Inc)" "sforzando VST_x86.dll" 0 ""
        UUdMUO5e7f4AAAAAAgAAAAEAAAAAAAAAAgAAAAAAAACzAQAAAQAAAAAAEABDRUdQTgUAAHiclZTJTsMwEIbvSLyD5TtNnIZQpAbErhwqKgXO1TQdioVjl9gJ8PZMDF1Y
        JExO9u9vNk/G49PXWrEOGyuNzrkYxJydnuzvjc8aCSV0uHOWZcecrRqzaCtXXJIQi5QTy+gbl+ic1EvLnltQ0r3RMWfWNQg1yTkfJpzV8Fp65UwpU03Oc54cZpxNisvi
        tnUTs0BvBa0zNTgKWirjch7vSgo7VDmXmny3NWrHmZIdfhgTaSvyMUr6BSggSbADhn1SA1upT/mC7LDJeUYGS2XmoO5a7dOMB7H/OIs2lVESTC68dw01hbEPSXSDGq0s
        r2fldRKJZBTFIptNzQs2nM1BPxVkkHpH1SNo3ed8QLWtjKKryVLO3I+Iq/msAb3EntyKjjTrg9c7y9b5cj9z9HlOQOp1nh2oFn07v1XzlRQb8mfdX8kkmBwGk2kweRhM
        ZsHkUTA5CiaPg0kRh6PhXRLhbRLhfRLhjRJ/dmoKDdQfrcr++k+3rBiKf8Dp9hrE6JeJjvqRXm9u7ov11EDl6Ckptq+O319t9hYVVg4XdzD3s9M7HEfrl5I273uwVKQA
        ABAAAAA=
      >
      FLOATPOS 24 24 296 212
      FXID {32A31022-5359-4601-86DA-5CD7109E94AD}
      WAK 0
      BYPASS 0 0
      <VST "VST: ReaEQ (Cockos)" "reaeq.dll" 0 ""
        cWVlcu5e7f4CAAAAAQAAAAAAAAACAAAAAAAAAAIAAAABAAAAAAAAAAIAAAAAAAAAoAAAAAEAAAAAABAAIQAAAAQAAAAAAAAAAQAAAIFO+5MolmJAgYe0mRTC/T8ArBxa
        ZDvvPwEIAAAAAQAAAMArGf+4R3dAqgUslzRy4j9AiUFg5dDiPwEIAAAAAQAAAG2DYedl85RALUDn8ckKBUCA76fGSzfJPwEBAAAAAQAAAGhzpYSwEtRAAQfPAznL4D8B
        f2q8dJPyPwEBAAAAAQAAAAAAAAAAAPA/AAAAAAAAEAAAAA==
      >
      FLOATPOS 24 24 544 420
      FXID {EB8CC759-0721-461D-8F42-1B46A70CF0B6}
      WAK 0
    >
    <ITEM
      POSITION 37.33333333336335
      SNAPOFFS 0.00000000000000
      LENGTH 9.99999999998332
      LOOP 1
      ALLTAKES 0
      SEL 0
      FADEIN 1 0.000000 0.000000 1 0 0.000000
      FADEOUT 1 0.000000 0.000000 1 0 0.000000
      MUTE 0
      IGUID {60B21128-7829-4EC6-A2C2-DE505DD8696A}
      IID 78
      NAME "Genesis Percussion untitled MIDI item glued"
      VOLPAN 1.000000 0.000000 1.000000 -1.000000
      SOFFS 0.00000000000000 0.00000000000000
      PLAYRATE 1.00000000000000 1 0.00000000000000 -1 0 0.002500
      CHANMODE 0
      GUID {5EA5D9EC-0CDB-413D-ABA6-FA7578A32E72}
      <SOURCE MIDI
        HASDATA 1 960 QN
        POOLEDEVTS {1017A912-6869-4F83-9469-46534911E256}
        E 0 90 24 7f
        E 0 90 31 7f
        E 120 80 24 00
        E 0 80 31 00
        E 360 90 33 6f
        E 120 80 33 00
        E 360 90 24 7f
        E 0 90 28 7f
        E 120 80 24 00
        E 0 80 28 00
        E 360 90 33 70
        E 120 80 33 00
        E 360 90 24 7f
        E 120 80 24 00
        E 360 90 33 70
        E 120 80 33 00
        E 120 90 33 6f
        E 120 80 33 00
        E 120 90 24 7f
        E 0 90 28 7f
        E 120 80 24 00
        E 0 80 28 00
        E 360 90 33 70
        E 120 80 33 00
        E 360 90 24 7f
        E 120 80 24 00
        E 360 90 33 70
        E 120 80 33 00
        E 360 90 24 7f
        E 0 90 28 7f
        E 120 80 24 00
        E 0 80 28 00
        E 360 90 33 70
        E 120 80 33 00
        E 360 90 24 7f
        E 120 80 24 00
        E 360 90 33 70
        E 120 80 33 00
        E 360 90 24 7f
        E 0 90 28 7f
        E 120 80 24 00
        E 0 80 28 00
        E 360 90 33 70
        E 120 80 33 00
        E 360 90 24 7f
        E 0 90 31 7f
        E 120 80 24 00
        E 0 80 31 00
        E 360 90 33 70
        E 120 80 33 00
        E 360 90 24 7f
        E 0 90 28 7f
        E 120 80 24 00
        E 0 80 28 00
        E 360 90 33 70
        E 120 80 33 00
        E 360 90 24 7f
        E 120 80 24 00
        E 360 90 33 70
        E 120 80 33 00
        E 120 90 33 6f
        E 120 80 33 00
        E 120 90 24 7f
        E 0 90 28 7f
        E 120 80 24 00
        E 0 80 28 00
        E 360 90 33 70
        E 120 80 33 00
        E 360 90 24 7f
        E 0 90 31 7f
        E 120 80 24 00
        E 0 80 31 00
        E 360 90 33 70
        E 120 80 33 00
        E 360 90 24 7f
        E 0 90 28 7f
        E 120 80 24 00
        E 0 80 28 00
        E 360 90 33 70
        E 120 80 33 00
        E 360 90 24 7f
        E 120 80 24 00
        E 360 90 33 70
        E 120 80 33 00
        E 360 90 24 7f
        E 0 90 28 7f
        E 120 80 24 00
        E 0 80 28 00
        E 360 90 33 70
        E 120 80 33 00
        E 360 90 24 7f
        E 0 90 31 7f
        E 120 80 24 00
        E 0 80 31 00
        E 360 90 33 6f
        E 120 80 33 00
        E 360 90 24 7f
        E 0 90 28 7f
        E 120 80 24 00
        E 0 80 28 00
        E 360 90 33 70
        E 120 80 33 00
        E 360 90 24 7f
        E 120 80 24 00
        E 360 90 33 70
        E 120 80 33 00
        E 120 90 33 6f
        E 120 80 33 00
        E 120 90 24 7f
        E 0 90 28 7f
        E 120 80 24 00
        E 0 80 28 00
        E 360 90 33 70
        E 120 80 33 00
        E 360 90 24 7f
        E 0 90 31 7f
        E 120 80 24 00
        E 0 80 31 00
        E 360 90 33 70
        E 120 80 33 00
        E 360 90 24 7f
        E 0 90 28 7f
        E 120 80 24 00
        E 0 80 28 00
        E 360 90 33 70
        E 120 80 33 00
        E 360 90 24 7f
        E 120 80 24 00
        E 360 90 33 70
        E 120 80 33 00
        E 360 90 24 7f
        E 0 90 28 7f
        E 120 80 24 00
        E 0 80 28 00
        E 360 90 33 70
        E 120 80 33 00
        E 360 90 28 7a
        E 0 90 31 7f
        E 120 80 28 00
        E 0 80 31 00
        E 360 90 24 7f
        E 120 80 24 00
        E 360 90 24 7f
        E 120 80 24 00
        E 360 90 28 7a
        E 0 90 31 7f
        E 120 80 28 00
        E 0 80 31 00
        E 120 90 28 7a
        E 120 80 28 00
        E 120 90 24 7f
        E 120 80 24 00
        E 360 90 24 7f
        E 120 80 24 00
        E 360 90 28 7a
        E 0 90 31 7f
        E 120 80 28 00
        E 0 80 31 00
        E 360 90 24 7f
        E 120 80 24 00
        E 360 90 24 7f
        E 120 80 24 00
        E 360 90 28 7a
        E 0 90 31 7f
        E 120 80 28 00
        E 0 80 31 00
        E 120 90 28 7a
        E 120 80 28 00
        E 120 90 24 7f
        E 120 80 24 00
        E 120 90 24 7f
        E 120 80 24 00
        E 120 90 24 7f
        E 120 80 24 00
        E 120 90 24 7f
        E 120 80 24 00
        E 2040 b0 7b 00
        GUID {CED55F36-CA6F-4C97-B1E7-32B8ED45FC3F}
        IGNTEMPO 0 120.00000000 4 4
        SRCCOLOR 147
        VELLANE -1 112 0
        CFGEDITVIEW 30320.400000 0.053346 50 12 0 0 0 0 0
        KEYSNAP 0 0 "102034050607" 0 "Major"
        TRACKSEL 0 0 0
        EVTFILTER 0 -1 -1 -1 -1 0 1 0 0 -1.00000000 -1.00000000
        CFGEDIT 1 1 0 1 0 0 1 1 1 1 1 0.25000000 -1902 41 -43 1043 0 0 0 0 0.00000000 0 0 0 0 0.500000 0 0 1.000000 64
      >
    >
    <ITEM
      POSITION 47.33333333334667
      SNAPOFFS 0.00000000000000
      LENGTH 9.99999999999301
      LOOP 1
      ALLTAKES 0
      SEL 0
      FADEIN 1 0.000000 0.000000 1 0 0.000000
      FADEOUT 1 0.000000 0.000000 1 0 0.000000
      MUTE 0
      IGUID {7DB5A96B-6981-4735-B00B-9FE4C03F7F63}
      IID 78
      NAME "Genesis Percussion untitled MIDI item glued"
      VOLPAN 1.000000 0.000000 1.000000 -1.000000
      SOFFS 0.00000000000000 0.00000000000000
      PLAYRATE 1.00000000000000 1 0.00000000000000 -1 0 0.002500
      CHANMODE 0
      GUID {4F049AE6-3245-4E57-B364-6285E96F6EDE}
      <SOURCE MIDI
        HASDATA 1 960 QN
        POOLEDEVTS {8D46502C-4250-4E93-9914-90CED7454279}
        E 0 90 24 7f
        E 0 90 39 7f
        E 120 80 24 00
        E 0 80 39 00
        E 360 90 33 6f
        E 120 80 33 00
        E 360 90 24 7f
        E 0 90 28 7f
        E 120 80 24 00
        E 0 80 28 00
        E 360 90 33 70
        E 120 80 33 00
        E 360 90 24 7f
        E 120 80 24 00
        E 360 90 33 70
        E 120 80 33 00
        E 120 90 33 6f
        E 120 80 33 00
        E 120 90 24 7f
        E 0 90 28 7f
        E 120 80 24 00
        E 0 80 28 00
        E 360 90 33 70
        E 120 80 33 00
        E 360 90 24 7f
        E 120 80 24 00
        E 360 90 33 70
        E 120 80 33 00
        E 360 90 24 7f
        E 0 90 28 7f
        E 120 80 24 00
        E 0 80 28 00
        E 360 90 33 70
        E 120 80 33 00
        E 360 90 24 7f
        E 120 80 24 00
        E 360 90 33 70
        E 120 80 33 00
        E 360 90 24 7f
        E 0 90 28 7f
        E 120 80 24 00
        E 0 80 28 00
        E 360 90 33 70
        E 120 80 33 00
        E 360 90 24 7f
        E 0 90 31 7f
        E 120 80 24 00
        E 0 80 31 00
        E 360 90 33 70
        E 120 80 33 00
        E 360 90 24 7f
        E 0 90 28 7f
        E 120 80 24 00
        E 0 80 28 00
        E 360 90 33 70
        E 120 80 33 00
        E 360 90 24 7f
        E 120 80 24 00
        E 360 90 33 70
        E 120 80 33 00
        E 120 90 33 6f
        E 120 80 33 00
        E 120 90 24 7f
        E 0 90 28 7f
        E 120 80 24 00
        E 0 80 28 00
        E 360 90 33 70
        E 120 80 33 00
        E 360 90 24 7f
        E 0 90 39 7f
        E 120 80 24 00
        E 0 80 39 00
        E 360 90 33 70
        E 120 80 33 00
        E 360 90 24 7f
        E 0 90 28 7f
        E 120 80 24 00
        E 0 80 28 00
        E 360 90 33 70
        E 120 80 33 00
        E 360 90 24 7f
        E 120 80 24 00
        E 360 90 33 70
        E 120 80 33 00
        E 360 90 24 7f
        E 0 90 28 7f
        E 120 80 24 00
        E 0 80 28 00
        E 360 90 33 70
        E 120 80 33 00
        E 360 90 24 7f
        E 0 90 39 7f
        E 120 80 24 00
        E 0 80 39 00
        E 360 90 33 6f
        E 120 80 33 00
        E 360 90 24 7f
        E 0 90 28 7f
        E 120 80 24 00
        E 0 80 28 00
        E 360 90 33 70
        E 120 80 33 00
        E 360 90 24 7f
        E 120 80 24 00
        E 360 90 33 70
        E 120 80 33 00
        E 120 90 33 6f
        E 120 80 33 00
        E 120 90 24 7f
        E 0 90 28 7f
        E 120 80 24 00
        E 0 80 28 00
        E 360 90 33 70
        E 120 80 33 00
        E 360 90 24 7f
        E 0 90 31 7f
        E 120 80 24 00
        E 0 80 31 00
        E 360 90 33 70
        E 120 80 33 00
        E 360 90 24 7f
        E 0 90 28 7f
        E 120 80 24 00
        E 0 80 28 00
        E 360 90 33 70
        E 120 80 33 00
        E 360 90 24 7f
        E 120 80 24 00
        E 360 90 33 70
        E 120 80 33 00
        E 360 90 24 7f
        E 0 90 28 7f
        E 120 80 24 00
        E 0 80 28 00
        E 360 90 33 70
        E 120 80 33 00
        E 360 90 28 7a
        E 0 90 39 7f
        E 120 80 28 00
        E 0 80 39 00
        E 360 90 24 7f
        E 120 80 24 00
        E 360 90 24 7f
        E 120 80 24 00
        E 360 90 28 7a
        E 120 80 28 00
        E 120 90 28 7a
        E 120 80 28 00
        E 120 90 24 7f
        E 120 80 24 00
        E 360 90 24 7f
        E 120 80 24 00
        E 360 90 28 7a
        E 120 80 28 00
        E 360 90 24 7f
        E 120 80 24 00
        E 360 90 24 7f
        E 120 80 24 00
        E 360 90 28 7a
        E 120 80 28 00
        E 120 90 28 7a
        E 120 80 28 00
        e 120 90 24 7f
        e 120 80 24 00
        e 120 90 24 7f
        e 120 80 24 00
        e 120 90 24 7f
        e 120 80 24 00
        e 120 90 24 7f
        e 120 80 24 00
        E 2040 b0 7b 00
        GUID {BBBD8A78-4F0C-41AD-9D91-80B3E6D4247D}
        IGNTEMPO 0 120.00000000 4 4
        SRCCOLOR 154
        VELLANE -1 112 0
        CFGEDITVIEW -1440.000000 0.053346 50 12 0 0 0 0 0
        KEYSNAP 0 0 "102034050607" 0 "Major"
        TRACKSEL 0 0 0
        EVTFILTER 0 -1 -1 -1 -1 0 1 0 0 -1.00000000 -1.00000000
        CFGEDIT 1 1 0 1 0 0 1 1 1 1 1 0.25000000 -1902 41 -43 1043 0 0 0 0 0.00000000 0 0 0 0 0.500000 0 0 1.000000 64
      >
    >
    <ITEM
      POSITION 57.33333333333966
      SNAPOFFS 0.00000000000000
      LENGTH 9.99999999999334
      LOOP 1
      ALLTAKES 0
      SEL 0
      FADEIN 1 0.000000 0.000000 1 0 0.000000
      FADEOUT 1 0.000000 0.000000 1 0 0.000000
      MUTE 0
      IGUID {7CA119E5-6014-400A-8AE2-A1D9F0066CD3}
      IID 78
      NAME "Genesis Percussion untitled MIDI item glued"
      VOLPAN 1.000000 0.000000 1.000000 -1.000000
      SOFFS 0.00000000000000 0.00000000000000
      PLAYRATE 1.00000000000000 1 0.00000000000000 -1 0 0.002500
      CHANMODE 0
      GUID {FF394FB3-6DFF-4406-B799-2AAC10A74D52}
      <SOURCE MIDI
        HASDATA 1 960 QN
        POOLEDEVTS {7329B708-1AB5-4B0F-AA21-7D756475D89F}
        E 0 90 24 7f
        E 0 90 39 7f
        E 120 80 24 00
        E 0 80 39 00
        E 360 90 33 6f
        E 120 80 33 00
        E 360 90 24 7f
        E 0 90 28 7f
        E 120 80 24 00
        E 0 80 28 00
        E 360 90 33 70
        E 120 80 33 00
        E 360 90 24 7f
        E 120 80 24 00
        E 360 90 33 70
        E 120 80 33 00
        E 120 90 33 6f
        E 120 80 33 00
        E 120 90 24 7f
        E 0 90 28 7f
        E 120 80 24 00
        E 0 80 28 00
        E 360 90 33 70
        E 120 80 33 00
        E 360 90 24 7f
        E 120 80 24 00
        E 360 90 33 70
        E 120 80 33 00
        E 360 90 24 7f
        E 0 90 28 7f
        E 120 80 24 00
        E 0 80 28 00
        E 360 90 33 70
        E 120 80 33 00
        E 360 90 24 7f
        E 120 80 24 00
        E 360 90 33 70
        E 120 80 33 00
        E 360 90 24 7f
        E 0 90 28 7f
        E 120 80 24 00
        E 0 80 28 00
        E 360 90 33 70
        E 120 80 33 00
        E 360 90 24 7f
        E 0 90 31 7f
        E 120 80 24 00
        E 0 80 31 00
        E 360 90 33 70
        E 120 80 33 00
        E 360 90 24 7f
        E 0 90 28 7f
        E 120 80 24 00
        E 0 80 28 00
        E 360 90 33 70
        E 120 80 33 00
        E 360 90 24 7f
        E 120 80 24 00
        E 360 90 33 70
        E 120 80 33 00
        E 120 90 33 6f
        E 120 80 33 00
        E 120 90 24 7f
        E 0 90 28 7f
        E 120 80 24 00
        E 0 80 28 00
        E 360 90 33 70
        E 120 80 33 00
        E 360 90 24 7f
        E 0 90 39 7f
        E 120 80 24 00
        E 0 80 39 00
        E 360 90 33 70
        E 120 80 33 00
        E 360 90 24 7f
        E 0 90 28 7f
        E 120 80 24 00
        E 0 80 28 00
        E 360 90 33 70
        E 120 80 33 00
        E 360 90 24 7f
        E 120 80 24 00
        E 360 90 33 70
        E 120 80 33 00
        E 360 90 24 7f
        E 0 90 28 7f
        E 120 80 24 00
        E 0 80 28 00
        E 360 90 33 70
        E 120 80 33 00
        E 360 90 24 7f
        E 0 90 39 7f
        E 120 80 24 00
        E 0 80 39 00
        E 360 90 33 6f
        E 120 80 33 00
        E 360 90 24 7f
        E 0 90 28 7f
        E 120 80 24 00
        E 0 80 28 00
        E 360 90 33 70
        E 120 80 33 00
        E 360 90 24 7f
        E 120 80 24 00
        E 360 90 33 70
        E 120 80 33 00
        E 120 90 33 6f
        E 120 80 33 00
        E 120 90 24 7f
        E 0 90 28 7f
        E 120 80 24 00
        E 0 80 28 00
        E 360 90 33 70
        E 120 80 33 00
        E 360 90 24 7f
        E 0 90 31 7f
        E 120 80 24 00
        E 0 80 31 00
        E 360 90 33 70
        E 120 80 33 00
        E 360 90 24 7f
        E 0 90 28 7f
        E 120 80 24 00
        E 0 80 28 00
        E 360 90 33 70
        E 120 80 33 00
        E 360 90 24 7f
        E 120 80 24 00
        E 360 90 33 70
        E 120 80 33 00
        E 360 90 24 7f
        E 0 90 28 7f
        E 120 80 24 00
        E 0 80 28 00
        E 360 90 33 70
        E 120 80 33 00
        E 360 90 28 7a
        E 0 90 39 7f
        E 120 80 28 00
        E 0 80 39 00
        E 360 90 24 7f
        E 120 80 24 00
        E 360 90 24 7f
        E 120 80 24 00
        E 360 90 28 7a
        E 120 80 28 00
        E 120 90 28 7a
        E 120 80 28 00
        E 120 90 24 7f
        E 120 80 24 00
        E 360 90 24 7f
        E 120 80 24 00
        E 360 90 28 7a
        E 120 80 28 00
        E 360 90 24 7f
        E 120 80 24 00
        E 360 90 24 7f
        E 120 80 24 00
        E 360 90 28 7a
        E 120 80 28 00
        E 120 90 28 7a
        E 120 80 28 00
        e 120 90 24 7f
        e 120 80 24 00
        e 120 90 24 7f
        e 120 80 24 00
        e 120 90 24 7f
        e 120 80 24 00
        e 120 90 24 7f
        e 120 80 24 00
        E 2040 b0 7b 00
        GUID {1CACB6C3-D99D-4A76-AEFD-759BA10E03F5}
        IGNTEMPO 0 120.00000000 4 4
        SRCCOLOR 181
        VELLANE -1 112 0
        CFGEDITVIEW 45259.920000 0.053346 50 12 0 0 0 0 0
        KEYSNAP 0 0 "102034050607" 0 "Major"
        TRACKSEL 0 0 0
        EVTFILTER 0 -1 -1 -1 -1 0 1 0 0 -1.00000000 -1.00000000
        CFGEDIT 1 1 0 1 0 0 1 1 1 1 1 0.25000000 -1902 41 -43 1043 0 0 0 0 0.00000000 0 0 0 0 0.500000 0 0 1.000000 64
      >
    >
  >
  <TRACK '{52FD38CB-B3E5-4B7A-807A-9B19BAAF42E2}'
    NAME "Gen Bass Pad"
    PEAKCOL 27226414
    BEAT -1
    AUTOMODE 0
    VOLPAN 0.77876864236319 0.00000000000000 -1.00000000000000 -1.00000000000000 1.00000000000000
    MUTESOLO 0 0 0
    IPHASE 0
    ISBUS 0 0
    BUSCOMP 0 0
    SHOWINMIX 1 0.666700 0.500000 1 0.500000 0 -1 0
    FREEMODE 0
    SEL 0
    REC 0 0 0 0 0 0 0
    VU 2
    TRACKHEIGHT 0 0
    INQ 0 0 0 0.5000000000 100 0 0 100
    NCHAN 2
    FX 1
    TRACKID {52FD38CB-B3E5-4B7A-807A-9B19BAAF42E2}
    PERF 0
    MIDIOUT -1
    MAINSEND 1 0
    <FXCHAIN
      SHOW 0
      LASTSEL 0
      DOCKED 0
      BYPASS 0 0
      <VST "VSTi: sforzando (x86) (Plogue Art et Technologie, Inc)" "sforzando VST_x86.dll" 0 ""
        UUdMUO5e7f4AAAAAAgAAAAEAAAAAAAAAAgAAAAAAAAC0AQAAAQAAAAAAEABDRUdQKgUAAHicjZRLT8MwDMfvSHyHKHfWpitlSCto4zH1MIFUOFdeZ0ZEmo4mrca3xw17
        8ZBITrHzs/N3XWd8vakU67AxstYpF4OQs+ur05PxpJGQQ4dHZ0lyydm6qZdtabNbcoQi5sQyWuMcrZV6Zdh7C0raDzrmzNgGoSJ3yocRZxVscueZKFWX82nKo/OEs3l2
        mz20dl4v0UVBa+sKLF2aq9qmPDx2KexQpVxqyt1WqC1nSnb4FUykKSmHGPYbUEAuwc4Y9qIGplRb9w3FYZPyhAJWql6Aemq1kxkOQrc4C/aVkQgmly67hoquMS9RMEON
        Rub3RX4fBRQQhMNRkX9o+1pMwZiC6liAfssoLnb5ylfQupd+RkfrWtEXSmLO7K+L14uiAb3Cnjw4LfmM01AdbVvrqt5KdXLnIPVObgeqRdfVH0V9J8We/F3+dzLyJofe
        ZOxNnnuTiTd54U2OvMlLb1KE/qh/l4R/m4R/n4R/o8S/nXqEBqqtAvHfj3oEx4fSxOiPYQ36ad0Zs+dsNwlQWnolssOD4uy7vW1QYWlx+QSLrwntM46D3StIxicXMU1d
        AAAQAAAA
      >
      FLOATPOS 0 0 0 0
      FXID {29AECA86-6EBE-43DE-A958-531C66ED78B5}
      WAK 0
    >
    <ITEM
      POSITION 47.33333333333998
      SNAPOFFS 0.00000000000000
      LENGTH 9.99999999999968
      LOOP 1
      ALLTAKES 0
      SEL 0
      FADEIN 1 0.000000 0.000000 1 0 0.000000
      FADEOUT 1 0.000000 0.000000 1 0 0.000000
      MUTE 0
      IGUID {A774E757-6A68-49D0-9744-D3BCA41835B6}
      IID 74
      NAME "untitled MIDI item glued"
      VOLPAN 1.000000 0.000000 1.000000 -1.000000
      SOFFS 0.00000000000000 0.00000000000000
      PLAYRATE 1.00000000000000 1 0.00000000000000 -1 0 0.002500
      CHANMODE 0
      GUID {B25B887C-4C53-4707-A586-E56B9136CB94}
      <SOURCE MIDI
        HASDATA 1 960 QN
        POOLEDEVTS {0D755200-6450-4C09-95E7-1335D298F3FF}
        E 0 90 1c 7f
        E 7680 80 1c 00
        E 0 90 1f 7f
        E 3840 80 1f 00
        E 0 90 1a 7f
        E 3840 80 1a 00
        E 0 90 1c 7f
        E 3840 80 1c 00
        E 0 90 18 7f
        E 3840 80 18 00
        e 0 90 1a 7f
        e 7680 80 1a 00
        E 0 b0 7b 00
        GUID {327C4AC6-8062-4809-965D-1A242E673223}
        IGNTEMPO 0 120.00000000 4 4
        SRCCOLOR 155
        VELLANE 1 112 0
        CFGEDITVIEW 24.720000 0.132504 19 12 0 0 0 0 0
        KEYSNAP 0 0 "102034050607" 0 "Major"
        TRACKSEL 0 0 0
        EVTFILTER 0 -1 -1 -1 -1 0 1 0 0 -1.00000000 -1.00000000
        CFGEDIT 1 1 0 1 0 0 1 1 1 1 1 0.03125000 -1846 101 -3 1087 0 0 0 0 0.00000000 0 0 0 0 0.500000 0 0 1.000000 64
      >
    >
    <ITEM
      POSITION 57.33333333333966
      SNAPOFFS 0.00000000000000
      LENGTH 9.99999999999334
      LOOP 1
      ALLTAKES 0
      SEL 0
      FADEIN 1 0.000000 0.000000 1 0 0.000000
      FADEOUT 1 0.000000 0.000000 1 0 0.000000
      MUTE 0
      IGUID {3AC45E98-EFA9-49AC-9A80-65E927031DC0}
      IID 74
      NAME "untitled MIDI item glued"
      VOLPAN 1.000000 0.000000 1.000000 -1.000000
      SOFFS 0.00000000000000 0.00000000000000
      PLAYRATE 1.00000000000000 1 0.00000000000000 -1 0 0.002500
      CHANMODE 0
      GUID {D5E5CE7F-AA7F-4123-A734-D0220A6108D0}
      <SOURCE MIDI
        HASDATA 1 960 QN
        POOLEDEVTS {4B0CF8BB-EBF7-45D6-8AE7-E5CBCA5E7164}
        E 0 90 1c 7f
        E 7680 80 1c 00
        E 0 90 1f 7f
        E 3840 80 1f 00
        E 0 90 1a 7f
        E 3840 80 1a 00
        E 0 90 1c 7f
        E 3840 80 1c 00
        E 0 90 18 7f
        E 3840 80 18 00
        e 0 90 1a 7f
        e 7680 80 1a 00
        E 0 b0 7b 00
        GUID {41405893-FE29-4D1F-9B78-C3E0C7949938}
        IGNTEMPO 0 120.00000000 4 4
        SRCCOLOR 182
        VELLANE 1 112 0
        CFGEDITVIEW 0.000000 0.000000 19 12 0 0 0 0 0
        KEYSNAP 0 0 "102034050607" 0 "Major"
        TRACKSEL 0 0 0
        EVTFILTER 0 -1 -1 -1 -1 0 1 0 0 -1.00000000 -1.00000000
        CFGEDIT 1 1 0 1 0 0 1 1 1 1 1 0.03125000 -1846 101 -3 1087 0 0 0 0 0.00000000 0 0 0 0 0.500000 0 0 1.000000 64
      >
    >
    <ITEM
      POSITION 67.33333333333300
      SNAPOFFS 0.00000000000000
      LENGTH 10.66666666666664
      LOOP 1
      ALLTAKES 0
      SEL 0
      FADEIN 1 0.000000 0.000000 1 0 0.000000
      FADEOUT 1 0.000000 0.000000 1 0 0.000000
      MUTE 0
      IGUID {F105129E-E480-4373-B83A-EFCABD2D6625}
      IID 134
      NAME "MMX Slap Bass untitled MIDI item glued"
      VOLPAN 1.000000 0.000000 1.000000 -1.000000
      SOFFS 0.00000000000000 0.00000000000000
      PLAYRATE 1.00000000000000 1 0.00000000000000 -1 0 0.002500
      CHANMODE 0
      GUID {9636E32C-8D9D-492D-A21D-22F2CD48420C}
      <SOURCE MIDI
        HASDATA 1 960 QN
        POOLEDEVTS {973385A4-133D-4BE5-BDA2-FDFDF407914B}
        e 0 90 1c 7f
        e 2880 80 1c 00
        e 0 90 1c 7f
        e 960 80 1c 00
        e 0 90 1c 7f
        e 2880 80 1c 00
        e 0 90 1c 7f
        e 960 80 1c 00
        e 0 90 24 7f
        e 2880 80 24 00
        e 0 90 24 7f
        e 960 80 24 00
        e 0 90 24 7f
        e 2880 80 24 00
        e 0 90 23 7f
        e 960 80 23 00
        e 0 90 21 7f
        e 2880 80 21 00
        e 0 90 21 7f
        e 960 80 21 00
        e 0 90 21 7f
        e 2880 80 21 00
        e 0 90 21 7f
        e 960 80 21 00
        e 0 90 23 7f
        e 2880 80 23 00
        e 0 90 23 7f
        e 960 80 23 00
        e 0 90 23 7f
        e 1920 80 23 00
        e 0 90 1f 7f
        e 1920 80 1f 00
        E 0 b0 7b 00
        GUID {99D58DA0-6326-4D83-BA99-2F64233B66F8}
        IGNTEMPO 0 120.00000000 4 4
        SRCCOLOR 194
        VELLANE -1 112 0
        CFGEDITVIEW 36480.000000 0.050012 50 12 0 0 0 0 0
        KEYSNAP 0 0 "102034050607" 0 "Major"
        TRACKSEL 0 0 0
        EVTFILTER 0 -1 -1 -1 -1 0 1 0 0 -1.00000000 -1.00000000
        CFGEDIT 1 1 0 1 0 0 1 1 1 1 1 0.25000000 -1902 41 -43 1043 0 0 0 0 0.00000000 0 0 0 0 0.500000 0 0 1.000000 64
      >
    >
    <ITEM
      POSITION 77.99999999999965
      SNAPOFFS 0.00000000000000
      LENGTH 10.66666666666666
      LOOP 1
      ALLTAKES 0
      SEL 0
      FADEIN 1 0.000000 0.000000 1 0 0.000000
      FADEOUT 1 0.000000 0.000000 1 0 0.000000
      MUTE 0
      IGUID {3F3A486E-4336-4C5F-A611-4F40B0E00B5E}
      IID 134
      NAME "MMX Slap Bass untitled MIDI item glued"
      VOLPAN 1.000000 0.000000 1.000000 -1.000000
      SOFFS 0.00000000000000 0.00000000000000
      PLAYRATE 1.00000000000000 1 0.00000000000000 -1 0 0.002500
      CHANMODE 0
      GUID {4CA35092-6E9B-4201-B420-0490FB42D93D}
      <SOURCE MIDI
        HASDATA 1 960 QN
        POOLEDEVTS {EE058B56-2C73-4DFE-AAE8-6B02AB4F5B8A}
        e 0 90 1c 7f
        e 2880 80 1c 00
        e 0 90 1c 7f
        e 960 80 1c 00
        e 0 90 1c 7f
        e 2880 80 1c 00
        e 0 90 1c 7f
        e 960 80 1c 00
        e 0 90 24 7f
        e 2880 80 24 00
        e 0 90 24 7f
        e 960 80 24 00
        e 0 90 24 7f
        e 2880 80 24 00
        e 0 90 23 7f
        e 960 80 23 00
        e 0 90 21 7f
        e 2880 80 21 00
        e 0 90 21 7f
        e 960 80 21 00
        e 0 90 21 7f
        e 2880 80 21 00
        e 0 90 21 7f
        e 960 80 21 00
        e 0 90 23 7f
        e 2880 80 23 00
        e 0 90 23 7f
        e 960 80 23 00
        e 0 90 23 7f
        e 1920 80 23 00
        e 0 90 1f 7f
        e 1920 80 1f 00
        E 0 b0 7b 00
        GUID {78258E4F-ECB0-4549-A595-67415EF0DF8F}
        IGNTEMPO 0 120.00000000 4 4
        SRCCOLOR 224
        VELLANE -1 112 0
        CFGEDITVIEW 0.000000 0.000000 50 12 0 0 0 0 0
        KEYSNAP 0 0 "102034050607" 0 "Major"
        TRACKSEL 0 0 0
        EVTFILTER 0 -1 -1 -1 -1 0 1 0 0 -1.00000000 -1.00000000
        CFGEDIT 1 1 0 1 0 0 1 1 1 1 1 0.25000000 -1902 41 -43 1043 0 0 0 0 0.00000000 0 0 0 0 0.500000 0 0 1.000000 64
      >
    >
  >
>
